%FSLAX45Y45*%
G04 Gerber Fmt 4.5, Leading zero omitted, Abs format (unit mm)*
G04 Created by KiCad (PCBNEW 4.0.7) date 2017 November 13, Monday 18:48:11*
%MOMM*%
%LPD*%
G01*
G04 APERTURE LIST*
%ADD10C,0.127000*%
%ADD11C,0.150000*%
%ADD12C,0.200000*%
%ADD13C,0.300000*%
G04 APERTURE END LIST*
D10*
D11*
X19750000Y-15500000D02*
X19750000Y-15750000D01*
X14750000Y-15500000D02*
X14750000Y-15750000D01*
X19750000Y-10500000D02*
X19750000Y-10750000D01*
X17500000Y-13750000D02*
X17250000Y-13750000D01*
X12500000Y-13750000D02*
X12250000Y-13750000D01*
X17500000Y-8750000D02*
X17250000Y-8750000D01*
X17500000Y-13750000D02*
G75*
G03X19250000Y-15500000I2000000J250000D01*
G01*
X12500000Y-13750000D02*
G75*
G03X14250000Y-15500000I2000000J250000D01*
G01*
X17500000Y-8750000D02*
G75*
G03X19250000Y-10500000I2000000J250000D01*
G01*
X19250000Y-15750000D02*
X17250000Y-15750000D01*
X14250000Y-15750000D02*
X12250000Y-15750000D01*
X19250000Y-10750000D02*
X17250000Y-10750000D01*
X19250000Y-15500000D02*
X19250000Y-15750000D01*
X14250000Y-15500000D02*
X14250000Y-15750000D01*
X19250000Y-10500000D02*
X19250000Y-10750000D01*
X17250000Y-15750000D02*
X17250000Y-13750000D01*
X12250000Y-15750000D02*
X12250000Y-13750000D01*
X17250000Y-10750000D02*
X17250000Y-8750000D01*
X19750000Y-11250000D02*
X19750000Y-11500000D01*
X14750000Y-11250000D02*
X14750000Y-11500000D01*
X19750000Y-6250000D02*
X19750000Y-6500000D01*
X21750000Y-13250000D02*
X21500000Y-13250000D01*
X16750000Y-13250000D02*
X16500000Y-13250000D01*
X21750000Y-8250000D02*
X21500000Y-8250000D01*
X21750000Y-13250000D02*
X21750000Y-11250000D01*
X16750000Y-13250000D02*
X16750000Y-11250000D01*
X21750000Y-8250000D02*
X21750000Y-6250000D01*
X21500000Y-13250000D02*
G75*
G03X19750000Y-11500000I-2000000J-250000D01*
G01*
X16500000Y-13250000D02*
G75*
G03X14750000Y-11500000I-2000000J-250000D01*
G01*
X21500000Y-8250000D02*
G75*
G03X19750000Y-6500000I-2000000J-250000D01*
G01*
X19750000Y-11250000D02*
X21750000Y-11250000D01*
X14750000Y-11250000D02*
X16750000Y-11250000D01*
X19750000Y-6250000D02*
X21750000Y-6250000D01*
X21750000Y-15750000D02*
X19750000Y-15750000D01*
X16750000Y-15750000D02*
X14750000Y-15750000D01*
X21750000Y-10750000D02*
X19750000Y-10750000D01*
X19750000Y-15500000D02*
G75*
G03X21500000Y-13750000I-250000J2000000D01*
G01*
X14750000Y-15500000D02*
G75*
G03X16500000Y-13750000I-250000J2000000D01*
G01*
X19750000Y-10500000D02*
G75*
G03X21500000Y-8750000I-250000J2000000D01*
G01*
X21750000Y-13750000D02*
X21750000Y-15750000D01*
X16750000Y-13750000D02*
X16750000Y-15750000D01*
X21750000Y-8750000D02*
X21750000Y-10750000D01*
X21500000Y-13750000D02*
X21750000Y-13750000D01*
X16500000Y-13750000D02*
X16750000Y-13750000D01*
X21500000Y-8750000D02*
X21750000Y-8750000D01*
X17250000Y-13250000D02*
X17250000Y-11250000D01*
X12250000Y-13250000D02*
X12250000Y-11250000D01*
X17250000Y-8250000D02*
X17250000Y-6250000D01*
X17250000Y-11250000D02*
X19250000Y-11250000D01*
X12250000Y-11250000D02*
X14250000Y-11250000D01*
X17250000Y-6250000D02*
X19250000Y-6250000D01*
X19250000Y-11250000D02*
X19250000Y-11500000D01*
X14250000Y-11250000D02*
X14250000Y-11500000D01*
X19250000Y-6250000D02*
X19250000Y-6500000D01*
X19250000Y-11500000D02*
G75*
G03X17500000Y-13250000I250000J-2000000D01*
G01*
X14250000Y-11500000D02*
G75*
G03X12500000Y-13250000I250000J-2000000D01*
G01*
X19250000Y-6500000D02*
G75*
G03X17500000Y-8250000I250000J-2000000D01*
G01*
X17500000Y-13250000D02*
X17250000Y-13250000D01*
X12500000Y-13250000D02*
X12250000Y-13250000D01*
X17500000Y-8250000D02*
X17250000Y-8250000D01*
X12500000Y-8750000D02*
G75*
G03X14250000Y-10500000I2000000J250000D01*
G01*
X16500000Y-8250000D02*
G75*
G03X14750000Y-6500000I-2000000J-250000D01*
G01*
X14750000Y-10500000D02*
G75*
G03X16500000Y-8750000I-250000J2000000D01*
G01*
X12250000Y-10750000D02*
X12250000Y-8750000D01*
X14750000Y-6250000D02*
X16750000Y-6250000D01*
X14750000Y-10500000D02*
X14750000Y-10750000D01*
X14250000Y-10500000D02*
X14250000Y-10750000D01*
X16500000Y-8750000D02*
X16750000Y-8750000D01*
X16750000Y-8750000D02*
X16750000Y-10750000D01*
X16750000Y-8250000D02*
X16750000Y-6250000D01*
X16750000Y-8250000D02*
X16500000Y-8250000D01*
X16750000Y-10750000D02*
X14750000Y-10750000D01*
X14250000Y-10750000D02*
X12250000Y-10750000D01*
X12250000Y-8250000D02*
X12250000Y-6250000D01*
X12250000Y-6250000D02*
X14250000Y-6250000D01*
X14250000Y-6500000D02*
G75*
G03X12500000Y-8250000I250000J-2000000D01*
G01*
X12500000Y-8750000D02*
X12250000Y-8750000D01*
X12500000Y-8250000D02*
X12250000Y-8250000D01*
X14250000Y-6250000D02*
X14250000Y-6500000D01*
X14750000Y-6250000D02*
X14750000Y-6500000D01*
X12000000Y-16000000D02*
X12000000Y-6000000D01*
X22000000Y-16000000D02*
X12000000Y-16000000D01*
X22000000Y-6000000D02*
X22000000Y-16000000D01*
X12000000Y-6000000D02*
X22000000Y-6000000D01*
D12*
X13130000Y-7380000D02*
X13170000Y-7420000D01*
X13170000Y-7380000D02*
X13130000Y-7420000D01*
X13130000Y-8630000D02*
X13170000Y-8670000D01*
X13170000Y-8630000D02*
X13130000Y-8670000D01*
X13130000Y-12380000D02*
X13170000Y-12420000D01*
X13170000Y-12380000D02*
X13130000Y-12420000D01*
X13130000Y-13630000D02*
X13170000Y-13670000D01*
X13170000Y-13630000D02*
X13130000Y-13670000D01*
X13205000Y-9630000D02*
X13245000Y-9670000D01*
X13245000Y-9630000D02*
X13205000Y-9670000D01*
X13205000Y-14630000D02*
X13245000Y-14670000D01*
X13245000Y-14630000D02*
X13205000Y-14670000D01*
X13230000Y-9005000D02*
X13270000Y-9045000D01*
X13270000Y-9005000D02*
X13230000Y-9045000D01*
X13230000Y-14005000D02*
X13270000Y-14045000D01*
X13270000Y-14005000D02*
X13230000Y-14045000D01*
X13405000Y-7355000D02*
X13445000Y-7395000D01*
X13445000Y-7355000D02*
X13405000Y-7395000D01*
X13405000Y-12355000D02*
X13445000Y-12395000D01*
X13445000Y-12355000D02*
X13405000Y-12395000D01*
X13480000Y-9505000D02*
X13520000Y-9545000D01*
X13520000Y-9505000D02*
X13480000Y-9545000D01*
X13480000Y-14505000D02*
X13520000Y-14545000D01*
X13520000Y-14505000D02*
X13480000Y-14545000D01*
X13555000Y-9805000D02*
X13595000Y-9845000D01*
X13595000Y-9805000D02*
X13555000Y-9845000D01*
X13555000Y-14805000D02*
X13595000Y-14845000D01*
X13595000Y-14805000D02*
X13555000Y-14845000D01*
X13580000Y-8505000D02*
X13620000Y-8545000D01*
X13620000Y-8505000D02*
X13580000Y-8545000D01*
X13580000Y-13505000D02*
X13620000Y-13545000D01*
X13620000Y-13505000D02*
X13580000Y-13545000D01*
X13630000Y-7430000D02*
X13670000Y-7470000D01*
X13670000Y-7430000D02*
X13630000Y-7470000D01*
X13630000Y-12430000D02*
X13670000Y-12470000D01*
X13670000Y-12430000D02*
X13630000Y-12470000D01*
X13805000Y-8455000D02*
X13845000Y-8495000D01*
X13845000Y-8455000D02*
X13805000Y-8495000D01*
X13805000Y-13455000D02*
X13845000Y-13495000D01*
X13845000Y-13455000D02*
X13805000Y-13495000D01*
X13880000Y-8105000D02*
X13920000Y-8145000D01*
X13920000Y-8105000D02*
X13880000Y-8145000D01*
X13880000Y-13105000D02*
X13920000Y-13145000D01*
X13920000Y-13105000D02*
X13880000Y-13145000D01*
X13905000Y-8630000D02*
X13945000Y-8670000D01*
X13945000Y-8630000D02*
X13905000Y-8670000D01*
X13905000Y-13630000D02*
X13945000Y-13670000D01*
X13945000Y-13630000D02*
X13905000Y-13670000D01*
X13930000Y-9355000D02*
X13970000Y-9395000D01*
X13970000Y-9355000D02*
X13930000Y-9395000D01*
X13930000Y-14355000D02*
X13970000Y-14395000D01*
X13970000Y-14355000D02*
X13930000Y-14395000D01*
X14030000Y-7230000D02*
X14070000Y-7270000D01*
X14070000Y-7230000D02*
X14030000Y-7270000D01*
X14030000Y-12230000D02*
X14070000Y-12270000D01*
X14070000Y-12230000D02*
X14030000Y-12270000D01*
X14055000Y-7330000D02*
X14095000Y-7370000D01*
X14095000Y-7330000D02*
X14055000Y-7370000D01*
X14055000Y-12330000D02*
X14095000Y-12370000D01*
X14095000Y-12330000D02*
X14055000Y-12370000D01*
X14130000Y-8055000D02*
X14170000Y-8095000D01*
X14170000Y-8055000D02*
X14130000Y-8095000D01*
X14130000Y-13055000D02*
X14170000Y-13095000D01*
X14170000Y-13055000D02*
X14130000Y-13095000D01*
X14280000Y-8380000D02*
X14320000Y-8420000D01*
X14320000Y-8380000D02*
X14280000Y-8420000D01*
X14280000Y-13380000D02*
X14320000Y-13420000D01*
X14320000Y-13380000D02*
X14280000Y-13420000D01*
X14330000Y-8655000D02*
X14370000Y-8695000D01*
X14370000Y-8655000D02*
X14330000Y-8695000D01*
X14330000Y-13655000D02*
X14370000Y-13695000D01*
X14370000Y-13655000D02*
X14330000Y-13695000D01*
X14480000Y-9355000D02*
X14520000Y-9395000D01*
X14520000Y-9355000D02*
X14480000Y-9395000D01*
X14480000Y-14355000D02*
X14520000Y-14395000D01*
X14520000Y-14355000D02*
X14480000Y-14395000D01*
X14655000Y-8780000D02*
X14695000Y-8820000D01*
X14695000Y-8780000D02*
X14655000Y-8820000D01*
X14655000Y-13780000D02*
X14695000Y-13820000D01*
X14695000Y-13780000D02*
X14655000Y-13820000D01*
X15080000Y-7230000D02*
X15120000Y-7270000D01*
X15120000Y-7230000D02*
X15080000Y-7270000D01*
X15080000Y-12230000D02*
X15120000Y-12270000D01*
X15120000Y-12230000D02*
X15080000Y-12270000D01*
X15430000Y-7280000D02*
X15470000Y-7320000D01*
X15470000Y-7280000D02*
X15430000Y-7320000D01*
X15430000Y-12280000D02*
X15470000Y-12320000D01*
X15470000Y-12280000D02*
X15430000Y-12320000D01*
X15455000Y-7455000D02*
X15495000Y-7495000D01*
X15495000Y-7455000D02*
X15455000Y-7495000D01*
X15455000Y-12455000D02*
X15495000Y-12495000D01*
X15495000Y-12455000D02*
X15455000Y-12495000D01*
X15530000Y-9155000D02*
X15570000Y-9195000D01*
X15570000Y-9155000D02*
X15530000Y-9195000D01*
X15530000Y-14155000D02*
X15570000Y-14195000D01*
X15570000Y-14155000D02*
X15530000Y-14195000D01*
X15805000Y-9430000D02*
X15845000Y-9470000D01*
X15845000Y-9430000D02*
X15805000Y-9470000D01*
X15805000Y-14430000D02*
X15845000Y-14470000D01*
X15845000Y-14430000D02*
X15805000Y-14470000D01*
X16230000Y-8530000D02*
X16270000Y-8570000D01*
X16270000Y-8530000D02*
X16230000Y-8570000D01*
X16230000Y-13530000D02*
X16270000Y-13570000D01*
X16270000Y-13530000D02*
X16230000Y-13570000D01*
X18130000Y-7380000D02*
X18170000Y-7420000D01*
X18170000Y-7380000D02*
X18130000Y-7420000D01*
X18130000Y-8630000D02*
X18170000Y-8670000D01*
X18170000Y-8630000D02*
X18130000Y-8670000D01*
X18130000Y-12380000D02*
X18170000Y-12420000D01*
X18170000Y-12380000D02*
X18130000Y-12420000D01*
X18130000Y-13630000D02*
X18170000Y-13670000D01*
X18170000Y-13630000D02*
X18130000Y-13670000D01*
X18205000Y-9630000D02*
X18245000Y-9670000D01*
X18245000Y-9630000D02*
X18205000Y-9670000D01*
X18205000Y-14630000D02*
X18245000Y-14670000D01*
X18245000Y-14630000D02*
X18205000Y-14670000D01*
X18230000Y-9005000D02*
X18270000Y-9045000D01*
X18270000Y-9005000D02*
X18230000Y-9045000D01*
X18230000Y-14005000D02*
X18270000Y-14045000D01*
X18270000Y-14005000D02*
X18230000Y-14045000D01*
X18405000Y-7355000D02*
X18445000Y-7395000D01*
X18445000Y-7355000D02*
X18405000Y-7395000D01*
X18405000Y-12355000D02*
X18445000Y-12395000D01*
X18445000Y-12355000D02*
X18405000Y-12395000D01*
X18480000Y-9505000D02*
X18520000Y-9545000D01*
X18520000Y-9505000D02*
X18480000Y-9545000D01*
X18480000Y-14505000D02*
X18520000Y-14545000D01*
X18520000Y-14505000D02*
X18480000Y-14545000D01*
X18555000Y-9805000D02*
X18595000Y-9845000D01*
X18595000Y-9805000D02*
X18555000Y-9845000D01*
X18555000Y-14805000D02*
X18595000Y-14845000D01*
X18595000Y-14805000D02*
X18555000Y-14845000D01*
X18580000Y-8505000D02*
X18620000Y-8545000D01*
X18620000Y-8505000D02*
X18580000Y-8545000D01*
X18580000Y-13505000D02*
X18620000Y-13545000D01*
X18620000Y-13505000D02*
X18580000Y-13545000D01*
X18630000Y-7430000D02*
X18670000Y-7470000D01*
X18670000Y-7430000D02*
X18630000Y-7470000D01*
X18630000Y-12430000D02*
X18670000Y-12470000D01*
X18670000Y-12430000D02*
X18630000Y-12470000D01*
X18805000Y-8455000D02*
X18845000Y-8495000D01*
X18845000Y-8455000D02*
X18805000Y-8495000D01*
X18805000Y-13455000D02*
X18845000Y-13495000D01*
X18845000Y-13455000D02*
X18805000Y-13495000D01*
X18880000Y-8105000D02*
X18920000Y-8145000D01*
X18920000Y-8105000D02*
X18880000Y-8145000D01*
X18880000Y-13105000D02*
X18920000Y-13145000D01*
X18920000Y-13105000D02*
X18880000Y-13145000D01*
X18905000Y-8630000D02*
X18945000Y-8670000D01*
X18945000Y-8630000D02*
X18905000Y-8670000D01*
X18905000Y-13630000D02*
X18945000Y-13670000D01*
X18945000Y-13630000D02*
X18905000Y-13670000D01*
X18930000Y-9355000D02*
X18970000Y-9395000D01*
X18970000Y-9355000D02*
X18930000Y-9395000D01*
X18930000Y-14355000D02*
X18970000Y-14395000D01*
X18970000Y-14355000D02*
X18930000Y-14395000D01*
X19030000Y-7230000D02*
X19070000Y-7270000D01*
X19070000Y-7230000D02*
X19030000Y-7270000D01*
X19030000Y-12230000D02*
X19070000Y-12270000D01*
X19070000Y-12230000D02*
X19030000Y-12270000D01*
X19055000Y-7330000D02*
X19095000Y-7370000D01*
X19095000Y-7330000D02*
X19055000Y-7370000D01*
X19055000Y-12330000D02*
X19095000Y-12370000D01*
X19095000Y-12330000D02*
X19055000Y-12370000D01*
X19130000Y-8055000D02*
X19170000Y-8095000D01*
X19170000Y-8055000D02*
X19130000Y-8095000D01*
X19130000Y-13055000D02*
X19170000Y-13095000D01*
X19170000Y-13055000D02*
X19130000Y-13095000D01*
X19280000Y-8380000D02*
X19320000Y-8420000D01*
X19320000Y-8380000D02*
X19280000Y-8420000D01*
X19280000Y-13380000D02*
X19320000Y-13420000D01*
X19320000Y-13380000D02*
X19280000Y-13420000D01*
X19330000Y-8655000D02*
X19370000Y-8695000D01*
X19370000Y-8655000D02*
X19330000Y-8695000D01*
X19330000Y-13655000D02*
X19370000Y-13695000D01*
X19370000Y-13655000D02*
X19330000Y-13695000D01*
X19480000Y-9355000D02*
X19520000Y-9395000D01*
X19520000Y-9355000D02*
X19480000Y-9395000D01*
X19480000Y-14355000D02*
X19520000Y-14395000D01*
X19520000Y-14355000D02*
X19480000Y-14395000D01*
X19655000Y-8780000D02*
X19695000Y-8820000D01*
X19695000Y-8780000D02*
X19655000Y-8820000D01*
X19655000Y-13780000D02*
X19695000Y-13820000D01*
X19695000Y-13780000D02*
X19655000Y-13820000D01*
X20080000Y-7230000D02*
X20120000Y-7270000D01*
X20120000Y-7230000D02*
X20080000Y-7270000D01*
X20080000Y-12230000D02*
X20120000Y-12270000D01*
X20120000Y-12230000D02*
X20080000Y-12270000D01*
X20430000Y-7280000D02*
X20470000Y-7320000D01*
X20470000Y-7280000D02*
X20430000Y-7320000D01*
X20430000Y-12280000D02*
X20470000Y-12320000D01*
X20470000Y-12280000D02*
X20430000Y-12320000D01*
X20455000Y-7455000D02*
X20495000Y-7495000D01*
X20495000Y-7455000D02*
X20455000Y-7495000D01*
X20455000Y-12455000D02*
X20495000Y-12495000D01*
X20495000Y-12455000D02*
X20455000Y-12495000D01*
X20530000Y-9155000D02*
X20570000Y-9195000D01*
X20570000Y-9155000D02*
X20530000Y-9195000D01*
X20530000Y-14155000D02*
X20570000Y-14195000D01*
X20570000Y-14155000D02*
X20530000Y-14195000D01*
X20805000Y-9430000D02*
X20845000Y-9470000D01*
X20845000Y-9430000D02*
X20805000Y-9470000D01*
X20805000Y-14430000D02*
X20845000Y-14470000D01*
X20845000Y-14430000D02*
X20805000Y-14470000D01*
X21230000Y-8530000D02*
X21270000Y-8570000D01*
X21270000Y-8530000D02*
X21230000Y-8570000D01*
X21230000Y-13530000D02*
X21270000Y-13570000D01*
X21270000Y-13530000D02*
X21230000Y-13570000D01*
X14320009Y-10017488D02*
G75*
G03X14320009Y-10017488I-37465J0D01*
G01*
X14320009Y-15017488D02*
G75*
G03X14320009Y-15017488I-37465J0D01*
G01*
X14765017Y-10017488D02*
G75*
G03X14765017Y-10017488I-37465J0D01*
G01*
X14765017Y-15017488D02*
G75*
G03X14765017Y-15017488I-37465J0D01*
G01*
X19320009Y-10017488D02*
G75*
G03X19320009Y-10017488I-37465J0D01*
G01*
X19320009Y-15017488D02*
G75*
G03X19320009Y-15017488I-37465J0D01*
G01*
X19765017Y-10017488D02*
G75*
G03X19765017Y-10017488I-37465J0D01*
G01*
X19765017Y-15017488D02*
G75*
G03X19765017Y-15017488I-37465J0D01*
G01*
X14246000Y-7575000D02*
X14246000Y-7675000D01*
X14196000Y-7625000D02*
X14296000Y-7625000D01*
X14246000Y-7829000D02*
X14246000Y-7929000D01*
X14196000Y-7879000D02*
X14296000Y-7879000D01*
X14246000Y-12575000D02*
X14246000Y-12675000D01*
X14196000Y-12625000D02*
X14296000Y-12625000D01*
X14246000Y-12829000D02*
X14246000Y-12929000D01*
X14196000Y-12879000D02*
X14296000Y-12879000D01*
X14500000Y-7575000D02*
X14500000Y-7675000D01*
X14450000Y-7625000D02*
X14550000Y-7625000D01*
X14500000Y-7829000D02*
X14500000Y-7929000D01*
X14450000Y-7879000D02*
X14550000Y-7879000D01*
X14500000Y-12575000D02*
X14500000Y-12675000D01*
X14450000Y-12625000D02*
X14550000Y-12625000D01*
X14500000Y-12829000D02*
X14500000Y-12929000D01*
X14450000Y-12879000D02*
X14550000Y-12879000D01*
X14754000Y-7575000D02*
X14754000Y-7675000D01*
X14704000Y-7625000D02*
X14804000Y-7625000D01*
X14754000Y-7829000D02*
X14754000Y-7929000D01*
X14704000Y-7879000D02*
X14804000Y-7879000D01*
X14754000Y-12575000D02*
X14754000Y-12675000D01*
X14704000Y-12625000D02*
X14804000Y-12625000D01*
X14754000Y-12829000D02*
X14754000Y-12929000D01*
X14704000Y-12879000D02*
X14804000Y-12879000D01*
X19246000Y-7575000D02*
X19246000Y-7675000D01*
X19196000Y-7625000D02*
X19296000Y-7625000D01*
X19246000Y-7829000D02*
X19246000Y-7929000D01*
X19196000Y-7879000D02*
X19296000Y-7879000D01*
X19246000Y-12575000D02*
X19246000Y-12675000D01*
X19196000Y-12625000D02*
X19296000Y-12625000D01*
X19246000Y-12829000D02*
X19246000Y-12929000D01*
X19196000Y-12879000D02*
X19296000Y-12879000D01*
X19500000Y-7575000D02*
X19500000Y-7675000D01*
X19450000Y-7625000D02*
X19550000Y-7625000D01*
X19500000Y-7829000D02*
X19500000Y-7929000D01*
X19450000Y-7879000D02*
X19550000Y-7879000D01*
X19500000Y-12575000D02*
X19500000Y-12675000D01*
X19450000Y-12625000D02*
X19550000Y-12625000D01*
X19500000Y-12829000D02*
X19500000Y-12929000D01*
X19450000Y-12879000D02*
X19550000Y-12879000D01*
X19754000Y-7575000D02*
X19754000Y-7675000D01*
X19704000Y-7625000D02*
X19804000Y-7625000D01*
X19754000Y-7829000D02*
X19754000Y-7929000D01*
X19704000Y-7879000D02*
X19804000Y-7879000D01*
X19754000Y-12575000D02*
X19754000Y-12675000D01*
X19704000Y-12625000D02*
X19804000Y-12625000D01*
X19754000Y-12829000D02*
X19754000Y-12929000D01*
X19704000Y-12879000D02*
X19804000Y-12879000D01*
X14139276Y-10388570D02*
X14139276Y-10282422D01*
X14033128Y-10282422D01*
X14033128Y-10388570D01*
X14139276Y-10388570D01*
X14139276Y-15388570D02*
X14139276Y-15282422D01*
X14033128Y-15282422D01*
X14033128Y-15388570D01*
X14139276Y-15388570D01*
X14976968Y-10388570D02*
X14976968Y-10282422D01*
X14870820Y-10282422D01*
X14870820Y-10388570D01*
X14976968Y-10388570D01*
X14976968Y-15388570D02*
X14976968Y-15282422D01*
X14870820Y-15282422D01*
X14870820Y-15388570D01*
X14976968Y-15388570D01*
X19139276Y-10388570D02*
X19139276Y-10282422D01*
X19033128Y-10282422D01*
X19033128Y-10388570D01*
X19139276Y-10388570D01*
X19139276Y-15388570D02*
X19139276Y-15282422D01*
X19033128Y-15282422D01*
X19033128Y-15388570D01*
X19139276Y-15388570D01*
X19976968Y-10388570D02*
X19976968Y-10282422D01*
X19870820Y-10282422D01*
X19870820Y-10388570D01*
X19976968Y-10388570D01*
X19976968Y-15388570D02*
X19976968Y-15282422D01*
X19870820Y-15282422D01*
X19870820Y-15388570D01*
X19976968Y-15388570D01*
X13100000Y-8542500D02*
X13142500Y-8500000D01*
X13100000Y-8457500D01*
X13057500Y-8500000D01*
X13100000Y-8542500D01*
X13100000Y-13542500D02*
X13142500Y-13500000D01*
X13100000Y-13457500D01*
X13057500Y-13500000D01*
X13100000Y-13542500D01*
X13400000Y-8542500D02*
X13442500Y-8500000D01*
X13400000Y-8457500D01*
X13357500Y-8500000D01*
X13400000Y-8542500D01*
X13400000Y-13542500D02*
X13442500Y-13500000D01*
X13400000Y-13457500D01*
X13357500Y-13500000D01*
X13400000Y-13542500D01*
X18100000Y-8542500D02*
X18142500Y-8500000D01*
X18100000Y-8457500D01*
X18057500Y-8500000D01*
X18100000Y-8542500D01*
X18100000Y-13542500D02*
X18142500Y-13500000D01*
X18100000Y-13457500D01*
X18057500Y-13500000D01*
X18100000Y-13542500D01*
X18400000Y-8542500D02*
X18442500Y-8500000D01*
X18400000Y-8457500D01*
X18357500Y-8500000D01*
X18400000Y-8542500D01*
X18400000Y-13542500D02*
X18442500Y-13500000D01*
X18400000Y-13457500D01*
X18357500Y-13500000D01*
X18400000Y-13542500D01*
X12345000Y-8295000D02*
X12455000Y-8405000D01*
X12455000Y-8295000D02*
X12345000Y-8405000D01*
X12455000Y-8350000D02*
G75*
G03X12455000Y-8350000I-55000J0D01*
G01*
X12345000Y-8445000D02*
X12455000Y-8555000D01*
X12455000Y-8445000D02*
X12345000Y-8555000D01*
X12455000Y-8500000D02*
G75*
G03X12455000Y-8500000I-55000J0D01*
G01*
X12345000Y-8595000D02*
X12455000Y-8705000D01*
X12455000Y-8595000D02*
X12345000Y-8705000D01*
X12455000Y-8650000D02*
G75*
G03X12455000Y-8650000I-55000J0D01*
G01*
X12345000Y-13295000D02*
X12455000Y-13405000D01*
X12455000Y-13295000D02*
X12345000Y-13405000D01*
X12455000Y-13350000D02*
G75*
G03X12455000Y-13350000I-55000J0D01*
G01*
X12345000Y-13445000D02*
X12455000Y-13555000D01*
X12455000Y-13445000D02*
X12345000Y-13555000D01*
X12455000Y-13500000D02*
G75*
G03X12455000Y-13500000I-55000J0D01*
G01*
X12345000Y-13595000D02*
X12455000Y-13705000D01*
X12455000Y-13595000D02*
X12345000Y-13705000D01*
X12455000Y-13650000D02*
G75*
G03X12455000Y-13650000I-55000J0D01*
G01*
X14295000Y-6345000D02*
X14405000Y-6455000D01*
X14405000Y-6345000D02*
X14295000Y-6455000D01*
X14405000Y-6400000D02*
G75*
G03X14405000Y-6400000I-55000J0D01*
G01*
X14295000Y-10545000D02*
X14405000Y-10655000D01*
X14405000Y-10545000D02*
X14295000Y-10655000D01*
X14405000Y-10600000D02*
G75*
G03X14405000Y-10600000I-55000J0D01*
G01*
X14295000Y-11345000D02*
X14405000Y-11455000D01*
X14405000Y-11345000D02*
X14295000Y-11455000D01*
X14405000Y-11400000D02*
G75*
G03X14405000Y-11400000I-55000J0D01*
G01*
X14295000Y-15545000D02*
X14405000Y-15655000D01*
X14405000Y-15545000D02*
X14295000Y-15655000D01*
X14405000Y-15600000D02*
G75*
G03X14405000Y-15600000I-55000J0D01*
G01*
X14445000Y-6345000D02*
X14555000Y-6455000D01*
X14555000Y-6345000D02*
X14445000Y-6455000D01*
X14555000Y-6400000D02*
G75*
G03X14555000Y-6400000I-55000J0D01*
G01*
X14445000Y-10545000D02*
X14555000Y-10655000D01*
X14555000Y-10545000D02*
X14445000Y-10655000D01*
X14555000Y-10600000D02*
G75*
G03X14555000Y-10600000I-55000J0D01*
G01*
X14445000Y-11345000D02*
X14555000Y-11455000D01*
X14555000Y-11345000D02*
X14445000Y-11455000D01*
X14555000Y-11400000D02*
G75*
G03X14555000Y-11400000I-55000J0D01*
G01*
X14445000Y-15545000D02*
X14555000Y-15655000D01*
X14555000Y-15545000D02*
X14445000Y-15655000D01*
X14555000Y-15600000D02*
G75*
G03X14555000Y-15600000I-55000J0D01*
G01*
X14595000Y-6345000D02*
X14705000Y-6455000D01*
X14705000Y-6345000D02*
X14595000Y-6455000D01*
X14705000Y-6400000D02*
G75*
G03X14705000Y-6400000I-55000J0D01*
G01*
X14595000Y-10545000D02*
X14705000Y-10655000D01*
X14705000Y-10545000D02*
X14595000Y-10655000D01*
X14705000Y-10600000D02*
G75*
G03X14705000Y-10600000I-55000J0D01*
G01*
X14595000Y-11345000D02*
X14705000Y-11455000D01*
X14705000Y-11345000D02*
X14595000Y-11455000D01*
X14705000Y-11400000D02*
G75*
G03X14705000Y-11400000I-55000J0D01*
G01*
X14595000Y-15545000D02*
X14705000Y-15655000D01*
X14705000Y-15545000D02*
X14595000Y-15655000D01*
X14705000Y-15600000D02*
G75*
G03X14705000Y-15600000I-55000J0D01*
G01*
X16545000Y-8295000D02*
X16655000Y-8405000D01*
X16655000Y-8295000D02*
X16545000Y-8405000D01*
X16655000Y-8350000D02*
G75*
G03X16655000Y-8350000I-55000J0D01*
G01*
X16545000Y-8445000D02*
X16655000Y-8555000D01*
X16655000Y-8445000D02*
X16545000Y-8555000D01*
X16655000Y-8500000D02*
G75*
G03X16655000Y-8500000I-55000J0D01*
G01*
X16545000Y-8595000D02*
X16655000Y-8705000D01*
X16655000Y-8595000D02*
X16545000Y-8705000D01*
X16655000Y-8650000D02*
G75*
G03X16655000Y-8650000I-55000J0D01*
G01*
X16545000Y-13295000D02*
X16655000Y-13405000D01*
X16655000Y-13295000D02*
X16545000Y-13405000D01*
X16655000Y-13350000D02*
G75*
G03X16655000Y-13350000I-55000J0D01*
G01*
X16545000Y-13445000D02*
X16655000Y-13555000D01*
X16655000Y-13445000D02*
X16545000Y-13555000D01*
X16655000Y-13500000D02*
G75*
G03X16655000Y-13500000I-55000J0D01*
G01*
X16545000Y-13595000D02*
X16655000Y-13705000D01*
X16655000Y-13595000D02*
X16545000Y-13705000D01*
X16655000Y-13650000D02*
G75*
G03X16655000Y-13650000I-55000J0D01*
G01*
X17345000Y-8295000D02*
X17455000Y-8405000D01*
X17455000Y-8295000D02*
X17345000Y-8405000D01*
X17455000Y-8350000D02*
G75*
G03X17455000Y-8350000I-55000J0D01*
G01*
X17345000Y-8445000D02*
X17455000Y-8555000D01*
X17455000Y-8445000D02*
X17345000Y-8555000D01*
X17455000Y-8500000D02*
G75*
G03X17455000Y-8500000I-55000J0D01*
G01*
X17345000Y-8595000D02*
X17455000Y-8705000D01*
X17455000Y-8595000D02*
X17345000Y-8705000D01*
X17455000Y-8650000D02*
G75*
G03X17455000Y-8650000I-55000J0D01*
G01*
X17345000Y-13295000D02*
X17455000Y-13405000D01*
X17455000Y-13295000D02*
X17345000Y-13405000D01*
X17455000Y-13350000D02*
G75*
G03X17455000Y-13350000I-55000J0D01*
G01*
X17345000Y-13445000D02*
X17455000Y-13555000D01*
X17455000Y-13445000D02*
X17345000Y-13555000D01*
X17455000Y-13500000D02*
G75*
G03X17455000Y-13500000I-55000J0D01*
G01*
X17345000Y-13595000D02*
X17455000Y-13705000D01*
X17455000Y-13595000D02*
X17345000Y-13705000D01*
X17455000Y-13650000D02*
G75*
G03X17455000Y-13650000I-55000J0D01*
G01*
X19295000Y-6345000D02*
X19405000Y-6455000D01*
X19405000Y-6345000D02*
X19295000Y-6455000D01*
X19405000Y-6400000D02*
G75*
G03X19405000Y-6400000I-55000J0D01*
G01*
X19295000Y-10545000D02*
X19405000Y-10655000D01*
X19405000Y-10545000D02*
X19295000Y-10655000D01*
X19405000Y-10600000D02*
G75*
G03X19405000Y-10600000I-55000J0D01*
G01*
X19295000Y-11345000D02*
X19405000Y-11455000D01*
X19405000Y-11345000D02*
X19295000Y-11455000D01*
X19405000Y-11400000D02*
G75*
G03X19405000Y-11400000I-55000J0D01*
G01*
X19295000Y-15545000D02*
X19405000Y-15655000D01*
X19405000Y-15545000D02*
X19295000Y-15655000D01*
X19405000Y-15600000D02*
G75*
G03X19405000Y-15600000I-55000J0D01*
G01*
X19445000Y-6345000D02*
X19555000Y-6455000D01*
X19555000Y-6345000D02*
X19445000Y-6455000D01*
X19555000Y-6400000D02*
G75*
G03X19555000Y-6400000I-55000J0D01*
G01*
X19445000Y-10545000D02*
X19555000Y-10655000D01*
X19555000Y-10545000D02*
X19445000Y-10655000D01*
X19555000Y-10600000D02*
G75*
G03X19555000Y-10600000I-55000J0D01*
G01*
X19445000Y-11345000D02*
X19555000Y-11455000D01*
X19555000Y-11345000D02*
X19445000Y-11455000D01*
X19555000Y-11400000D02*
G75*
G03X19555000Y-11400000I-55000J0D01*
G01*
X19445000Y-15545000D02*
X19555000Y-15655000D01*
X19555000Y-15545000D02*
X19445000Y-15655000D01*
X19555000Y-15600000D02*
G75*
G03X19555000Y-15600000I-55000J0D01*
G01*
X19595000Y-6345000D02*
X19705000Y-6455000D01*
X19705000Y-6345000D02*
X19595000Y-6455000D01*
X19705000Y-6400000D02*
G75*
G03X19705000Y-6400000I-55000J0D01*
G01*
X19595000Y-10545000D02*
X19705000Y-10655000D01*
X19705000Y-10545000D02*
X19595000Y-10655000D01*
X19705000Y-10600000D02*
G75*
G03X19705000Y-10600000I-55000J0D01*
G01*
X19595000Y-11345000D02*
X19705000Y-11455000D01*
X19705000Y-11345000D02*
X19595000Y-11455000D01*
X19705000Y-11400000D02*
G75*
G03X19705000Y-11400000I-55000J0D01*
G01*
X19595000Y-15545000D02*
X19705000Y-15655000D01*
X19705000Y-15545000D02*
X19595000Y-15655000D01*
X19705000Y-15600000D02*
G75*
G03X19705000Y-15600000I-55000J0D01*
G01*
X21545000Y-8295000D02*
X21655000Y-8405000D01*
X21655000Y-8295000D02*
X21545000Y-8405000D01*
X21655000Y-8350000D02*
G75*
G03X21655000Y-8350000I-55000J0D01*
G01*
X21545000Y-8445000D02*
X21655000Y-8555000D01*
X21655000Y-8445000D02*
X21545000Y-8555000D01*
X21655000Y-8500000D02*
G75*
G03X21655000Y-8500000I-55000J0D01*
G01*
X21545000Y-8595000D02*
X21655000Y-8705000D01*
X21655000Y-8595000D02*
X21545000Y-8705000D01*
X21655000Y-8650000D02*
G75*
G03X21655000Y-8650000I-55000J0D01*
G01*
X21545000Y-13295000D02*
X21655000Y-13405000D01*
X21655000Y-13295000D02*
X21545000Y-13405000D01*
X21655000Y-13350000D02*
G75*
G03X21655000Y-13350000I-55000J0D01*
G01*
X21545000Y-13445000D02*
X21655000Y-13555000D01*
X21655000Y-13445000D02*
X21545000Y-13555000D01*
X21655000Y-13500000D02*
G75*
G03X21655000Y-13500000I-55000J0D01*
G01*
X21545000Y-13595000D02*
X21655000Y-13705000D01*
X21655000Y-13595000D02*
X21545000Y-13705000D01*
X21655000Y-13650000D02*
G75*
G03X21655000Y-13650000I-55000J0D01*
G01*
X12720000Y-9120000D02*
X12880000Y-9280000D01*
X12880000Y-9120000D02*
X12720000Y-9280000D01*
X12800000Y-9120000D02*
X12800000Y-9280000D01*
X12720000Y-9200000D02*
X12880000Y-9200000D01*
X12720000Y-14120000D02*
X12880000Y-14280000D01*
X12880000Y-14120000D02*
X12720000Y-14280000D01*
X12800000Y-14120000D02*
X12800000Y-14280000D01*
X12720000Y-14200000D02*
X12880000Y-14200000D01*
X14420000Y-6570000D02*
X14580000Y-6730000D01*
X14580000Y-6570000D02*
X14420000Y-6730000D01*
X14500000Y-6570000D02*
X14500000Y-6730000D01*
X14420000Y-6650000D02*
X14580000Y-6650000D01*
X14420000Y-11570000D02*
X14580000Y-11730000D01*
X14580000Y-11570000D02*
X14420000Y-11730000D01*
X14500000Y-11570000D02*
X14500000Y-11730000D01*
X14420000Y-11650000D02*
X14580000Y-11650000D01*
X16120000Y-9120000D02*
X16280000Y-9280000D01*
X16280000Y-9120000D02*
X16120000Y-9280000D01*
X16200000Y-9120000D02*
X16200000Y-9280000D01*
X16120000Y-9200000D02*
X16280000Y-9200000D01*
X16120000Y-14120000D02*
X16280000Y-14280000D01*
X16280000Y-14120000D02*
X16120000Y-14280000D01*
X16200000Y-14120000D02*
X16200000Y-14280000D01*
X16120000Y-14200000D02*
X16280000Y-14200000D01*
X17720000Y-9120000D02*
X17880000Y-9280000D01*
X17880000Y-9120000D02*
X17720000Y-9280000D01*
X17800000Y-9120000D02*
X17800000Y-9280000D01*
X17720000Y-9200000D02*
X17880000Y-9200000D01*
X17720000Y-14120000D02*
X17880000Y-14280000D01*
X17880000Y-14120000D02*
X17720000Y-14280000D01*
X17800000Y-14120000D02*
X17800000Y-14280000D01*
X17720000Y-14200000D02*
X17880000Y-14200000D01*
X19420000Y-6570000D02*
X19580000Y-6730000D01*
X19580000Y-6570000D02*
X19420000Y-6730000D01*
X19500000Y-6570000D02*
X19500000Y-6730000D01*
X19420000Y-6650000D02*
X19580000Y-6650000D01*
X19420000Y-11570000D02*
X19580000Y-11730000D01*
X19580000Y-11570000D02*
X19420000Y-11730000D01*
X19500000Y-11570000D02*
X19500000Y-11730000D01*
X19420000Y-11650000D02*
X19580000Y-11650000D01*
X21120000Y-9120000D02*
X21280000Y-9280000D01*
X21280000Y-9120000D02*
X21120000Y-9280000D01*
X21200000Y-9120000D02*
X21200000Y-9280000D01*
X21120000Y-9200000D02*
X21280000Y-9200000D01*
X21120000Y-14120000D02*
X21280000Y-14280000D01*
X21280000Y-14120000D02*
X21120000Y-14280000D01*
X21200000Y-14120000D02*
X21200000Y-14280000D01*
X21120000Y-14200000D02*
X21280000Y-14200000D01*
D13*
X12263928Y-16473214D02*
X12263928Y-16173214D01*
X12335357Y-16173214D01*
X12378214Y-16187500D01*
X12406786Y-16216071D01*
X12421071Y-16244643D01*
X12435357Y-16301786D01*
X12435357Y-16344643D01*
X12421071Y-16401786D01*
X12406786Y-16430357D01*
X12378214Y-16458929D01*
X12335357Y-16473214D01*
X12263928Y-16473214D01*
X12563928Y-16473214D02*
X12563928Y-16273214D01*
X12563928Y-16330357D02*
X12578214Y-16301786D01*
X12592500Y-16287500D01*
X12621071Y-16273214D01*
X12649643Y-16273214D01*
X12749643Y-16473214D02*
X12749643Y-16273214D01*
X12749643Y-16173214D02*
X12735357Y-16187500D01*
X12749643Y-16201786D01*
X12763928Y-16187500D01*
X12749643Y-16173214D01*
X12749643Y-16201786D01*
X12935357Y-16473214D02*
X12906786Y-16458929D01*
X12892500Y-16430357D01*
X12892500Y-16173214D01*
X13092500Y-16473214D02*
X13063928Y-16458929D01*
X13049643Y-16430357D01*
X13049643Y-16173214D01*
X13435357Y-16473214D02*
X13435357Y-16173214D01*
X13535357Y-16387500D01*
X13635357Y-16173214D01*
X13635357Y-16473214D01*
X13906786Y-16473214D02*
X13906786Y-16316071D01*
X13892500Y-16287500D01*
X13863928Y-16273214D01*
X13806786Y-16273214D01*
X13778214Y-16287500D01*
X13906786Y-16458929D02*
X13878214Y-16473214D01*
X13806786Y-16473214D01*
X13778214Y-16458929D01*
X13763928Y-16430357D01*
X13763928Y-16401786D01*
X13778214Y-16373214D01*
X13806786Y-16358929D01*
X13878214Y-16358929D01*
X13906786Y-16344643D01*
X14049643Y-16273214D02*
X14049643Y-16573214D01*
X14049643Y-16287500D02*
X14078214Y-16273214D01*
X14135357Y-16273214D01*
X14163928Y-16287500D01*
X14178214Y-16301786D01*
X14192500Y-16330357D01*
X14192500Y-16416071D01*
X14178214Y-16444643D01*
X14163928Y-16458929D01*
X14135357Y-16473214D01*
X14078214Y-16473214D01*
X14049643Y-16458929D01*
X14321071Y-16444643D02*
X14335357Y-16458929D01*
X14321071Y-16473214D01*
X14306786Y-16458929D01*
X14321071Y-16444643D01*
X14321071Y-16473214D01*
X14321071Y-16287500D02*
X14335357Y-16301786D01*
X14321071Y-16316071D01*
X14306786Y-16301786D01*
X14321071Y-16287500D01*
X14321071Y-16316071D01*
X11952500Y-16947500D02*
X11992500Y-16987500D01*
X11992500Y-16947500D02*
X11952500Y-16987500D01*
X12321071Y-16803214D02*
X12349643Y-16803214D01*
X12378214Y-16817500D01*
X12392500Y-16831786D01*
X12406786Y-16860357D01*
X12421071Y-16917500D01*
X12421071Y-16988929D01*
X12406786Y-17046072D01*
X12392500Y-17074643D01*
X12378214Y-17088929D01*
X12349643Y-17103214D01*
X12321071Y-17103214D01*
X12292500Y-17088929D01*
X12278214Y-17074643D01*
X12263928Y-17046072D01*
X12249643Y-16988929D01*
X12249643Y-16917500D01*
X12263928Y-16860357D01*
X12278214Y-16831786D01*
X12292500Y-16817500D01*
X12321071Y-16803214D01*
X12549643Y-17074643D02*
X12563928Y-17088929D01*
X12549643Y-17103214D01*
X12535357Y-17088929D01*
X12549643Y-17074643D01*
X12549643Y-17103214D01*
X12821071Y-16903214D02*
X12821071Y-17103214D01*
X12749643Y-16788929D02*
X12678214Y-17003214D01*
X12863928Y-17003214D01*
X13035357Y-16803214D02*
X13063928Y-16803214D01*
X13092500Y-16817500D01*
X13106786Y-16831786D01*
X13121071Y-16860357D01*
X13135357Y-16917500D01*
X13135357Y-16988929D01*
X13121071Y-17046072D01*
X13106786Y-17074643D01*
X13092500Y-17088929D01*
X13063928Y-17103214D01*
X13035357Y-17103214D01*
X13006786Y-17088929D01*
X12992500Y-17074643D01*
X12978214Y-17046072D01*
X12963928Y-16988929D01*
X12963928Y-16917500D01*
X12978214Y-16860357D01*
X12992500Y-16831786D01*
X13006786Y-16817500D01*
X13035357Y-16803214D01*
X13263928Y-17103214D02*
X13263928Y-16903214D01*
X13263928Y-16931786D02*
X13278214Y-16917500D01*
X13306786Y-16903214D01*
X13349643Y-16903214D01*
X13378214Y-16917500D01*
X13392500Y-16946072D01*
X13392500Y-17103214D01*
X13392500Y-16946072D02*
X13406786Y-16917500D01*
X13435357Y-16903214D01*
X13478214Y-16903214D01*
X13506786Y-16917500D01*
X13521071Y-16946072D01*
X13521071Y-17103214D01*
X13663928Y-17103214D02*
X13663928Y-16903214D01*
X13663928Y-16931786D02*
X13678214Y-16917500D01*
X13706786Y-16903214D01*
X13749643Y-16903214D01*
X13778214Y-16917500D01*
X13792500Y-16946072D01*
X13792500Y-17103214D01*
X13792500Y-16946072D02*
X13806786Y-16917500D01*
X13835357Y-16903214D01*
X13878214Y-16903214D01*
X13906786Y-16917500D01*
X13921071Y-16946072D01*
X13921071Y-17103214D01*
X14506786Y-16788929D02*
X14249643Y-17174643D01*
X14892500Y-16803214D02*
X14921071Y-16803214D01*
X14949643Y-16817500D01*
X14963928Y-16831786D01*
X14978214Y-16860357D01*
X14992500Y-16917500D01*
X14992500Y-16988929D01*
X14978214Y-17046072D01*
X14963928Y-17074643D01*
X14949643Y-17088929D01*
X14921071Y-17103214D01*
X14892500Y-17103214D01*
X14863928Y-17088929D01*
X14849643Y-17074643D01*
X14835357Y-17046072D01*
X14821071Y-16988929D01*
X14821071Y-16917500D01*
X14835357Y-16860357D01*
X14849643Y-16831786D01*
X14863928Y-16817500D01*
X14892500Y-16803214D01*
X15121071Y-17074643D02*
X15135357Y-17088929D01*
X15121071Y-17103214D01*
X15106786Y-17088929D01*
X15121071Y-17074643D01*
X15121071Y-17103214D01*
X15321071Y-16803214D02*
X15349643Y-16803214D01*
X15378214Y-16817500D01*
X15392500Y-16831786D01*
X15406785Y-16860357D01*
X15421071Y-16917500D01*
X15421071Y-16988929D01*
X15406785Y-17046072D01*
X15392500Y-17074643D01*
X15378214Y-17088929D01*
X15349643Y-17103214D01*
X15321071Y-17103214D01*
X15292500Y-17088929D01*
X15278214Y-17074643D01*
X15263928Y-17046072D01*
X15249643Y-16988929D01*
X15249643Y-16917500D01*
X15263928Y-16860357D01*
X15278214Y-16831786D01*
X15292500Y-16817500D01*
X15321071Y-16803214D01*
X15706785Y-17103214D02*
X15535357Y-17103214D01*
X15621071Y-17103214D02*
X15621071Y-16803214D01*
X15592500Y-16846072D01*
X15563928Y-16874643D01*
X15535357Y-16888929D01*
X15963928Y-16803214D02*
X15906785Y-16803214D01*
X15878214Y-16817500D01*
X15863928Y-16831786D01*
X15835357Y-16874643D01*
X15821071Y-16931786D01*
X15821071Y-17046072D01*
X15835357Y-17074643D01*
X15849643Y-17088929D01*
X15878214Y-17103214D01*
X15935357Y-17103214D01*
X15963928Y-17088929D01*
X15978214Y-17074643D01*
X15992500Y-17046072D01*
X15992500Y-16974643D01*
X15978214Y-16946072D01*
X15963928Y-16931786D01*
X15935357Y-16917500D01*
X15878214Y-16917500D01*
X15849643Y-16931786D01*
X15835357Y-16946072D01*
X15821071Y-16974643D01*
X16106786Y-16803214D02*
X16106786Y-16860357D01*
X16221071Y-16803214D02*
X16221071Y-16860357D01*
X16663928Y-17217500D02*
X16649643Y-17203214D01*
X16621071Y-17160357D01*
X16606785Y-17131786D01*
X16592500Y-17088929D01*
X16578214Y-17017500D01*
X16578214Y-16960357D01*
X16592500Y-16888929D01*
X16606785Y-16846072D01*
X16621071Y-16817500D01*
X16649643Y-16774643D01*
X16663928Y-16760357D01*
X16935357Y-17103214D02*
X16763928Y-17103214D01*
X16849643Y-17103214D02*
X16849643Y-16803214D01*
X16821071Y-16846072D01*
X16792500Y-16874643D01*
X16763928Y-16888929D01*
X17121071Y-16803214D02*
X17149643Y-16803214D01*
X17178214Y-16817500D01*
X17192500Y-16831786D01*
X17206786Y-16860357D01*
X17221071Y-16917500D01*
X17221071Y-16988929D01*
X17206786Y-17046072D01*
X17192500Y-17074643D01*
X17178214Y-17088929D01*
X17149643Y-17103214D01*
X17121071Y-17103214D01*
X17092500Y-17088929D01*
X17078214Y-17074643D01*
X17063928Y-17046072D01*
X17049643Y-16988929D01*
X17049643Y-16917500D01*
X17063928Y-16860357D01*
X17078214Y-16831786D01*
X17092500Y-16817500D01*
X17121071Y-16803214D01*
X17478214Y-16903214D02*
X17478214Y-17103214D01*
X17406786Y-16788929D02*
X17335357Y-17003214D01*
X17521071Y-17003214D01*
X17863928Y-17103214D02*
X17863928Y-16803214D01*
X17992500Y-17103214D02*
X17992500Y-16946072D01*
X17978214Y-16917500D01*
X17949643Y-16903214D01*
X17906786Y-16903214D01*
X17878214Y-16917500D01*
X17863928Y-16931786D01*
X18178214Y-17103214D02*
X18149643Y-17088929D01*
X18135357Y-17074643D01*
X18121071Y-17046072D01*
X18121071Y-16960357D01*
X18135357Y-16931786D01*
X18149643Y-16917500D01*
X18178214Y-16903214D01*
X18221071Y-16903214D01*
X18249643Y-16917500D01*
X18263928Y-16931786D01*
X18278214Y-16960357D01*
X18278214Y-17046072D01*
X18263928Y-17074643D01*
X18249643Y-17088929D01*
X18221071Y-17103214D01*
X18178214Y-17103214D01*
X18449643Y-17103214D02*
X18421071Y-17088929D01*
X18406786Y-17060357D01*
X18406786Y-16803214D01*
X18678214Y-17088929D02*
X18649643Y-17103214D01*
X18592500Y-17103214D01*
X18563929Y-17088929D01*
X18549643Y-17060357D01*
X18549643Y-16946072D01*
X18563929Y-16917500D01*
X18592500Y-16903214D01*
X18649643Y-16903214D01*
X18678214Y-16917500D01*
X18692500Y-16946072D01*
X18692500Y-16974643D01*
X18549643Y-17003214D01*
X18806786Y-17088929D02*
X18835357Y-17103214D01*
X18892500Y-17103214D01*
X18921071Y-17088929D01*
X18935357Y-17060357D01*
X18935357Y-17046072D01*
X18921071Y-17017500D01*
X18892500Y-17003214D01*
X18849643Y-17003214D01*
X18821071Y-16988929D01*
X18806786Y-16960357D01*
X18806786Y-16946072D01*
X18821071Y-16917500D01*
X18849643Y-16903214D01*
X18892500Y-16903214D01*
X18921071Y-16917500D01*
X19035357Y-17217500D02*
X19049643Y-17203214D01*
X19078214Y-17160357D01*
X19092500Y-17131786D01*
X19106786Y-17088929D01*
X19121071Y-17017500D01*
X19121071Y-16960357D01*
X19106786Y-16888929D01*
X19092500Y-16846072D01*
X19078214Y-16817500D01*
X19049643Y-16774643D01*
X19035357Y-16760357D01*
X11992500Y-17363500D02*
G75*
G03X11992500Y-17363500I-37465J0D01*
G01*
X12321071Y-17199214D02*
X12349643Y-17199214D01*
X12378214Y-17213500D01*
X12392500Y-17227786D01*
X12406786Y-17256357D01*
X12421071Y-17313500D01*
X12421071Y-17384929D01*
X12406786Y-17442072D01*
X12392500Y-17470643D01*
X12378214Y-17484929D01*
X12349643Y-17499214D01*
X12321071Y-17499214D01*
X12292500Y-17484929D01*
X12278214Y-17470643D01*
X12263928Y-17442072D01*
X12249643Y-17384929D01*
X12249643Y-17313500D01*
X12263928Y-17256357D01*
X12278214Y-17227786D01*
X12292500Y-17213500D01*
X12321071Y-17199214D01*
X12549643Y-17470643D02*
X12563928Y-17484929D01*
X12549643Y-17499214D01*
X12535357Y-17484929D01*
X12549643Y-17470643D01*
X12549643Y-17499214D01*
X12663928Y-17199214D02*
X12863928Y-17199214D01*
X12735357Y-17499214D01*
X13121071Y-17199214D02*
X12978214Y-17199214D01*
X12963928Y-17342072D01*
X12978214Y-17327786D01*
X13006786Y-17313500D01*
X13078214Y-17313500D01*
X13106786Y-17327786D01*
X13121071Y-17342072D01*
X13135357Y-17370643D01*
X13135357Y-17442072D01*
X13121071Y-17470643D01*
X13106786Y-17484929D01*
X13078214Y-17499214D01*
X13006786Y-17499214D01*
X12978214Y-17484929D01*
X12963928Y-17470643D01*
X13263928Y-17499214D02*
X13263928Y-17299214D01*
X13263928Y-17327786D02*
X13278214Y-17313500D01*
X13306786Y-17299214D01*
X13349643Y-17299214D01*
X13378214Y-17313500D01*
X13392500Y-17342072D01*
X13392500Y-17499214D01*
X13392500Y-17342072D02*
X13406786Y-17313500D01*
X13435357Y-17299214D01*
X13478214Y-17299214D01*
X13506786Y-17313500D01*
X13521071Y-17342072D01*
X13521071Y-17499214D01*
X13663928Y-17499214D02*
X13663928Y-17299214D01*
X13663928Y-17327786D02*
X13678214Y-17313500D01*
X13706786Y-17299214D01*
X13749643Y-17299214D01*
X13778214Y-17313500D01*
X13792500Y-17342072D01*
X13792500Y-17499214D01*
X13792500Y-17342072D02*
X13806786Y-17313500D01*
X13835357Y-17299214D01*
X13878214Y-17299214D01*
X13906786Y-17313500D01*
X13921071Y-17342072D01*
X13921071Y-17499214D01*
X14506786Y-17184929D02*
X14249643Y-17570643D01*
X14892500Y-17199214D02*
X14921071Y-17199214D01*
X14949643Y-17213500D01*
X14963928Y-17227786D01*
X14978214Y-17256357D01*
X14992500Y-17313500D01*
X14992500Y-17384929D01*
X14978214Y-17442072D01*
X14963928Y-17470643D01*
X14949643Y-17484929D01*
X14921071Y-17499214D01*
X14892500Y-17499214D01*
X14863928Y-17484929D01*
X14849643Y-17470643D01*
X14835357Y-17442072D01*
X14821071Y-17384929D01*
X14821071Y-17313500D01*
X14835357Y-17256357D01*
X14849643Y-17227786D01*
X14863928Y-17213500D01*
X14892500Y-17199214D01*
X15121071Y-17470643D02*
X15135357Y-17484929D01*
X15121071Y-17499214D01*
X15106786Y-17484929D01*
X15121071Y-17470643D01*
X15121071Y-17499214D01*
X15321071Y-17199214D02*
X15349643Y-17199214D01*
X15378214Y-17213500D01*
X15392500Y-17227786D01*
X15406785Y-17256357D01*
X15421071Y-17313500D01*
X15421071Y-17384929D01*
X15406785Y-17442072D01*
X15392500Y-17470643D01*
X15378214Y-17484929D01*
X15349643Y-17499214D01*
X15321071Y-17499214D01*
X15292500Y-17484929D01*
X15278214Y-17470643D01*
X15263928Y-17442072D01*
X15249643Y-17384929D01*
X15249643Y-17313500D01*
X15263928Y-17256357D01*
X15278214Y-17227786D01*
X15292500Y-17213500D01*
X15321071Y-17199214D01*
X15521071Y-17199214D02*
X15706785Y-17199214D01*
X15606785Y-17313500D01*
X15649643Y-17313500D01*
X15678214Y-17327786D01*
X15692500Y-17342072D01*
X15706785Y-17370643D01*
X15706785Y-17442072D01*
X15692500Y-17470643D01*
X15678214Y-17484929D01*
X15649643Y-17499214D01*
X15563928Y-17499214D01*
X15535357Y-17484929D01*
X15521071Y-17470643D01*
X15892500Y-17199214D02*
X15921071Y-17199214D01*
X15949643Y-17213500D01*
X15963928Y-17227786D01*
X15978214Y-17256357D01*
X15992500Y-17313500D01*
X15992500Y-17384929D01*
X15978214Y-17442072D01*
X15963928Y-17470643D01*
X15949643Y-17484929D01*
X15921071Y-17499214D01*
X15892500Y-17499214D01*
X15863928Y-17484929D01*
X15849643Y-17470643D01*
X15835357Y-17442072D01*
X15821071Y-17384929D01*
X15821071Y-17313500D01*
X15835357Y-17256357D01*
X15849643Y-17227786D01*
X15863928Y-17213500D01*
X15892500Y-17199214D01*
X16106786Y-17199214D02*
X16106786Y-17256357D01*
X16221071Y-17199214D02*
X16221071Y-17256357D01*
X16663928Y-17613500D02*
X16649643Y-17599214D01*
X16621071Y-17556357D01*
X16606785Y-17527786D01*
X16592500Y-17484929D01*
X16578214Y-17413500D01*
X16578214Y-17356357D01*
X16592500Y-17284929D01*
X16606785Y-17242072D01*
X16621071Y-17213500D01*
X16649643Y-17170643D01*
X16663928Y-17156357D01*
X16821071Y-17327786D02*
X16792500Y-17313500D01*
X16778214Y-17299214D01*
X16763928Y-17270643D01*
X16763928Y-17256357D01*
X16778214Y-17227786D01*
X16792500Y-17213500D01*
X16821071Y-17199214D01*
X16878214Y-17199214D01*
X16906786Y-17213500D01*
X16921071Y-17227786D01*
X16935357Y-17256357D01*
X16935357Y-17270643D01*
X16921071Y-17299214D01*
X16906786Y-17313500D01*
X16878214Y-17327786D01*
X16821071Y-17327786D01*
X16792500Y-17342072D01*
X16778214Y-17356357D01*
X16763928Y-17384929D01*
X16763928Y-17442072D01*
X16778214Y-17470643D01*
X16792500Y-17484929D01*
X16821071Y-17499214D01*
X16878214Y-17499214D01*
X16906786Y-17484929D01*
X16921071Y-17470643D01*
X16935357Y-17442072D01*
X16935357Y-17384929D01*
X16921071Y-17356357D01*
X16906786Y-17342072D01*
X16878214Y-17327786D01*
X17292500Y-17499214D02*
X17292500Y-17199214D01*
X17421071Y-17499214D02*
X17421071Y-17342072D01*
X17406786Y-17313500D01*
X17378214Y-17299214D01*
X17335357Y-17299214D01*
X17306786Y-17313500D01*
X17292500Y-17327786D01*
X17606786Y-17499214D02*
X17578214Y-17484929D01*
X17563928Y-17470643D01*
X17549643Y-17442072D01*
X17549643Y-17356357D01*
X17563928Y-17327786D01*
X17578214Y-17313500D01*
X17606786Y-17299214D01*
X17649643Y-17299214D01*
X17678214Y-17313500D01*
X17692500Y-17327786D01*
X17706786Y-17356357D01*
X17706786Y-17442072D01*
X17692500Y-17470643D01*
X17678214Y-17484929D01*
X17649643Y-17499214D01*
X17606786Y-17499214D01*
X17878214Y-17499214D02*
X17849643Y-17484929D01*
X17835357Y-17456357D01*
X17835357Y-17199214D01*
X18106786Y-17484929D02*
X18078214Y-17499214D01*
X18021071Y-17499214D01*
X17992500Y-17484929D01*
X17978214Y-17456357D01*
X17978214Y-17342072D01*
X17992500Y-17313500D01*
X18021071Y-17299214D01*
X18078214Y-17299214D01*
X18106786Y-17313500D01*
X18121071Y-17342072D01*
X18121071Y-17370643D01*
X17978214Y-17399214D01*
X18235357Y-17484929D02*
X18263929Y-17499214D01*
X18321071Y-17499214D01*
X18349643Y-17484929D01*
X18363929Y-17456357D01*
X18363929Y-17442072D01*
X18349643Y-17413500D01*
X18321071Y-17399214D01*
X18278214Y-17399214D01*
X18249643Y-17384929D01*
X18235357Y-17356357D01*
X18235357Y-17342072D01*
X18249643Y-17313500D01*
X18278214Y-17299214D01*
X18321071Y-17299214D01*
X18349643Y-17313500D01*
X18463928Y-17613500D02*
X18478214Y-17599214D01*
X18506786Y-17556357D01*
X18521071Y-17527786D01*
X18535357Y-17484929D01*
X18549643Y-17413500D01*
X18549643Y-17356357D01*
X18535357Y-17284929D01*
X18521071Y-17242072D01*
X18506786Y-17213500D01*
X18478214Y-17170643D01*
X18463928Y-17156357D01*
X11942500Y-17709500D02*
X11942500Y-17809500D01*
X11892500Y-17759500D02*
X11992500Y-17759500D01*
X12421071Y-17895214D02*
X12249643Y-17895214D01*
X12335357Y-17895214D02*
X12335357Y-17595214D01*
X12306786Y-17638072D01*
X12278214Y-17666643D01*
X12249643Y-17680929D01*
X12549643Y-17866643D02*
X12563928Y-17880929D01*
X12549643Y-17895214D01*
X12535357Y-17880929D01*
X12549643Y-17866643D01*
X12549643Y-17895214D01*
X12749643Y-17595214D02*
X12778214Y-17595214D01*
X12806786Y-17609500D01*
X12821071Y-17623786D01*
X12835357Y-17652357D01*
X12849643Y-17709500D01*
X12849643Y-17780929D01*
X12835357Y-17838072D01*
X12821071Y-17866643D01*
X12806786Y-17880929D01*
X12778214Y-17895214D01*
X12749643Y-17895214D01*
X12721071Y-17880929D01*
X12706786Y-17866643D01*
X12692500Y-17838072D01*
X12678214Y-17780929D01*
X12678214Y-17709500D01*
X12692500Y-17652357D01*
X12706786Y-17623786D01*
X12721071Y-17609500D01*
X12749643Y-17595214D01*
X13035357Y-17595214D02*
X13063928Y-17595214D01*
X13092500Y-17609500D01*
X13106786Y-17623786D01*
X13121071Y-17652357D01*
X13135357Y-17709500D01*
X13135357Y-17780929D01*
X13121071Y-17838072D01*
X13106786Y-17866643D01*
X13092500Y-17880929D01*
X13063928Y-17895214D01*
X13035357Y-17895214D01*
X13006786Y-17880929D01*
X12992500Y-17866643D01*
X12978214Y-17838072D01*
X12963928Y-17780929D01*
X12963928Y-17709500D01*
X12978214Y-17652357D01*
X12992500Y-17623786D01*
X13006786Y-17609500D01*
X13035357Y-17595214D01*
X13263928Y-17895214D02*
X13263928Y-17695214D01*
X13263928Y-17723786D02*
X13278214Y-17709500D01*
X13306786Y-17695214D01*
X13349643Y-17695214D01*
X13378214Y-17709500D01*
X13392500Y-17738072D01*
X13392500Y-17895214D01*
X13392500Y-17738072D02*
X13406786Y-17709500D01*
X13435357Y-17695214D01*
X13478214Y-17695214D01*
X13506786Y-17709500D01*
X13521071Y-17738072D01*
X13521071Y-17895214D01*
X13663928Y-17895214D02*
X13663928Y-17695214D01*
X13663928Y-17723786D02*
X13678214Y-17709500D01*
X13706786Y-17695214D01*
X13749643Y-17695214D01*
X13778214Y-17709500D01*
X13792500Y-17738072D01*
X13792500Y-17895214D01*
X13792500Y-17738072D02*
X13806786Y-17709500D01*
X13835357Y-17695214D01*
X13878214Y-17695214D01*
X13906786Y-17709500D01*
X13921071Y-17738072D01*
X13921071Y-17895214D01*
X14506786Y-17580929D02*
X14249643Y-17966643D01*
X14892500Y-17595214D02*
X14921071Y-17595214D01*
X14949643Y-17609500D01*
X14963928Y-17623786D01*
X14978214Y-17652357D01*
X14992500Y-17709500D01*
X14992500Y-17780929D01*
X14978214Y-17838072D01*
X14963928Y-17866643D01*
X14949643Y-17880929D01*
X14921071Y-17895214D01*
X14892500Y-17895214D01*
X14863928Y-17880929D01*
X14849643Y-17866643D01*
X14835357Y-17838072D01*
X14821071Y-17780929D01*
X14821071Y-17709500D01*
X14835357Y-17652357D01*
X14849643Y-17623786D01*
X14863928Y-17609500D01*
X14892500Y-17595214D01*
X15121071Y-17866643D02*
X15135357Y-17880929D01*
X15121071Y-17895214D01*
X15106786Y-17880929D01*
X15121071Y-17866643D01*
X15121071Y-17895214D01*
X15321071Y-17595214D02*
X15349643Y-17595214D01*
X15378214Y-17609500D01*
X15392500Y-17623786D01*
X15406785Y-17652357D01*
X15421071Y-17709500D01*
X15421071Y-17780929D01*
X15406785Y-17838072D01*
X15392500Y-17866643D01*
X15378214Y-17880929D01*
X15349643Y-17895214D01*
X15321071Y-17895214D01*
X15292500Y-17880929D01*
X15278214Y-17866643D01*
X15263928Y-17838072D01*
X15249643Y-17780929D01*
X15249643Y-17709500D01*
X15263928Y-17652357D01*
X15278214Y-17623786D01*
X15292500Y-17609500D01*
X15321071Y-17595214D01*
X15521071Y-17595214D02*
X15706785Y-17595214D01*
X15606785Y-17709500D01*
X15649643Y-17709500D01*
X15678214Y-17723786D01*
X15692500Y-17738072D01*
X15706785Y-17766643D01*
X15706785Y-17838072D01*
X15692500Y-17866643D01*
X15678214Y-17880929D01*
X15649643Y-17895214D01*
X15563928Y-17895214D01*
X15535357Y-17880929D01*
X15521071Y-17866643D01*
X15849643Y-17895214D02*
X15906785Y-17895214D01*
X15935357Y-17880929D01*
X15949643Y-17866643D01*
X15978214Y-17823786D01*
X15992500Y-17766643D01*
X15992500Y-17652357D01*
X15978214Y-17623786D01*
X15963928Y-17609500D01*
X15935357Y-17595214D01*
X15878214Y-17595214D01*
X15849643Y-17609500D01*
X15835357Y-17623786D01*
X15821071Y-17652357D01*
X15821071Y-17723786D01*
X15835357Y-17752357D01*
X15849643Y-17766643D01*
X15878214Y-17780929D01*
X15935357Y-17780929D01*
X15963928Y-17766643D01*
X15978214Y-17752357D01*
X15992500Y-17723786D01*
X16106786Y-17595214D02*
X16106786Y-17652357D01*
X16221071Y-17595214D02*
X16221071Y-17652357D01*
X16663928Y-18009500D02*
X16649643Y-17995214D01*
X16621071Y-17952357D01*
X16606785Y-17923786D01*
X16592500Y-17880929D01*
X16578214Y-17809500D01*
X16578214Y-17752357D01*
X16592500Y-17680929D01*
X16606785Y-17638072D01*
X16621071Y-17609500D01*
X16649643Y-17566643D01*
X16663928Y-17552357D01*
X16763928Y-17623786D02*
X16778214Y-17609500D01*
X16806786Y-17595214D01*
X16878214Y-17595214D01*
X16906786Y-17609500D01*
X16921071Y-17623786D01*
X16935357Y-17652357D01*
X16935357Y-17680929D01*
X16921071Y-17723786D01*
X16749643Y-17895214D01*
X16935357Y-17895214D01*
X17192500Y-17695214D02*
X17192500Y-17895214D01*
X17121071Y-17580929D02*
X17049643Y-17795214D01*
X17235357Y-17795214D01*
X17578214Y-17895214D02*
X17578214Y-17595214D01*
X17706786Y-17895214D02*
X17706786Y-17738072D01*
X17692500Y-17709500D01*
X17663928Y-17695214D01*
X17621071Y-17695214D01*
X17592500Y-17709500D01*
X17578214Y-17723786D01*
X17892500Y-17895214D02*
X17863928Y-17880929D01*
X17849643Y-17866643D01*
X17835357Y-17838072D01*
X17835357Y-17752357D01*
X17849643Y-17723786D01*
X17863928Y-17709500D01*
X17892500Y-17695214D01*
X17935357Y-17695214D01*
X17963928Y-17709500D01*
X17978214Y-17723786D01*
X17992500Y-17752357D01*
X17992500Y-17838072D01*
X17978214Y-17866643D01*
X17963928Y-17880929D01*
X17935357Y-17895214D01*
X17892500Y-17895214D01*
X18163928Y-17895214D02*
X18135357Y-17880929D01*
X18121071Y-17852357D01*
X18121071Y-17595214D01*
X18392500Y-17880929D02*
X18363929Y-17895214D01*
X18306786Y-17895214D01*
X18278214Y-17880929D01*
X18263929Y-17852357D01*
X18263929Y-17738072D01*
X18278214Y-17709500D01*
X18306786Y-17695214D01*
X18363929Y-17695214D01*
X18392500Y-17709500D01*
X18406786Y-17738072D01*
X18406786Y-17766643D01*
X18263929Y-17795214D01*
X18521071Y-17880929D02*
X18549643Y-17895214D01*
X18606786Y-17895214D01*
X18635357Y-17880929D01*
X18649643Y-17852357D01*
X18649643Y-17838072D01*
X18635357Y-17809500D01*
X18606786Y-17795214D01*
X18563929Y-17795214D01*
X18535357Y-17780929D01*
X18521071Y-17752357D01*
X18521071Y-17738072D01*
X18535357Y-17709500D01*
X18563929Y-17695214D01*
X18606786Y-17695214D01*
X18635357Y-17709500D01*
X18749643Y-18009500D02*
X18763929Y-17995214D01*
X18792500Y-17952357D01*
X18806786Y-17923786D01*
X18821071Y-17880929D01*
X18835357Y-17809500D01*
X18835357Y-17752357D01*
X18821071Y-17680929D01*
X18806786Y-17638072D01*
X18792500Y-17609500D01*
X18763929Y-17566643D01*
X18749643Y-17552357D01*
X11970517Y-18208574D02*
X11970517Y-18102426D01*
X11864369Y-18102426D01*
X11864369Y-18208574D01*
X11970517Y-18208574D01*
X12421071Y-18291214D02*
X12249643Y-18291214D01*
X12335357Y-18291214D02*
X12335357Y-17991214D01*
X12306786Y-18034072D01*
X12278214Y-18062643D01*
X12249643Y-18076929D01*
X12549643Y-18262643D02*
X12563928Y-18276929D01*
X12549643Y-18291214D01*
X12535357Y-18276929D01*
X12549643Y-18262643D01*
X12549643Y-18291214D01*
X12835357Y-17991214D02*
X12692500Y-17991214D01*
X12678214Y-18134072D01*
X12692500Y-18119786D01*
X12721071Y-18105500D01*
X12792500Y-18105500D01*
X12821071Y-18119786D01*
X12835357Y-18134072D01*
X12849643Y-18162643D01*
X12849643Y-18234072D01*
X12835357Y-18262643D01*
X12821071Y-18276929D01*
X12792500Y-18291214D01*
X12721071Y-18291214D01*
X12692500Y-18276929D01*
X12678214Y-18262643D01*
X13035357Y-17991214D02*
X13063928Y-17991214D01*
X13092500Y-18005500D01*
X13106786Y-18019786D01*
X13121071Y-18048357D01*
X13135357Y-18105500D01*
X13135357Y-18176929D01*
X13121071Y-18234072D01*
X13106786Y-18262643D01*
X13092500Y-18276929D01*
X13063928Y-18291214D01*
X13035357Y-18291214D01*
X13006786Y-18276929D01*
X12992500Y-18262643D01*
X12978214Y-18234072D01*
X12963928Y-18176929D01*
X12963928Y-18105500D01*
X12978214Y-18048357D01*
X12992500Y-18019786D01*
X13006786Y-18005500D01*
X13035357Y-17991214D01*
X13263928Y-18291214D02*
X13263928Y-18091214D01*
X13263928Y-18119786D02*
X13278214Y-18105500D01*
X13306786Y-18091214D01*
X13349643Y-18091214D01*
X13378214Y-18105500D01*
X13392500Y-18134072D01*
X13392500Y-18291214D01*
X13392500Y-18134072D02*
X13406786Y-18105500D01*
X13435357Y-18091214D01*
X13478214Y-18091214D01*
X13506786Y-18105500D01*
X13521071Y-18134072D01*
X13521071Y-18291214D01*
X13663928Y-18291214D02*
X13663928Y-18091214D01*
X13663928Y-18119786D02*
X13678214Y-18105500D01*
X13706786Y-18091214D01*
X13749643Y-18091214D01*
X13778214Y-18105500D01*
X13792500Y-18134072D01*
X13792500Y-18291214D01*
X13792500Y-18134072D02*
X13806786Y-18105500D01*
X13835357Y-18091214D01*
X13878214Y-18091214D01*
X13906786Y-18105500D01*
X13921071Y-18134072D01*
X13921071Y-18291214D01*
X14506786Y-17976929D02*
X14249643Y-18362643D01*
X14892500Y-17991214D02*
X14921071Y-17991214D01*
X14949643Y-18005500D01*
X14963928Y-18019786D01*
X14978214Y-18048357D01*
X14992500Y-18105500D01*
X14992500Y-18176929D01*
X14978214Y-18234072D01*
X14963928Y-18262643D01*
X14949643Y-18276929D01*
X14921071Y-18291214D01*
X14892500Y-18291214D01*
X14863928Y-18276929D01*
X14849643Y-18262643D01*
X14835357Y-18234072D01*
X14821071Y-18176929D01*
X14821071Y-18105500D01*
X14835357Y-18048357D01*
X14849643Y-18019786D01*
X14863928Y-18005500D01*
X14892500Y-17991214D01*
X15121071Y-18262643D02*
X15135357Y-18276929D01*
X15121071Y-18291214D01*
X15106786Y-18276929D01*
X15121071Y-18262643D01*
X15121071Y-18291214D01*
X15321071Y-17991214D02*
X15349643Y-17991214D01*
X15378214Y-18005500D01*
X15392500Y-18019786D01*
X15406785Y-18048357D01*
X15421071Y-18105500D01*
X15421071Y-18176929D01*
X15406785Y-18234072D01*
X15392500Y-18262643D01*
X15378214Y-18276929D01*
X15349643Y-18291214D01*
X15321071Y-18291214D01*
X15292500Y-18276929D01*
X15278214Y-18262643D01*
X15263928Y-18234072D01*
X15249643Y-18176929D01*
X15249643Y-18105500D01*
X15263928Y-18048357D01*
X15278214Y-18019786D01*
X15292500Y-18005500D01*
X15321071Y-17991214D01*
X15692500Y-17991214D02*
X15549643Y-17991214D01*
X15535357Y-18134072D01*
X15549643Y-18119786D01*
X15578214Y-18105500D01*
X15649643Y-18105500D01*
X15678214Y-18119786D01*
X15692500Y-18134072D01*
X15706785Y-18162643D01*
X15706785Y-18234072D01*
X15692500Y-18262643D01*
X15678214Y-18276929D01*
X15649643Y-18291214D01*
X15578214Y-18291214D01*
X15549643Y-18276929D01*
X15535357Y-18262643D01*
X15849643Y-18291214D02*
X15906785Y-18291214D01*
X15935357Y-18276929D01*
X15949643Y-18262643D01*
X15978214Y-18219786D01*
X15992500Y-18162643D01*
X15992500Y-18048357D01*
X15978214Y-18019786D01*
X15963928Y-18005500D01*
X15935357Y-17991214D01*
X15878214Y-17991214D01*
X15849643Y-18005500D01*
X15835357Y-18019786D01*
X15821071Y-18048357D01*
X15821071Y-18119786D01*
X15835357Y-18148357D01*
X15849643Y-18162643D01*
X15878214Y-18176929D01*
X15935357Y-18176929D01*
X15963928Y-18162643D01*
X15978214Y-18148357D01*
X15992500Y-18119786D01*
X16106786Y-17991214D02*
X16106786Y-18048357D01*
X16221071Y-17991214D02*
X16221071Y-18048357D01*
X16663928Y-18405500D02*
X16649643Y-18391214D01*
X16621071Y-18348357D01*
X16606785Y-18319786D01*
X16592500Y-18276929D01*
X16578214Y-18205500D01*
X16578214Y-18148357D01*
X16592500Y-18076929D01*
X16606785Y-18034072D01*
X16621071Y-18005500D01*
X16649643Y-17962643D01*
X16663928Y-17948357D01*
X16821071Y-18119786D02*
X16792500Y-18105500D01*
X16778214Y-18091214D01*
X16763928Y-18062643D01*
X16763928Y-18048357D01*
X16778214Y-18019786D01*
X16792500Y-18005500D01*
X16821071Y-17991214D01*
X16878214Y-17991214D01*
X16906786Y-18005500D01*
X16921071Y-18019786D01*
X16935357Y-18048357D01*
X16935357Y-18062643D01*
X16921071Y-18091214D01*
X16906786Y-18105500D01*
X16878214Y-18119786D01*
X16821071Y-18119786D01*
X16792500Y-18134072D01*
X16778214Y-18148357D01*
X16763928Y-18176929D01*
X16763928Y-18234072D01*
X16778214Y-18262643D01*
X16792500Y-18276929D01*
X16821071Y-18291214D01*
X16878214Y-18291214D01*
X16906786Y-18276929D01*
X16921071Y-18262643D01*
X16935357Y-18234072D01*
X16935357Y-18176929D01*
X16921071Y-18148357D01*
X16906786Y-18134072D01*
X16878214Y-18119786D01*
X17292500Y-18291214D02*
X17292500Y-17991214D01*
X17421071Y-18291214D02*
X17421071Y-18134072D01*
X17406786Y-18105500D01*
X17378214Y-18091214D01*
X17335357Y-18091214D01*
X17306786Y-18105500D01*
X17292500Y-18119786D01*
X17606786Y-18291214D02*
X17578214Y-18276929D01*
X17563928Y-18262643D01*
X17549643Y-18234072D01*
X17549643Y-18148357D01*
X17563928Y-18119786D01*
X17578214Y-18105500D01*
X17606786Y-18091214D01*
X17649643Y-18091214D01*
X17678214Y-18105500D01*
X17692500Y-18119786D01*
X17706786Y-18148357D01*
X17706786Y-18234072D01*
X17692500Y-18262643D01*
X17678214Y-18276929D01*
X17649643Y-18291214D01*
X17606786Y-18291214D01*
X17878214Y-18291214D02*
X17849643Y-18276929D01*
X17835357Y-18248357D01*
X17835357Y-17991214D01*
X18106786Y-18276929D02*
X18078214Y-18291214D01*
X18021071Y-18291214D01*
X17992500Y-18276929D01*
X17978214Y-18248357D01*
X17978214Y-18134072D01*
X17992500Y-18105500D01*
X18021071Y-18091214D01*
X18078214Y-18091214D01*
X18106786Y-18105500D01*
X18121071Y-18134072D01*
X18121071Y-18162643D01*
X17978214Y-18191214D01*
X18235357Y-18276929D02*
X18263929Y-18291214D01*
X18321071Y-18291214D01*
X18349643Y-18276929D01*
X18363929Y-18248357D01*
X18363929Y-18234072D01*
X18349643Y-18205500D01*
X18321071Y-18191214D01*
X18278214Y-18191214D01*
X18249643Y-18176929D01*
X18235357Y-18148357D01*
X18235357Y-18134072D01*
X18249643Y-18105500D01*
X18278214Y-18091214D01*
X18321071Y-18091214D01*
X18349643Y-18105500D01*
X18463928Y-18405500D02*
X18478214Y-18391214D01*
X18506786Y-18348357D01*
X18521071Y-18319786D01*
X18535357Y-18276929D01*
X18549643Y-18205500D01*
X18549643Y-18148357D01*
X18535357Y-18076929D01*
X18521071Y-18034072D01*
X18506786Y-18005500D01*
X18478214Y-17962643D01*
X18463928Y-17948357D01*
X11950000Y-18594000D02*
X11992500Y-18551500D01*
X11950000Y-18509000D01*
X11907500Y-18551500D01*
X11950000Y-18594000D01*
X12321071Y-18387214D02*
X12349643Y-18387214D01*
X12378214Y-18401500D01*
X12392500Y-18415786D01*
X12406786Y-18444357D01*
X12421071Y-18501500D01*
X12421071Y-18572929D01*
X12406786Y-18630072D01*
X12392500Y-18658643D01*
X12378214Y-18672929D01*
X12349643Y-18687214D01*
X12321071Y-18687214D01*
X12292500Y-18672929D01*
X12278214Y-18658643D01*
X12263928Y-18630072D01*
X12249643Y-18572929D01*
X12249643Y-18501500D01*
X12263928Y-18444357D01*
X12278214Y-18415786D01*
X12292500Y-18401500D01*
X12321071Y-18387214D01*
X12549643Y-18658643D02*
X12563928Y-18672929D01*
X12549643Y-18687214D01*
X12535357Y-18672929D01*
X12549643Y-18658643D01*
X12549643Y-18687214D01*
X12735357Y-18515786D02*
X12706786Y-18501500D01*
X12692500Y-18487214D01*
X12678214Y-18458643D01*
X12678214Y-18444357D01*
X12692500Y-18415786D01*
X12706786Y-18401500D01*
X12735357Y-18387214D01*
X12792500Y-18387214D01*
X12821071Y-18401500D01*
X12835357Y-18415786D01*
X12849643Y-18444357D01*
X12849643Y-18458643D01*
X12835357Y-18487214D01*
X12821071Y-18501500D01*
X12792500Y-18515786D01*
X12735357Y-18515786D01*
X12706786Y-18530072D01*
X12692500Y-18544357D01*
X12678214Y-18572929D01*
X12678214Y-18630072D01*
X12692500Y-18658643D01*
X12706786Y-18672929D01*
X12735357Y-18687214D01*
X12792500Y-18687214D01*
X12821071Y-18672929D01*
X12835357Y-18658643D01*
X12849643Y-18630072D01*
X12849643Y-18572929D01*
X12835357Y-18544357D01*
X12821071Y-18530072D01*
X12792500Y-18515786D01*
X13121071Y-18387214D02*
X12978214Y-18387214D01*
X12963928Y-18530072D01*
X12978214Y-18515786D01*
X13006786Y-18501500D01*
X13078214Y-18501500D01*
X13106786Y-18515786D01*
X13121071Y-18530072D01*
X13135357Y-18558643D01*
X13135357Y-18630072D01*
X13121071Y-18658643D01*
X13106786Y-18672929D01*
X13078214Y-18687214D01*
X13006786Y-18687214D01*
X12978214Y-18672929D01*
X12963928Y-18658643D01*
X13263928Y-18687214D02*
X13263928Y-18487214D01*
X13263928Y-18515786D02*
X13278214Y-18501500D01*
X13306786Y-18487214D01*
X13349643Y-18487214D01*
X13378214Y-18501500D01*
X13392500Y-18530072D01*
X13392500Y-18687214D01*
X13392500Y-18530072D02*
X13406786Y-18501500D01*
X13435357Y-18487214D01*
X13478214Y-18487214D01*
X13506786Y-18501500D01*
X13521071Y-18530072D01*
X13521071Y-18687214D01*
X13663928Y-18687214D02*
X13663928Y-18487214D01*
X13663928Y-18515786D02*
X13678214Y-18501500D01*
X13706786Y-18487214D01*
X13749643Y-18487214D01*
X13778214Y-18501500D01*
X13792500Y-18530072D01*
X13792500Y-18687214D01*
X13792500Y-18530072D02*
X13806786Y-18501500D01*
X13835357Y-18487214D01*
X13878214Y-18487214D01*
X13906786Y-18501500D01*
X13921071Y-18530072D01*
X13921071Y-18687214D01*
X14506786Y-18372929D02*
X14249643Y-18758643D01*
X14892500Y-18387214D02*
X14921071Y-18387214D01*
X14949643Y-18401500D01*
X14963928Y-18415786D01*
X14978214Y-18444357D01*
X14992500Y-18501500D01*
X14992500Y-18572929D01*
X14978214Y-18630072D01*
X14963928Y-18658643D01*
X14949643Y-18672929D01*
X14921071Y-18687214D01*
X14892500Y-18687214D01*
X14863928Y-18672929D01*
X14849643Y-18658643D01*
X14835357Y-18630072D01*
X14821071Y-18572929D01*
X14821071Y-18501500D01*
X14835357Y-18444357D01*
X14849643Y-18415786D01*
X14863928Y-18401500D01*
X14892500Y-18387214D01*
X15121071Y-18658643D02*
X15135357Y-18672929D01*
X15121071Y-18687214D01*
X15106786Y-18672929D01*
X15121071Y-18658643D01*
X15121071Y-18687214D01*
X15321071Y-18387214D02*
X15349643Y-18387214D01*
X15378214Y-18401500D01*
X15392500Y-18415786D01*
X15406785Y-18444357D01*
X15421071Y-18501500D01*
X15421071Y-18572929D01*
X15406785Y-18630072D01*
X15392500Y-18658643D01*
X15378214Y-18672929D01*
X15349643Y-18687214D01*
X15321071Y-18687214D01*
X15292500Y-18672929D01*
X15278214Y-18658643D01*
X15263928Y-18630072D01*
X15249643Y-18572929D01*
X15249643Y-18501500D01*
X15263928Y-18444357D01*
X15278214Y-18415786D01*
X15292500Y-18401500D01*
X15321071Y-18387214D01*
X15521071Y-18387214D02*
X15706785Y-18387214D01*
X15606785Y-18501500D01*
X15649643Y-18501500D01*
X15678214Y-18515786D01*
X15692500Y-18530072D01*
X15706785Y-18558643D01*
X15706785Y-18630072D01*
X15692500Y-18658643D01*
X15678214Y-18672929D01*
X15649643Y-18687214D01*
X15563928Y-18687214D01*
X15535357Y-18672929D01*
X15521071Y-18658643D01*
X15806785Y-18387214D02*
X15992500Y-18387214D01*
X15892500Y-18501500D01*
X15935357Y-18501500D01*
X15963928Y-18515786D01*
X15978214Y-18530072D01*
X15992500Y-18558643D01*
X15992500Y-18630072D01*
X15978214Y-18658643D01*
X15963928Y-18672929D01*
X15935357Y-18687214D01*
X15849643Y-18687214D01*
X15821071Y-18672929D01*
X15806785Y-18658643D01*
X16106786Y-18387214D02*
X16106786Y-18444357D01*
X16221071Y-18387214D02*
X16221071Y-18444357D01*
X16663928Y-18801500D02*
X16649643Y-18787214D01*
X16621071Y-18744357D01*
X16606785Y-18715786D01*
X16592500Y-18672929D01*
X16578214Y-18601500D01*
X16578214Y-18544357D01*
X16592500Y-18472929D01*
X16606785Y-18430072D01*
X16621071Y-18401500D01*
X16649643Y-18358643D01*
X16663928Y-18344357D01*
X16821071Y-18515786D02*
X16792500Y-18501500D01*
X16778214Y-18487214D01*
X16763928Y-18458643D01*
X16763928Y-18444357D01*
X16778214Y-18415786D01*
X16792500Y-18401500D01*
X16821071Y-18387214D01*
X16878214Y-18387214D01*
X16906786Y-18401500D01*
X16921071Y-18415786D01*
X16935357Y-18444357D01*
X16935357Y-18458643D01*
X16921071Y-18487214D01*
X16906786Y-18501500D01*
X16878214Y-18515786D01*
X16821071Y-18515786D01*
X16792500Y-18530072D01*
X16778214Y-18544357D01*
X16763928Y-18572929D01*
X16763928Y-18630072D01*
X16778214Y-18658643D01*
X16792500Y-18672929D01*
X16821071Y-18687214D01*
X16878214Y-18687214D01*
X16906786Y-18672929D01*
X16921071Y-18658643D01*
X16935357Y-18630072D01*
X16935357Y-18572929D01*
X16921071Y-18544357D01*
X16906786Y-18530072D01*
X16878214Y-18515786D01*
X17292500Y-18687214D02*
X17292500Y-18387214D01*
X17421071Y-18687214D02*
X17421071Y-18530072D01*
X17406786Y-18501500D01*
X17378214Y-18487214D01*
X17335357Y-18487214D01*
X17306786Y-18501500D01*
X17292500Y-18515786D01*
X17606786Y-18687214D02*
X17578214Y-18672929D01*
X17563928Y-18658643D01*
X17549643Y-18630072D01*
X17549643Y-18544357D01*
X17563928Y-18515786D01*
X17578214Y-18501500D01*
X17606786Y-18487214D01*
X17649643Y-18487214D01*
X17678214Y-18501500D01*
X17692500Y-18515786D01*
X17706786Y-18544357D01*
X17706786Y-18630072D01*
X17692500Y-18658643D01*
X17678214Y-18672929D01*
X17649643Y-18687214D01*
X17606786Y-18687214D01*
X17878214Y-18687214D02*
X17849643Y-18672929D01*
X17835357Y-18644357D01*
X17835357Y-18387214D01*
X18106786Y-18672929D02*
X18078214Y-18687214D01*
X18021071Y-18687214D01*
X17992500Y-18672929D01*
X17978214Y-18644357D01*
X17978214Y-18530072D01*
X17992500Y-18501500D01*
X18021071Y-18487214D01*
X18078214Y-18487214D01*
X18106786Y-18501500D01*
X18121071Y-18530072D01*
X18121071Y-18558643D01*
X17978214Y-18587214D01*
X18235357Y-18672929D02*
X18263929Y-18687214D01*
X18321071Y-18687214D01*
X18349643Y-18672929D01*
X18363929Y-18644357D01*
X18363929Y-18630072D01*
X18349643Y-18601500D01*
X18321071Y-18587214D01*
X18278214Y-18587214D01*
X18249643Y-18572929D01*
X18235357Y-18544357D01*
X18235357Y-18530072D01*
X18249643Y-18501500D01*
X18278214Y-18487214D01*
X18321071Y-18487214D01*
X18349643Y-18501500D01*
X18463928Y-18801500D02*
X18478214Y-18787214D01*
X18506786Y-18744357D01*
X18521071Y-18715786D01*
X18535357Y-18672929D01*
X18549643Y-18601500D01*
X18549643Y-18544357D01*
X18535357Y-18472929D01*
X18521071Y-18430072D01*
X18506786Y-18401500D01*
X18478214Y-18358643D01*
X18463928Y-18344357D01*
X19006786Y-18801500D02*
X18992500Y-18787214D01*
X18963928Y-18744357D01*
X18949643Y-18715786D01*
X18935357Y-18672929D01*
X18921071Y-18601500D01*
X18921071Y-18544357D01*
X18935357Y-18472929D01*
X18949643Y-18430072D01*
X18963928Y-18401500D01*
X18992500Y-18358643D01*
X19006786Y-18344357D01*
X19121071Y-18487214D02*
X19121071Y-18687214D01*
X19121071Y-18515786D02*
X19135357Y-18501500D01*
X19163928Y-18487214D01*
X19206786Y-18487214D01*
X19235357Y-18501500D01*
X19249643Y-18530072D01*
X19249643Y-18687214D01*
X19435357Y-18687214D02*
X19406786Y-18672929D01*
X19392500Y-18658643D01*
X19378214Y-18630072D01*
X19378214Y-18544357D01*
X19392500Y-18515786D01*
X19406786Y-18501500D01*
X19435357Y-18487214D01*
X19478214Y-18487214D01*
X19506786Y-18501500D01*
X19521071Y-18515786D01*
X19535357Y-18544357D01*
X19535357Y-18630072D01*
X19521071Y-18658643D01*
X19506786Y-18672929D01*
X19478214Y-18687214D01*
X19435357Y-18687214D01*
X19621071Y-18487214D02*
X19735357Y-18487214D01*
X19663929Y-18387214D02*
X19663929Y-18644357D01*
X19678214Y-18672929D01*
X19706786Y-18687214D01*
X19735357Y-18687214D01*
X20063929Y-18487214D02*
X20063929Y-18787214D01*
X20063929Y-18501500D02*
X20092500Y-18487214D01*
X20149643Y-18487214D01*
X20178214Y-18501500D01*
X20192500Y-18515786D01*
X20206786Y-18544357D01*
X20206786Y-18630072D01*
X20192500Y-18658643D01*
X20178214Y-18672929D01*
X20149643Y-18687214D01*
X20092500Y-18687214D01*
X20063929Y-18672929D01*
X20378214Y-18687214D02*
X20349643Y-18672929D01*
X20335357Y-18644357D01*
X20335357Y-18387214D01*
X20621071Y-18687214D02*
X20621071Y-18530072D01*
X20606786Y-18501500D01*
X20578214Y-18487214D01*
X20521071Y-18487214D01*
X20492500Y-18501500D01*
X20621071Y-18672929D02*
X20592500Y-18687214D01*
X20521071Y-18687214D01*
X20492500Y-18672929D01*
X20478214Y-18644357D01*
X20478214Y-18615786D01*
X20492500Y-18587214D01*
X20521071Y-18572929D01*
X20592500Y-18572929D01*
X20621071Y-18558643D01*
X20721071Y-18487214D02*
X20835357Y-18487214D01*
X20763929Y-18387214D02*
X20763929Y-18644357D01*
X20778214Y-18672929D01*
X20806786Y-18687214D01*
X20835357Y-18687214D01*
X21049643Y-18672929D02*
X21021072Y-18687214D01*
X20963929Y-18687214D01*
X20935357Y-18672929D01*
X20921072Y-18644357D01*
X20921072Y-18530072D01*
X20935357Y-18501500D01*
X20963929Y-18487214D01*
X21021072Y-18487214D01*
X21049643Y-18501500D01*
X21063929Y-18530072D01*
X21063929Y-18558643D01*
X20921072Y-18587214D01*
X21321072Y-18687214D02*
X21321072Y-18387214D01*
X21321072Y-18672929D02*
X21292500Y-18687214D01*
X21235357Y-18687214D01*
X21206786Y-18672929D01*
X21192500Y-18658643D01*
X21178214Y-18630072D01*
X21178214Y-18544357D01*
X21192500Y-18515786D01*
X21206786Y-18501500D01*
X21235357Y-18487214D01*
X21292500Y-18487214D01*
X21321072Y-18501500D01*
X21435357Y-18801500D02*
X21449643Y-18787214D01*
X21478214Y-18744357D01*
X21492500Y-18715786D01*
X21506786Y-18672929D01*
X21521072Y-18601500D01*
X21521072Y-18544357D01*
X21506786Y-18472929D01*
X21492500Y-18430072D01*
X21478214Y-18401500D01*
X21449643Y-18358643D01*
X21435357Y-18344357D01*
X11882500Y-18892500D02*
X11992500Y-19002500D01*
X11992500Y-18892500D02*
X11882500Y-19002500D01*
X11992500Y-18947500D02*
G75*
G03X11992500Y-18947500I-55000J0D01*
G01*
X12421071Y-19083214D02*
X12249643Y-19083214D01*
X12335357Y-19083214D02*
X12335357Y-18783214D01*
X12306786Y-18826072D01*
X12278214Y-18854643D01*
X12249643Y-18868929D01*
X12549643Y-19054643D02*
X12563928Y-19068929D01*
X12549643Y-19083214D01*
X12535357Y-19068929D01*
X12549643Y-19054643D01*
X12549643Y-19083214D01*
X12849643Y-19083214D02*
X12678214Y-19083214D01*
X12763928Y-19083214D02*
X12763928Y-18783214D01*
X12735357Y-18826072D01*
X12706786Y-18854643D01*
X12678214Y-18868929D01*
X13035357Y-18783214D02*
X13063928Y-18783214D01*
X13092500Y-18797500D01*
X13106786Y-18811786D01*
X13121071Y-18840357D01*
X13135357Y-18897500D01*
X13135357Y-18968929D01*
X13121071Y-19026072D01*
X13106786Y-19054643D01*
X13092500Y-19068929D01*
X13063928Y-19083214D01*
X13035357Y-19083214D01*
X13006786Y-19068929D01*
X12992500Y-19054643D01*
X12978214Y-19026072D01*
X12963928Y-18968929D01*
X12963928Y-18897500D01*
X12978214Y-18840357D01*
X12992500Y-18811786D01*
X13006786Y-18797500D01*
X13035357Y-18783214D01*
X13263928Y-19083214D02*
X13263928Y-18883214D01*
X13263928Y-18911786D02*
X13278214Y-18897500D01*
X13306786Y-18883214D01*
X13349643Y-18883214D01*
X13378214Y-18897500D01*
X13392500Y-18926072D01*
X13392500Y-19083214D01*
X13392500Y-18926072D02*
X13406786Y-18897500D01*
X13435357Y-18883214D01*
X13478214Y-18883214D01*
X13506786Y-18897500D01*
X13521071Y-18926072D01*
X13521071Y-19083214D01*
X13663928Y-19083214D02*
X13663928Y-18883214D01*
X13663928Y-18911786D02*
X13678214Y-18897500D01*
X13706786Y-18883214D01*
X13749643Y-18883214D01*
X13778214Y-18897500D01*
X13792500Y-18926072D01*
X13792500Y-19083214D01*
X13792500Y-18926072D02*
X13806786Y-18897500D01*
X13835357Y-18883214D01*
X13878214Y-18883214D01*
X13906786Y-18897500D01*
X13921071Y-18926072D01*
X13921071Y-19083214D01*
X14506786Y-18768929D02*
X14249643Y-19154643D01*
X14892500Y-18783214D02*
X14921071Y-18783214D01*
X14949643Y-18797500D01*
X14963928Y-18811786D01*
X14978214Y-18840357D01*
X14992500Y-18897500D01*
X14992500Y-18968929D01*
X14978214Y-19026072D01*
X14963928Y-19054643D01*
X14949643Y-19068929D01*
X14921071Y-19083214D01*
X14892500Y-19083214D01*
X14863928Y-19068929D01*
X14849643Y-19054643D01*
X14835357Y-19026072D01*
X14821071Y-18968929D01*
X14821071Y-18897500D01*
X14835357Y-18840357D01*
X14849643Y-18811786D01*
X14863928Y-18797500D01*
X14892500Y-18783214D01*
X15121071Y-19054643D02*
X15135357Y-19068929D01*
X15121071Y-19083214D01*
X15106786Y-19068929D01*
X15121071Y-19054643D01*
X15121071Y-19083214D01*
X15321071Y-18783214D02*
X15349643Y-18783214D01*
X15378214Y-18797500D01*
X15392500Y-18811786D01*
X15406785Y-18840357D01*
X15421071Y-18897500D01*
X15421071Y-18968929D01*
X15406785Y-19026072D01*
X15392500Y-19054643D01*
X15378214Y-19068929D01*
X15349643Y-19083214D01*
X15321071Y-19083214D01*
X15292500Y-19068929D01*
X15278214Y-19054643D01*
X15263928Y-19026072D01*
X15249643Y-18968929D01*
X15249643Y-18897500D01*
X15263928Y-18840357D01*
X15278214Y-18811786D01*
X15292500Y-18797500D01*
X15321071Y-18783214D01*
X15678214Y-18883214D02*
X15678214Y-19083214D01*
X15606785Y-18768929D02*
X15535357Y-18983214D01*
X15721071Y-18983214D01*
X15806785Y-18783214D02*
X15992500Y-18783214D01*
X15892500Y-18897500D01*
X15935357Y-18897500D01*
X15963928Y-18911786D01*
X15978214Y-18926072D01*
X15992500Y-18954643D01*
X15992500Y-19026072D01*
X15978214Y-19054643D01*
X15963928Y-19068929D01*
X15935357Y-19083214D01*
X15849643Y-19083214D01*
X15821071Y-19068929D01*
X15806785Y-19054643D01*
X16106786Y-18783214D02*
X16106786Y-18840357D01*
X16221071Y-18783214D02*
X16221071Y-18840357D01*
X16663928Y-19197500D02*
X16649643Y-19183214D01*
X16621071Y-19140357D01*
X16606785Y-19111786D01*
X16592500Y-19068929D01*
X16578214Y-18997500D01*
X16578214Y-18940357D01*
X16592500Y-18868929D01*
X16606785Y-18826072D01*
X16621071Y-18797500D01*
X16649643Y-18754643D01*
X16663928Y-18740357D01*
X16906786Y-18883214D02*
X16906786Y-19083214D01*
X16835357Y-18768929D02*
X16763928Y-18983214D01*
X16949643Y-18983214D01*
X17106786Y-18911786D02*
X17078214Y-18897500D01*
X17063928Y-18883214D01*
X17049643Y-18854643D01*
X17049643Y-18840357D01*
X17063928Y-18811786D01*
X17078214Y-18797500D01*
X17106786Y-18783214D01*
X17163928Y-18783214D01*
X17192500Y-18797500D01*
X17206786Y-18811786D01*
X17221071Y-18840357D01*
X17221071Y-18854643D01*
X17206786Y-18883214D01*
X17192500Y-18897500D01*
X17163928Y-18911786D01*
X17106786Y-18911786D01*
X17078214Y-18926072D01*
X17063928Y-18940357D01*
X17049643Y-18968929D01*
X17049643Y-19026072D01*
X17063928Y-19054643D01*
X17078214Y-19068929D01*
X17106786Y-19083214D01*
X17163928Y-19083214D01*
X17192500Y-19068929D01*
X17206786Y-19054643D01*
X17221071Y-19026072D01*
X17221071Y-18968929D01*
X17206786Y-18940357D01*
X17192500Y-18926072D01*
X17163928Y-18911786D01*
X17578214Y-19083214D02*
X17578214Y-18783214D01*
X17706786Y-19083214D02*
X17706786Y-18926072D01*
X17692500Y-18897500D01*
X17663928Y-18883214D01*
X17621071Y-18883214D01*
X17592500Y-18897500D01*
X17578214Y-18911786D01*
X17892500Y-19083214D02*
X17863928Y-19068929D01*
X17849643Y-19054643D01*
X17835357Y-19026072D01*
X17835357Y-18940357D01*
X17849643Y-18911786D01*
X17863928Y-18897500D01*
X17892500Y-18883214D01*
X17935357Y-18883214D01*
X17963928Y-18897500D01*
X17978214Y-18911786D01*
X17992500Y-18940357D01*
X17992500Y-19026072D01*
X17978214Y-19054643D01*
X17963928Y-19068929D01*
X17935357Y-19083214D01*
X17892500Y-19083214D01*
X18163928Y-19083214D02*
X18135357Y-19068929D01*
X18121071Y-19040357D01*
X18121071Y-18783214D01*
X18392500Y-19068929D02*
X18363929Y-19083214D01*
X18306786Y-19083214D01*
X18278214Y-19068929D01*
X18263929Y-19040357D01*
X18263929Y-18926072D01*
X18278214Y-18897500D01*
X18306786Y-18883214D01*
X18363929Y-18883214D01*
X18392500Y-18897500D01*
X18406786Y-18926072D01*
X18406786Y-18954643D01*
X18263929Y-18983214D01*
X18521071Y-19068929D02*
X18549643Y-19083214D01*
X18606786Y-19083214D01*
X18635357Y-19068929D01*
X18649643Y-19040357D01*
X18649643Y-19026072D01*
X18635357Y-18997500D01*
X18606786Y-18983214D01*
X18563929Y-18983214D01*
X18535357Y-18968929D01*
X18521071Y-18940357D01*
X18521071Y-18926072D01*
X18535357Y-18897500D01*
X18563929Y-18883214D01*
X18606786Y-18883214D01*
X18635357Y-18897500D01*
X18749643Y-19197500D02*
X18763929Y-19183214D01*
X18792500Y-19140357D01*
X18806786Y-19111786D01*
X18821071Y-19068929D01*
X18835357Y-18997500D01*
X18835357Y-18940357D01*
X18821071Y-18868929D01*
X18806786Y-18826072D01*
X18792500Y-18797500D01*
X18763929Y-18754643D01*
X18749643Y-18740357D01*
X19292500Y-19197500D02*
X19278214Y-19183214D01*
X19249643Y-19140357D01*
X19235357Y-19111786D01*
X19221071Y-19068929D01*
X19206786Y-18997500D01*
X19206786Y-18940357D01*
X19221071Y-18868929D01*
X19235357Y-18826072D01*
X19249643Y-18797500D01*
X19278214Y-18754643D01*
X19292500Y-18740357D01*
X19406786Y-18883214D02*
X19406786Y-19083214D01*
X19406786Y-18911786D02*
X19421071Y-18897500D01*
X19449643Y-18883214D01*
X19492500Y-18883214D01*
X19521071Y-18897500D01*
X19535357Y-18926072D01*
X19535357Y-19083214D01*
X19721071Y-19083214D02*
X19692500Y-19068929D01*
X19678214Y-19054643D01*
X19663929Y-19026072D01*
X19663929Y-18940357D01*
X19678214Y-18911786D01*
X19692500Y-18897500D01*
X19721071Y-18883214D01*
X19763929Y-18883214D01*
X19792500Y-18897500D01*
X19806786Y-18911786D01*
X19821071Y-18940357D01*
X19821071Y-19026072D01*
X19806786Y-19054643D01*
X19792500Y-19068929D01*
X19763929Y-19083214D01*
X19721071Y-19083214D01*
X19906786Y-18883214D02*
X20021071Y-18883214D01*
X19949643Y-18783214D02*
X19949643Y-19040357D01*
X19963929Y-19068929D01*
X19992500Y-19083214D01*
X20021071Y-19083214D01*
X20349643Y-18883214D02*
X20349643Y-19183214D01*
X20349643Y-18897500D02*
X20378214Y-18883214D01*
X20435357Y-18883214D01*
X20463929Y-18897500D01*
X20478214Y-18911786D01*
X20492500Y-18940357D01*
X20492500Y-19026072D01*
X20478214Y-19054643D01*
X20463929Y-19068929D01*
X20435357Y-19083214D01*
X20378214Y-19083214D01*
X20349643Y-19068929D01*
X20663929Y-19083214D02*
X20635357Y-19068929D01*
X20621071Y-19040357D01*
X20621071Y-18783214D01*
X20906786Y-19083214D02*
X20906786Y-18926072D01*
X20892500Y-18897500D01*
X20863929Y-18883214D01*
X20806786Y-18883214D01*
X20778214Y-18897500D01*
X20906786Y-19068929D02*
X20878214Y-19083214D01*
X20806786Y-19083214D01*
X20778214Y-19068929D01*
X20763929Y-19040357D01*
X20763929Y-19011786D01*
X20778214Y-18983214D01*
X20806786Y-18968929D01*
X20878214Y-18968929D01*
X20906786Y-18954643D01*
X21006786Y-18883214D02*
X21121071Y-18883214D01*
X21049643Y-18783214D02*
X21049643Y-19040357D01*
X21063929Y-19068929D01*
X21092500Y-19083214D01*
X21121071Y-19083214D01*
X21335357Y-19068929D02*
X21306786Y-19083214D01*
X21249643Y-19083214D01*
X21221072Y-19068929D01*
X21206786Y-19040357D01*
X21206786Y-18926072D01*
X21221072Y-18897500D01*
X21249643Y-18883214D01*
X21306786Y-18883214D01*
X21335357Y-18897500D01*
X21349643Y-18926072D01*
X21349643Y-18954643D01*
X21206786Y-18983214D01*
X21606786Y-19083214D02*
X21606786Y-18783214D01*
X21606786Y-19068929D02*
X21578214Y-19083214D01*
X21521072Y-19083214D01*
X21492500Y-19068929D01*
X21478214Y-19054643D01*
X21463929Y-19026072D01*
X21463929Y-18940357D01*
X21478214Y-18911786D01*
X21492500Y-18897500D01*
X21521072Y-18883214D01*
X21578214Y-18883214D01*
X21606786Y-18897500D01*
X21721072Y-19197500D02*
X21735357Y-19183214D01*
X21763929Y-19140357D01*
X21778214Y-19111786D01*
X21792500Y-19068929D01*
X21806786Y-18997500D01*
X21806786Y-18940357D01*
X21792500Y-18868929D01*
X21778214Y-18826072D01*
X21763929Y-18797500D01*
X21735357Y-18754643D01*
X21721072Y-18740357D01*
X11832500Y-19263500D02*
X11992500Y-19423500D01*
X11992500Y-19263500D02*
X11832500Y-19423500D01*
X11912500Y-19263500D02*
X11912500Y-19423500D01*
X11832500Y-19343500D02*
X11992500Y-19343500D01*
X12421071Y-19479214D02*
X12249643Y-19479214D01*
X12335357Y-19479214D02*
X12335357Y-19179214D01*
X12306786Y-19222072D01*
X12278214Y-19250643D01*
X12249643Y-19264929D01*
X12549643Y-19450643D02*
X12563928Y-19464929D01*
X12549643Y-19479214D01*
X12535357Y-19464929D01*
X12549643Y-19450643D01*
X12549643Y-19479214D01*
X12821071Y-19179214D02*
X12763928Y-19179214D01*
X12735357Y-19193500D01*
X12721071Y-19207786D01*
X12692500Y-19250643D01*
X12678214Y-19307786D01*
X12678214Y-19422072D01*
X12692500Y-19450643D01*
X12706786Y-19464929D01*
X12735357Y-19479214D01*
X12792500Y-19479214D01*
X12821071Y-19464929D01*
X12835357Y-19450643D01*
X12849643Y-19422072D01*
X12849643Y-19350643D01*
X12835357Y-19322072D01*
X12821071Y-19307786D01*
X12792500Y-19293500D01*
X12735357Y-19293500D01*
X12706786Y-19307786D01*
X12692500Y-19322072D01*
X12678214Y-19350643D01*
X13035357Y-19179214D02*
X13063928Y-19179214D01*
X13092500Y-19193500D01*
X13106786Y-19207786D01*
X13121071Y-19236357D01*
X13135357Y-19293500D01*
X13135357Y-19364929D01*
X13121071Y-19422072D01*
X13106786Y-19450643D01*
X13092500Y-19464929D01*
X13063928Y-19479214D01*
X13035357Y-19479214D01*
X13006786Y-19464929D01*
X12992500Y-19450643D01*
X12978214Y-19422072D01*
X12963928Y-19364929D01*
X12963928Y-19293500D01*
X12978214Y-19236357D01*
X12992500Y-19207786D01*
X13006786Y-19193500D01*
X13035357Y-19179214D01*
X13263928Y-19479214D02*
X13263928Y-19279214D01*
X13263928Y-19307786D02*
X13278214Y-19293500D01*
X13306786Y-19279214D01*
X13349643Y-19279214D01*
X13378214Y-19293500D01*
X13392500Y-19322072D01*
X13392500Y-19479214D01*
X13392500Y-19322072D02*
X13406786Y-19293500D01*
X13435357Y-19279214D01*
X13478214Y-19279214D01*
X13506786Y-19293500D01*
X13521071Y-19322072D01*
X13521071Y-19479214D01*
X13663928Y-19479214D02*
X13663928Y-19279214D01*
X13663928Y-19307786D02*
X13678214Y-19293500D01*
X13706786Y-19279214D01*
X13749643Y-19279214D01*
X13778214Y-19293500D01*
X13792500Y-19322072D01*
X13792500Y-19479214D01*
X13792500Y-19322072D02*
X13806786Y-19293500D01*
X13835357Y-19279214D01*
X13878214Y-19279214D01*
X13906786Y-19293500D01*
X13921071Y-19322072D01*
X13921071Y-19479214D01*
X14506786Y-19164929D02*
X14249643Y-19550643D01*
X14892500Y-19179214D02*
X14921071Y-19179214D01*
X14949643Y-19193500D01*
X14963928Y-19207786D01*
X14978214Y-19236357D01*
X14992500Y-19293500D01*
X14992500Y-19364929D01*
X14978214Y-19422072D01*
X14963928Y-19450643D01*
X14949643Y-19464929D01*
X14921071Y-19479214D01*
X14892500Y-19479214D01*
X14863928Y-19464929D01*
X14849643Y-19450643D01*
X14835357Y-19422072D01*
X14821071Y-19364929D01*
X14821071Y-19293500D01*
X14835357Y-19236357D01*
X14849643Y-19207786D01*
X14863928Y-19193500D01*
X14892500Y-19179214D01*
X15121071Y-19450643D02*
X15135357Y-19464929D01*
X15121071Y-19479214D01*
X15106786Y-19464929D01*
X15121071Y-19450643D01*
X15121071Y-19479214D01*
X15321071Y-19179214D02*
X15349643Y-19179214D01*
X15378214Y-19193500D01*
X15392500Y-19207786D01*
X15406785Y-19236357D01*
X15421071Y-19293500D01*
X15421071Y-19364929D01*
X15406785Y-19422072D01*
X15392500Y-19450643D01*
X15378214Y-19464929D01*
X15349643Y-19479214D01*
X15321071Y-19479214D01*
X15292500Y-19464929D01*
X15278214Y-19450643D01*
X15263928Y-19422072D01*
X15249643Y-19364929D01*
X15249643Y-19293500D01*
X15263928Y-19236357D01*
X15278214Y-19207786D01*
X15292500Y-19193500D01*
X15321071Y-19179214D01*
X15678214Y-19179214D02*
X15621071Y-19179214D01*
X15592500Y-19193500D01*
X15578214Y-19207786D01*
X15549643Y-19250643D01*
X15535357Y-19307786D01*
X15535357Y-19422072D01*
X15549643Y-19450643D01*
X15563928Y-19464929D01*
X15592500Y-19479214D01*
X15649643Y-19479214D01*
X15678214Y-19464929D01*
X15692500Y-19450643D01*
X15706785Y-19422072D01*
X15706785Y-19350643D01*
X15692500Y-19322072D01*
X15678214Y-19307786D01*
X15649643Y-19293500D01*
X15592500Y-19293500D01*
X15563928Y-19307786D01*
X15549643Y-19322072D01*
X15535357Y-19350643D01*
X15806785Y-19179214D02*
X15992500Y-19179214D01*
X15892500Y-19293500D01*
X15935357Y-19293500D01*
X15963928Y-19307786D01*
X15978214Y-19322072D01*
X15992500Y-19350643D01*
X15992500Y-19422072D01*
X15978214Y-19450643D01*
X15963928Y-19464929D01*
X15935357Y-19479214D01*
X15849643Y-19479214D01*
X15821071Y-19464929D01*
X15806785Y-19450643D01*
X16106786Y-19179214D02*
X16106786Y-19236357D01*
X16221071Y-19179214D02*
X16221071Y-19236357D01*
X16663928Y-19593500D02*
X16649643Y-19579214D01*
X16621071Y-19536357D01*
X16606785Y-19507786D01*
X16592500Y-19464929D01*
X16578214Y-19393500D01*
X16578214Y-19336357D01*
X16592500Y-19264929D01*
X16606785Y-19222072D01*
X16621071Y-19193500D01*
X16649643Y-19150643D01*
X16663928Y-19136357D01*
X16935357Y-19479214D02*
X16763928Y-19479214D01*
X16849643Y-19479214D02*
X16849643Y-19179214D01*
X16821071Y-19222072D01*
X16792500Y-19250643D01*
X16763928Y-19264929D01*
X17049643Y-19207786D02*
X17063928Y-19193500D01*
X17092500Y-19179214D01*
X17163928Y-19179214D01*
X17192500Y-19193500D01*
X17206786Y-19207786D01*
X17221071Y-19236357D01*
X17221071Y-19264929D01*
X17206786Y-19307786D01*
X17035357Y-19479214D01*
X17221071Y-19479214D01*
X17578214Y-19479214D02*
X17578214Y-19179214D01*
X17706786Y-19479214D02*
X17706786Y-19322072D01*
X17692500Y-19293500D01*
X17663928Y-19279214D01*
X17621071Y-19279214D01*
X17592500Y-19293500D01*
X17578214Y-19307786D01*
X17892500Y-19479214D02*
X17863928Y-19464929D01*
X17849643Y-19450643D01*
X17835357Y-19422072D01*
X17835357Y-19336357D01*
X17849643Y-19307786D01*
X17863928Y-19293500D01*
X17892500Y-19279214D01*
X17935357Y-19279214D01*
X17963928Y-19293500D01*
X17978214Y-19307786D01*
X17992500Y-19336357D01*
X17992500Y-19422072D01*
X17978214Y-19450643D01*
X17963928Y-19464929D01*
X17935357Y-19479214D01*
X17892500Y-19479214D01*
X18163928Y-19479214D02*
X18135357Y-19464929D01*
X18121071Y-19436357D01*
X18121071Y-19179214D01*
X18392500Y-19464929D02*
X18363929Y-19479214D01*
X18306786Y-19479214D01*
X18278214Y-19464929D01*
X18263929Y-19436357D01*
X18263929Y-19322072D01*
X18278214Y-19293500D01*
X18306786Y-19279214D01*
X18363929Y-19279214D01*
X18392500Y-19293500D01*
X18406786Y-19322072D01*
X18406786Y-19350643D01*
X18263929Y-19379214D01*
X18521071Y-19464929D02*
X18549643Y-19479214D01*
X18606786Y-19479214D01*
X18635357Y-19464929D01*
X18649643Y-19436357D01*
X18649643Y-19422072D01*
X18635357Y-19393500D01*
X18606786Y-19379214D01*
X18563929Y-19379214D01*
X18535357Y-19364929D01*
X18521071Y-19336357D01*
X18521071Y-19322072D01*
X18535357Y-19293500D01*
X18563929Y-19279214D01*
X18606786Y-19279214D01*
X18635357Y-19293500D01*
X18749643Y-19593500D02*
X18763929Y-19579214D01*
X18792500Y-19536357D01*
X18806786Y-19507786D01*
X18821071Y-19464929D01*
X18835357Y-19393500D01*
X18835357Y-19336357D01*
X18821071Y-19264929D01*
X18806786Y-19222072D01*
X18792500Y-19193500D01*
X18763929Y-19150643D01*
X18749643Y-19136357D01*
X19292500Y-19593500D02*
X19278214Y-19579214D01*
X19249643Y-19536357D01*
X19235357Y-19507786D01*
X19221071Y-19464929D01*
X19206786Y-19393500D01*
X19206786Y-19336357D01*
X19221071Y-19264929D01*
X19235357Y-19222072D01*
X19249643Y-19193500D01*
X19278214Y-19150643D01*
X19292500Y-19136357D01*
X19406786Y-19279214D02*
X19406786Y-19479214D01*
X19406786Y-19307786D02*
X19421071Y-19293500D01*
X19449643Y-19279214D01*
X19492500Y-19279214D01*
X19521071Y-19293500D01*
X19535357Y-19322072D01*
X19535357Y-19479214D01*
X19721071Y-19479214D02*
X19692500Y-19464929D01*
X19678214Y-19450643D01*
X19663929Y-19422072D01*
X19663929Y-19336357D01*
X19678214Y-19307786D01*
X19692500Y-19293500D01*
X19721071Y-19279214D01*
X19763929Y-19279214D01*
X19792500Y-19293500D01*
X19806786Y-19307786D01*
X19821071Y-19336357D01*
X19821071Y-19422072D01*
X19806786Y-19450643D01*
X19792500Y-19464929D01*
X19763929Y-19479214D01*
X19721071Y-19479214D01*
X19906786Y-19279214D02*
X20021071Y-19279214D01*
X19949643Y-19179214D02*
X19949643Y-19436357D01*
X19963929Y-19464929D01*
X19992500Y-19479214D01*
X20021071Y-19479214D01*
X20349643Y-19279214D02*
X20349643Y-19579214D01*
X20349643Y-19293500D02*
X20378214Y-19279214D01*
X20435357Y-19279214D01*
X20463929Y-19293500D01*
X20478214Y-19307786D01*
X20492500Y-19336357D01*
X20492500Y-19422072D01*
X20478214Y-19450643D01*
X20463929Y-19464929D01*
X20435357Y-19479214D01*
X20378214Y-19479214D01*
X20349643Y-19464929D01*
X20663929Y-19479214D02*
X20635357Y-19464929D01*
X20621071Y-19436357D01*
X20621071Y-19179214D01*
X20906786Y-19479214D02*
X20906786Y-19322072D01*
X20892500Y-19293500D01*
X20863929Y-19279214D01*
X20806786Y-19279214D01*
X20778214Y-19293500D01*
X20906786Y-19464929D02*
X20878214Y-19479214D01*
X20806786Y-19479214D01*
X20778214Y-19464929D01*
X20763929Y-19436357D01*
X20763929Y-19407786D01*
X20778214Y-19379214D01*
X20806786Y-19364929D01*
X20878214Y-19364929D01*
X20906786Y-19350643D01*
X21006786Y-19279214D02*
X21121071Y-19279214D01*
X21049643Y-19179214D02*
X21049643Y-19436357D01*
X21063929Y-19464929D01*
X21092500Y-19479214D01*
X21121071Y-19479214D01*
X21335357Y-19464929D02*
X21306786Y-19479214D01*
X21249643Y-19479214D01*
X21221072Y-19464929D01*
X21206786Y-19436357D01*
X21206786Y-19322072D01*
X21221072Y-19293500D01*
X21249643Y-19279214D01*
X21306786Y-19279214D01*
X21335357Y-19293500D01*
X21349643Y-19322072D01*
X21349643Y-19350643D01*
X21206786Y-19379214D01*
X21606786Y-19479214D02*
X21606786Y-19179214D01*
X21606786Y-19464929D02*
X21578214Y-19479214D01*
X21521072Y-19479214D01*
X21492500Y-19464929D01*
X21478214Y-19450643D01*
X21463929Y-19422072D01*
X21463929Y-19336357D01*
X21478214Y-19307786D01*
X21492500Y-19293500D01*
X21521072Y-19279214D01*
X21578214Y-19279214D01*
X21606786Y-19293500D01*
X21721072Y-19593500D02*
X21735357Y-19579214D01*
X21763929Y-19536357D01*
X21778214Y-19507786D01*
X21792500Y-19464929D01*
X21806786Y-19393500D01*
X21806786Y-19336357D01*
X21792500Y-19264929D01*
X21778214Y-19222072D01*
X21763929Y-19193500D01*
X21735357Y-19150643D01*
X21721072Y-19136357D01*
M02*
