<?xml version="1.0" encoding="utf-8"?>
<!-- Generator: Adobe Illustrator 22.1.0, SVG Export Plug-In . SVG Version: 6.00 Build 0)  -->
<svg version="1.1" id="Calque_1" xmlns="http://www.w3.org/2000/svg" xmlns:xlink="http://www.w3.org/1999/xlink" x="0px" y="0px"
	 viewBox="0 0 2267.7 1417.3" style="enable-background:new 0 0 2267.7 1417.3;" xml:space="preserve">
<style type="text/css">
	.st0{fill:#1A1A1A;}
	.st1{fill:none;stroke:#FF0000;stroke-width:1.000000e-02;stroke-linecap:round;stroke-linejoin:round;stroke-miterlimit:10;}
	.st2{fill:none;stroke:#0000FF;stroke-width:1.000000e-02;stroke-miterlimit:10;}
</style>
<rect x="487" y="446.2" class="st0" width="14.2" height="14.2"/>
<rect x="519.6" y="377.5" class="st0" width="14.2" height="14.2"/>
<rect x="555" y="396.6" class="st0" width="14.2" height="14.2"/>
<polyline class="st1" points="570.7,426.4 570.7,422.4 570.7,419.3 553.5,419.3 553.5,422.4 553.5,426 553.5,426.1 553.5,429.2 
	570.7,429.2 570.7,426.1 "/>
<rect x="478.5" y="419.2" class="st1" width="25.5" height="11.5"/>
<rect x="552.9" y="446.2" class="st0" width="14.2" height="14.2"/>
<rect x="484.2" y="396.4" class="st0" width="14.2" height="14.2"/>
<path class="st2" d="M585.9,424.5c0-32.8-26.6-59.4-59.4-59.4s-59.4,26.6-59.4,59.4c0,28.8,20.5,52.8,47.7,58.2V465h24v17.7
	C565.7,477,585.9,453.1,585.9,424.5z"/>
</svg>
