<?xml version="1.0" encoding="utf-8"?>
<!-- Generator: Adobe Illustrator 22.1.0, SVG Export Plug-In . SVG Version: 6.00 Build 0)  -->
<svg version="1.1" id="Calque_1" xmlns="http://www.w3.org/2000/svg" xmlns:xlink="http://www.w3.org/1999/xlink" x="0px" y="0px"
	 viewBox="0 0 2267.7 1417.3" style="enable-background:new 0 0 2267.7 1417.3;" xml:space="preserve">
<style type="text/css">
	.st0{fill:none;stroke:#FF0000;stroke-width:1.000000e-02;stroke-linecap:round;stroke-linejoin:round;}
	.st1{fill:none;stroke:#0000FF;stroke-width:1.000000e-02;stroke-linecap:round;stroke-linejoin:round;}
</style>
<title>SVG Picture created as Jewel85-F.SilkS.svg date 2018/08/06 20:19:49</title>
<desc>Picture generated by PCBNEW</desc>
<g transform="translate(0 0) scale(1 1)">
</g>
<g>
</g>
<g>
	<path class="st0" d="M640.1,286.4h17.3"/>
	<path class="st0" d="M657.4,296.4h-17.3"/>
	<path class="st0" d="M640.1,286.4v3.2"/>
	<path class="st0" d="M657.4,286.4v3.2"/>
	<path class="st0" d="M657.4,296.4v-3.2"/>
	<path class="st0" d="M640.1,296.4v-3.2"/>
	<path class="st0" d="M640.1,289.5v3.6"/>
	<path class="st0" d="M657.4,289.4v4.2"/>
</g>
<g>
	<path class="st0" d="M566.4,286.4h23"/>
	<path class="st0" d="M589.3,286.4v11.5"/>
	<path class="st0" d="M589.3,297.9h-23"/>
	<path class="st0" d="M566.4,297.9v-11.5"/>
</g>
<g>
	<path class="st1" d="M625.9,333.1l-0.1,0.1V346c25.2-5.7,44.1-28.3,44.1-55.3c0-31.3-25.4-56.7-56.7-56.7s-56.7,25.4-56.7,56.7
		c0,27.1,19.1,49.8,44.5,55.4v-13H625.9z"/>
</g>
</svg>
