G04 #@! TF.FileFunction,Paste,Top*
%FSLAX46Y46*%
G04 Gerber Fmt 4.6, Leading zero omitted, Abs format (unit mm)*
G04 Created by KiCad (PCBNEW 4.0.7) date 06/26/18 19:00:46*
%MOMM*%
%LPD*%
G01*
G04 APERTURE LIST*
%ADD10C,0.100000*%
%ADD11R,0.400000X1.350000*%
%ADD12R,0.889000X1.397000*%
%ADD13R,1.198880X1.198880*%
%ADD14R,1.500000X0.900000*%
%ADD15R,1.998980X1.600200*%
%ADD16R,1.397000X0.889000*%
%ADD17R,0.551180X1.000760*%
%ADD18R,1.800000X0.600000*%
%ADD19R,1.000000X1.800000*%
G04 APERTURE END LIST*
D10*
D11*
X149249100Y-71762460D03*
X149899100Y-71762460D03*
X150549100Y-71762460D03*
X151199100Y-71762460D03*
X151849100Y-71762460D03*
X99249100Y-71762460D03*
X99899100Y-71762460D03*
X100549100Y-71762460D03*
X101199100Y-71762460D03*
X101849100Y-71762460D03*
X99249100Y-121762460D03*
X99899100Y-121762460D03*
X100549100Y-121762460D03*
X101199100Y-121762460D03*
X101849100Y-121762460D03*
D12*
X155655000Y-111250000D03*
X153750000Y-111250000D03*
X105655000Y-111250000D03*
X103750000Y-111250000D03*
X155655000Y-61250000D03*
X153750000Y-61250000D03*
X153750000Y-113750000D03*
X155655000Y-113750000D03*
X103750000Y-113750000D03*
X105655000Y-113750000D03*
X153750000Y-63750000D03*
X155655000Y-63750000D03*
D13*
X153700280Y-116250000D03*
X155798320Y-116250000D03*
X103700280Y-116250000D03*
X105798320Y-116250000D03*
X153700280Y-66250000D03*
X155798320Y-66250000D03*
D14*
X159500000Y-117900000D03*
X165000000Y-117900000D03*
X165000000Y-114600000D03*
X159500000Y-114600000D03*
X109500000Y-117900000D03*
X115000000Y-117900000D03*
X115000000Y-114600000D03*
X109500000Y-114600000D03*
X159500000Y-67900000D03*
X165000000Y-67900000D03*
X165000000Y-64600000D03*
X159500000Y-64600000D03*
D12*
X158500000Y-121250000D03*
X160405000Y-121250000D03*
X108500000Y-121250000D03*
X110405000Y-121250000D03*
X158500000Y-71250000D03*
X160405000Y-71250000D03*
X155655000Y-118750000D03*
X153750000Y-118750000D03*
X105655000Y-118750000D03*
X103750000Y-118750000D03*
X155655000Y-68750000D03*
X153750000Y-68750000D03*
X147250000Y-118750000D03*
X145345000Y-118750000D03*
X97250000Y-118750000D03*
X95345000Y-118750000D03*
X147250000Y-68750000D03*
X145345000Y-68750000D03*
D15*
X160000260Y-106000000D03*
X165999740Y-106000000D03*
X110000260Y-106000000D03*
X115999740Y-106000000D03*
X160000260Y-56000000D03*
X165999740Y-56000000D03*
D16*
X158000000Y-94000000D03*
X158000000Y-92095000D03*
X108000000Y-94000000D03*
X108000000Y-92095000D03*
X158000000Y-44000000D03*
X158000000Y-42095000D03*
D14*
X160250000Y-100400000D03*
X165750000Y-100400000D03*
X165750000Y-97100000D03*
X160250000Y-97100000D03*
X110250000Y-100400000D03*
X115750000Y-100400000D03*
X115750000Y-97100000D03*
X110250000Y-97100000D03*
X160250000Y-50400000D03*
X165750000Y-50400000D03*
X165750000Y-47100000D03*
X160250000Y-47100000D03*
D16*
X144500000Y-93750000D03*
X144500000Y-91845000D03*
X94500000Y-93750000D03*
X94500000Y-91845000D03*
X144500000Y-43750000D03*
X144500000Y-41845000D03*
D14*
X147750000Y-93650000D03*
X153250000Y-93650000D03*
X153250000Y-90350000D03*
X147750000Y-90350000D03*
X97750000Y-93650000D03*
X103250000Y-93650000D03*
X103250000Y-90350000D03*
X97750000Y-90350000D03*
X147750000Y-43650000D03*
X153250000Y-43650000D03*
X153250000Y-40350000D03*
X147750000Y-40350000D03*
D16*
X141000000Y-93750000D03*
X141000000Y-91845000D03*
X91000000Y-93750000D03*
X91000000Y-91845000D03*
X141000000Y-43750000D03*
X141000000Y-41845000D03*
D14*
X136250000Y-117900000D03*
X141750000Y-117900000D03*
X141750000Y-114600000D03*
X136250000Y-114600000D03*
X86250000Y-117900000D03*
X91750000Y-117900000D03*
X91750000Y-114600000D03*
X86250000Y-114600000D03*
X136250000Y-67900000D03*
X141750000Y-67900000D03*
X141750000Y-64600000D03*
X136250000Y-64600000D03*
D12*
X140750000Y-121250000D03*
X142655000Y-121250000D03*
X90750000Y-121250000D03*
X92655000Y-121250000D03*
X140750000Y-71250000D03*
X142655000Y-71250000D03*
D13*
X147346520Y-116250000D03*
X145248480Y-116250000D03*
X97346520Y-116250000D03*
X95248480Y-116250000D03*
X147346520Y-66250000D03*
X145248480Y-66250000D03*
D17*
X150500000Y-113699520D03*
X149550040Y-116300480D03*
X151449960Y-116300480D03*
X149547500Y-113699520D03*
X151452500Y-113699520D03*
X100500000Y-113699520D03*
X99550040Y-116300480D03*
X101449960Y-116300480D03*
X99547500Y-113699520D03*
X101452500Y-113699520D03*
X150500000Y-63699520D03*
X149550040Y-66300480D03*
X151449960Y-66300480D03*
X149547500Y-63699520D03*
X151452500Y-63699520D03*
D12*
X145345000Y-113750000D03*
X147250000Y-113750000D03*
X95345000Y-113750000D03*
X97250000Y-113750000D03*
X145345000Y-63750000D03*
X147250000Y-63750000D03*
X147250000Y-111250000D03*
X145345000Y-111250000D03*
X97250000Y-111250000D03*
X95345000Y-111250000D03*
X147250000Y-61250000D03*
X145345000Y-61250000D03*
D18*
X154300000Y-108155000D03*
X154300000Y-106885000D03*
X154300000Y-105615000D03*
X154300000Y-104345000D03*
X146700000Y-104345000D03*
X146700000Y-105615000D03*
X146700000Y-106885000D03*
X146700000Y-108155000D03*
X104300000Y-108155000D03*
X104300000Y-106885000D03*
X104300000Y-105615000D03*
X104300000Y-104345000D03*
X96700000Y-104345000D03*
X96700000Y-105615000D03*
X96700000Y-106885000D03*
X96700000Y-108155000D03*
X154300000Y-58155000D03*
X154300000Y-56885000D03*
X154300000Y-55615000D03*
X154300000Y-54345000D03*
X146700000Y-54345000D03*
X146700000Y-55615000D03*
X146700000Y-56885000D03*
X146700000Y-58155000D03*
D14*
X135250000Y-100300000D03*
X140750000Y-100300000D03*
X140750000Y-97000000D03*
X135250000Y-97000000D03*
X85250000Y-100300000D03*
X90750000Y-100300000D03*
X90750000Y-97000000D03*
X85250000Y-97000000D03*
X135250000Y-50300000D03*
X140750000Y-50300000D03*
X140750000Y-47000000D03*
X135250000Y-47000000D03*
D19*
X135510800Y-103100400D03*
X138000000Y-103100400D03*
X140489200Y-103100400D03*
X135510800Y-109348800D03*
X138000000Y-109348800D03*
X140489200Y-109348800D03*
X85510800Y-103100400D03*
X88000000Y-103100400D03*
X90489200Y-103100400D03*
X85510800Y-109348800D03*
X88000000Y-109348800D03*
X90489200Y-109348800D03*
X135510800Y-53100400D03*
X138000000Y-53100400D03*
X140489200Y-53100400D03*
X135510800Y-59348800D03*
X138000000Y-59348800D03*
X140489200Y-59348800D03*
D18*
X104300000Y-58155000D03*
X104300000Y-56885000D03*
X104300000Y-55615000D03*
X104300000Y-54345000D03*
X96700000Y-54345000D03*
X96700000Y-55615000D03*
X96700000Y-56885000D03*
X96700000Y-58155000D03*
D14*
X86250000Y-67900000D03*
X91750000Y-67900000D03*
X91750000Y-64600000D03*
X86250000Y-64600000D03*
X97750000Y-43650000D03*
X103250000Y-43650000D03*
X103250000Y-40350000D03*
X97750000Y-40350000D03*
X110250000Y-50400000D03*
X115750000Y-50400000D03*
X115750000Y-47100000D03*
X110250000Y-47100000D03*
D12*
X97250000Y-68750000D03*
X95345000Y-68750000D03*
X97250000Y-61250000D03*
X95345000Y-61250000D03*
X95345000Y-63750000D03*
X97250000Y-63750000D03*
X103750000Y-63750000D03*
X105655000Y-63750000D03*
X105655000Y-68750000D03*
X103750000Y-68750000D03*
D15*
X110000260Y-56000000D03*
X115999740Y-56000000D03*
D17*
X100500000Y-63699520D03*
X99550040Y-66300480D03*
X101449960Y-66300480D03*
X99547500Y-63699520D03*
X101452500Y-63699520D03*
D16*
X94500000Y-43750000D03*
X94500000Y-41845000D03*
X91000000Y-43750000D03*
X91000000Y-41845000D03*
X108000000Y-44000000D03*
X108000000Y-42095000D03*
D12*
X105655000Y-61250000D03*
X103750000Y-61250000D03*
D19*
X85510800Y-53100400D03*
X88000000Y-53100400D03*
X90489200Y-53100400D03*
X85510800Y-59348800D03*
X88000000Y-59348800D03*
X90489200Y-59348800D03*
D12*
X90750000Y-71250000D03*
X92655000Y-71250000D03*
X108500000Y-71250000D03*
X110405000Y-71250000D03*
D14*
X109500000Y-67900000D03*
X115000000Y-67900000D03*
X115000000Y-64600000D03*
X109500000Y-64600000D03*
X85250000Y-50300000D03*
X90750000Y-50300000D03*
X90750000Y-47000000D03*
X85250000Y-47000000D03*
D13*
X97346520Y-66250000D03*
X95248480Y-66250000D03*
X103700280Y-66250000D03*
X105798320Y-66250000D03*
D11*
X149249100Y-121737460D03*
X149899100Y-121737460D03*
X150549100Y-121737460D03*
X151199100Y-121737460D03*
X151849100Y-121737460D03*
M02*
