G04 #@! TF.FileFunction,Profile,NP*
%FSLAX46Y46*%
G04 Gerber Fmt 4.6, Leading zero omitted, Abs format (unit mm)*
G04 Created by KiCad (PCBNEW 4.0.7) date 06/26/18 19:00:47*
%MOMM*%
%LPD*%
G01*
G04 APERTURE LIST*
%ADD10C,0.100000*%
%ADD11C,0.150000*%
G04 APERTURE END LIST*
D10*
D11*
X68750000Y-126250000D02*
X180250000Y-126250000D01*
X130500000Y-134250000D02*
X130500000Y-23250000D01*
X120500000Y-22750000D02*
X120500000Y-134250000D01*
X170500000Y-27500000D02*
X170500000Y-134250000D01*
X67000000Y-86250000D02*
X181000000Y-86250000D01*
X80500000Y-23750000D02*
X80500000Y-134750000D01*
X66500000Y-76250000D02*
X179250000Y-76250000D01*
X68000000Y-36250000D02*
X181250000Y-36250000D01*
X80500000Y-76250000D02*
X98000000Y-76250000D01*
X80500000Y-58750000D02*
X80500000Y-76250000D01*
X80500000Y-36250000D02*
X80500000Y-53750000D01*
X98000000Y-36250000D02*
X80500000Y-36250000D01*
X120500000Y-36250000D02*
X103000000Y-36250000D01*
X120500000Y-53750000D02*
X120500000Y-36250000D01*
X120500000Y-76250000D02*
X120500000Y-58750000D01*
X103000000Y-76250000D02*
X120500000Y-76250000D01*
X75500000Y-131250000D02*
X75500000Y-31250000D01*
X175500000Y-131250000D02*
X75500000Y-131250000D01*
X175500000Y-31250000D02*
X175500000Y-131250000D01*
X75500000Y-31250000D02*
X175500000Y-31250000D01*
M02*
