G04 #@! TF.FileFunction,Other,Comment*
%FSLAX46Y46*%
G04 Gerber Fmt 4.6, Leading zero omitted, Abs format (unit mm)*
G04 Created by KiCad (PCBNEW 4.0.7) date 06/26/18 19:00:47*
%MOMM*%
%LPD*%
G01*
G04 APERTURE LIST*
%ADD10C,0.100000*%
%ADD11C,0.300000*%
G04 APERTURE END LIST*
D10*
D11*
X167392857Y-25178571D02*
X167892857Y-26678571D01*
X168392857Y-25178571D01*
X169750000Y-26535714D02*
X169678571Y-26607143D01*
X169464285Y-26678571D01*
X169321428Y-26678571D01*
X169107143Y-26607143D01*
X168964285Y-26464286D01*
X168892857Y-26321429D01*
X168821428Y-26035714D01*
X168821428Y-25821429D01*
X168892857Y-25535714D01*
X168964285Y-25392857D01*
X169107143Y-25250000D01*
X169321428Y-25178571D01*
X169464285Y-25178571D01*
X169678571Y-25250000D01*
X169750000Y-25321429D01*
X170392857Y-25178571D02*
X170392857Y-26392857D01*
X170464285Y-26535714D01*
X170535714Y-26607143D01*
X170678571Y-26678571D01*
X170964285Y-26678571D01*
X171107143Y-26607143D01*
X171178571Y-26535714D01*
X171250000Y-26392857D01*
X171250000Y-25178571D01*
X171750000Y-25178571D02*
X172607143Y-25178571D01*
X172178572Y-26678571D02*
X172178572Y-25178571D01*
X181392857Y-34428571D02*
X181892857Y-35928571D01*
X182392857Y-34428571D01*
X183750000Y-35785714D02*
X183678571Y-35857143D01*
X183464285Y-35928571D01*
X183321428Y-35928571D01*
X183107143Y-35857143D01*
X182964285Y-35714286D01*
X182892857Y-35571429D01*
X182821428Y-35285714D01*
X182821428Y-35071429D01*
X182892857Y-34785714D01*
X182964285Y-34642857D01*
X183107143Y-34500000D01*
X183321428Y-34428571D01*
X183464285Y-34428571D01*
X183678571Y-34500000D01*
X183750000Y-34571429D01*
X184392857Y-34428571D02*
X184392857Y-35642857D01*
X184464285Y-35785714D01*
X184535714Y-35857143D01*
X184678571Y-35928571D01*
X184964285Y-35928571D01*
X185107143Y-35857143D01*
X185178571Y-35785714D01*
X185250000Y-35642857D01*
X185250000Y-34428571D01*
X185750000Y-34428571D02*
X186607143Y-34428571D01*
X186178572Y-35928571D02*
X186178572Y-34428571D01*
X127392857Y-26178571D02*
X127892857Y-27678571D01*
X128392857Y-26178571D01*
X129750000Y-27535714D02*
X129678571Y-27607143D01*
X129464285Y-27678571D01*
X129321428Y-27678571D01*
X129107143Y-27607143D01*
X128964285Y-27464286D01*
X128892857Y-27321429D01*
X128821428Y-27035714D01*
X128821428Y-26821429D01*
X128892857Y-26535714D01*
X128964285Y-26392857D01*
X129107143Y-26250000D01*
X129321428Y-26178571D01*
X129464285Y-26178571D01*
X129678571Y-26250000D01*
X129750000Y-26321429D01*
X130392857Y-26178571D02*
X130392857Y-27392857D01*
X130464285Y-27535714D01*
X130535714Y-27607143D01*
X130678571Y-27678571D01*
X130964285Y-27678571D01*
X131107143Y-27607143D01*
X131178571Y-27535714D01*
X131250000Y-27392857D01*
X131250000Y-26178571D01*
X131750000Y-26178571D02*
X132607143Y-26178571D01*
X132178572Y-27678571D02*
X132178572Y-26178571D01*
X117892857Y-20928571D02*
X118392857Y-22428571D01*
X118892857Y-20928571D01*
X120250000Y-22285714D02*
X120178571Y-22357143D01*
X119964285Y-22428571D01*
X119821428Y-22428571D01*
X119607143Y-22357143D01*
X119464285Y-22214286D01*
X119392857Y-22071429D01*
X119321428Y-21785714D01*
X119321428Y-21571429D01*
X119392857Y-21285714D01*
X119464285Y-21142857D01*
X119607143Y-21000000D01*
X119821428Y-20928571D01*
X119964285Y-20928571D01*
X120178571Y-21000000D01*
X120250000Y-21071429D01*
X120892857Y-20928571D02*
X120892857Y-22142857D01*
X120964285Y-22285714D01*
X121035714Y-22357143D01*
X121178571Y-22428571D01*
X121464285Y-22428571D01*
X121607143Y-22357143D01*
X121678571Y-22285714D01*
X121750000Y-22142857D01*
X121750000Y-20928571D01*
X122250000Y-20928571D02*
X123107143Y-20928571D01*
X122678572Y-22428571D02*
X122678572Y-20928571D01*
X77892857Y-21928571D02*
X78392857Y-23428571D01*
X78892857Y-21928571D01*
X80250000Y-23285714D02*
X80178571Y-23357143D01*
X79964285Y-23428571D01*
X79821428Y-23428571D01*
X79607143Y-23357143D01*
X79464285Y-23214286D01*
X79392857Y-23071429D01*
X79321428Y-22785714D01*
X79321428Y-22571429D01*
X79392857Y-22285714D01*
X79464285Y-22142857D01*
X79607143Y-22000000D01*
X79821428Y-21928571D01*
X79964285Y-21928571D01*
X80178571Y-22000000D01*
X80250000Y-22071429D01*
X80892857Y-21928571D02*
X80892857Y-23142857D01*
X80964285Y-23285714D01*
X81035714Y-23357143D01*
X81178571Y-23428571D01*
X81464285Y-23428571D01*
X81607143Y-23357143D01*
X81678571Y-23285714D01*
X81750000Y-23142857D01*
X81750000Y-21928571D01*
X82250000Y-21928571D02*
X83107143Y-21928571D01*
X82678572Y-23428571D02*
X82678572Y-21928571D01*
X62392857Y-35428571D02*
X62892857Y-36928571D01*
X63392857Y-35428571D01*
X64750000Y-36785714D02*
X64678571Y-36857143D01*
X64464285Y-36928571D01*
X64321428Y-36928571D01*
X64107143Y-36857143D01*
X63964285Y-36714286D01*
X63892857Y-36571429D01*
X63821428Y-36285714D01*
X63821428Y-36071429D01*
X63892857Y-35785714D01*
X63964285Y-35642857D01*
X64107143Y-35500000D01*
X64321428Y-35428571D01*
X64464285Y-35428571D01*
X64678571Y-35500000D01*
X64750000Y-35571429D01*
X65392857Y-35428571D02*
X65392857Y-36642857D01*
X65464285Y-36785714D01*
X65535714Y-36857143D01*
X65678571Y-36928571D01*
X65964285Y-36928571D01*
X66107143Y-36857143D01*
X66178571Y-36785714D01*
X66250000Y-36642857D01*
X66250000Y-35428571D01*
X66750000Y-35428571D02*
X67607143Y-35428571D01*
X67178572Y-36928571D02*
X67178572Y-35428571D01*
X61392857Y-74428571D02*
X61892857Y-75928571D01*
X62392857Y-74428571D01*
X63750000Y-75785714D02*
X63678571Y-75857143D01*
X63464285Y-75928571D01*
X63321428Y-75928571D01*
X63107143Y-75857143D01*
X62964285Y-75714286D01*
X62892857Y-75571429D01*
X62821428Y-75285714D01*
X62821428Y-75071429D01*
X62892857Y-74785714D01*
X62964285Y-74642857D01*
X63107143Y-74500000D01*
X63321428Y-74428571D01*
X63464285Y-74428571D01*
X63678571Y-74500000D01*
X63750000Y-74571429D01*
X64392857Y-74428571D02*
X64392857Y-75642857D01*
X64464285Y-75785714D01*
X64535714Y-75857143D01*
X64678571Y-75928571D01*
X64964285Y-75928571D01*
X65107143Y-75857143D01*
X65178571Y-75785714D01*
X65250000Y-75642857D01*
X65250000Y-74428571D01*
X65750000Y-74428571D02*
X66607143Y-74428571D01*
X66178572Y-75928571D02*
X66178572Y-74428571D01*
X61392857Y-84178571D02*
X61892857Y-85678571D01*
X62392857Y-84178571D01*
X63750000Y-85535714D02*
X63678571Y-85607143D01*
X63464285Y-85678571D01*
X63321428Y-85678571D01*
X63107143Y-85607143D01*
X62964285Y-85464286D01*
X62892857Y-85321429D01*
X62821428Y-85035714D01*
X62821428Y-84821429D01*
X62892857Y-84535714D01*
X62964285Y-84392857D01*
X63107143Y-84250000D01*
X63321428Y-84178571D01*
X63464285Y-84178571D01*
X63678571Y-84250000D01*
X63750000Y-84321429D01*
X64392857Y-84178571D02*
X64392857Y-85392857D01*
X64464285Y-85535714D01*
X64535714Y-85607143D01*
X64678571Y-85678571D01*
X64964285Y-85678571D01*
X65107143Y-85607143D01*
X65178571Y-85535714D01*
X65250000Y-85392857D01*
X65250000Y-84178571D01*
X65750000Y-84178571D02*
X66607143Y-84178571D01*
X66178572Y-85678571D02*
X66178572Y-84178571D01*
X67642857Y-123928571D02*
X68142857Y-125428571D01*
X68642857Y-123928571D01*
X70000000Y-125285714D02*
X69928571Y-125357143D01*
X69714285Y-125428571D01*
X69571428Y-125428571D01*
X69357143Y-125357143D01*
X69214285Y-125214286D01*
X69142857Y-125071429D01*
X69071428Y-124785714D01*
X69071428Y-124571429D01*
X69142857Y-124285714D01*
X69214285Y-124142857D01*
X69357143Y-124000000D01*
X69571428Y-123928571D01*
X69714285Y-123928571D01*
X69928571Y-124000000D01*
X70000000Y-124071429D01*
X70642857Y-123928571D02*
X70642857Y-125142857D01*
X70714285Y-125285714D01*
X70785714Y-125357143D01*
X70928571Y-125428571D01*
X71214285Y-125428571D01*
X71357143Y-125357143D01*
X71428571Y-125285714D01*
X71500000Y-125142857D01*
X71500000Y-123928571D01*
X72000000Y-123928571D02*
X72857143Y-123928571D01*
X72428572Y-125428571D02*
X72428572Y-123928571D01*
X78142857Y-135428571D02*
X78642857Y-136928571D01*
X79142857Y-135428571D01*
X80500000Y-136785714D02*
X80428571Y-136857143D01*
X80214285Y-136928571D01*
X80071428Y-136928571D01*
X79857143Y-136857143D01*
X79714285Y-136714286D01*
X79642857Y-136571429D01*
X79571428Y-136285714D01*
X79571428Y-136071429D01*
X79642857Y-135785714D01*
X79714285Y-135642857D01*
X79857143Y-135500000D01*
X80071428Y-135428571D01*
X80214285Y-135428571D01*
X80428571Y-135500000D01*
X80500000Y-135571429D01*
X81142857Y-135428571D02*
X81142857Y-136642857D01*
X81214285Y-136785714D01*
X81285714Y-136857143D01*
X81428571Y-136928571D01*
X81714285Y-136928571D01*
X81857143Y-136857143D01*
X81928571Y-136785714D01*
X82000000Y-136642857D01*
X82000000Y-135428571D01*
X82500000Y-135428571D02*
X83357143Y-135428571D01*
X82928572Y-136928571D02*
X82928572Y-135428571D01*
X117642857Y-134928571D02*
X118142857Y-136428571D01*
X118642857Y-134928571D01*
X120000000Y-136285714D02*
X119928571Y-136357143D01*
X119714285Y-136428571D01*
X119571428Y-136428571D01*
X119357143Y-136357143D01*
X119214285Y-136214286D01*
X119142857Y-136071429D01*
X119071428Y-135785714D01*
X119071428Y-135571429D01*
X119142857Y-135285714D01*
X119214285Y-135142857D01*
X119357143Y-135000000D01*
X119571428Y-134928571D01*
X119714285Y-134928571D01*
X119928571Y-135000000D01*
X120000000Y-135071429D01*
X120642857Y-134928571D02*
X120642857Y-136142857D01*
X120714285Y-136285714D01*
X120785714Y-136357143D01*
X120928571Y-136428571D01*
X121214285Y-136428571D01*
X121357143Y-136357143D01*
X121428571Y-136285714D01*
X121500000Y-136142857D01*
X121500000Y-134928571D01*
X122000000Y-134928571D02*
X122857143Y-134928571D01*
X122428572Y-136428571D02*
X122428572Y-134928571D01*
X127392857Y-135178571D02*
X127892857Y-136678571D01*
X128392857Y-135178571D01*
X129750000Y-136535714D02*
X129678571Y-136607143D01*
X129464285Y-136678571D01*
X129321428Y-136678571D01*
X129107143Y-136607143D01*
X128964285Y-136464286D01*
X128892857Y-136321429D01*
X128821428Y-136035714D01*
X128821428Y-135821429D01*
X128892857Y-135535714D01*
X128964285Y-135392857D01*
X129107143Y-135250000D01*
X129321428Y-135178571D01*
X129464285Y-135178571D01*
X129678571Y-135250000D01*
X129750000Y-135321429D01*
X130392857Y-135178571D02*
X130392857Y-136392857D01*
X130464285Y-136535714D01*
X130535714Y-136607143D01*
X130678571Y-136678571D01*
X130964285Y-136678571D01*
X131107143Y-136607143D01*
X131178571Y-136535714D01*
X131250000Y-136392857D01*
X131250000Y-135178571D01*
X131750000Y-135178571D02*
X132607143Y-135178571D01*
X132178572Y-136678571D02*
X132178572Y-135178571D01*
X167642857Y-135178571D02*
X168142857Y-136678571D01*
X168642857Y-135178571D01*
X170000000Y-136535714D02*
X169928571Y-136607143D01*
X169714285Y-136678571D01*
X169571428Y-136678571D01*
X169357143Y-136607143D01*
X169214285Y-136464286D01*
X169142857Y-136321429D01*
X169071428Y-136035714D01*
X169071428Y-135821429D01*
X169142857Y-135535714D01*
X169214285Y-135392857D01*
X169357143Y-135250000D01*
X169571428Y-135178571D01*
X169714285Y-135178571D01*
X169928571Y-135250000D01*
X170000000Y-135321429D01*
X170642857Y-135178571D02*
X170642857Y-136392857D01*
X170714285Y-136535714D01*
X170785714Y-136607143D01*
X170928571Y-136678571D01*
X171214285Y-136678571D01*
X171357143Y-136607143D01*
X171428571Y-136535714D01*
X171500000Y-136392857D01*
X171500000Y-135178571D01*
X172000000Y-135178571D02*
X172857143Y-135178571D01*
X172428572Y-136678571D02*
X172428572Y-135178571D01*
X180392857Y-124678571D02*
X180892857Y-126178571D01*
X181392857Y-124678571D01*
X182750000Y-126035714D02*
X182678571Y-126107143D01*
X182464285Y-126178571D01*
X182321428Y-126178571D01*
X182107143Y-126107143D01*
X181964285Y-125964286D01*
X181892857Y-125821429D01*
X181821428Y-125535714D01*
X181821428Y-125321429D01*
X181892857Y-125035714D01*
X181964285Y-124892857D01*
X182107143Y-124750000D01*
X182321428Y-124678571D01*
X182464285Y-124678571D01*
X182678571Y-124750000D01*
X182750000Y-124821429D01*
X183392857Y-124678571D02*
X183392857Y-125892857D01*
X183464285Y-126035714D01*
X183535714Y-126107143D01*
X183678571Y-126178571D01*
X183964285Y-126178571D01*
X184107143Y-126107143D01*
X184178571Y-126035714D01*
X184250000Y-125892857D01*
X184250000Y-124678571D01*
X184750000Y-124678571D02*
X185607143Y-124678571D01*
X185178572Y-126178571D02*
X185178572Y-124678571D01*
X181642857Y-84678571D02*
X182142857Y-86178571D01*
X182642857Y-84678571D01*
X184000000Y-86035714D02*
X183928571Y-86107143D01*
X183714285Y-86178571D01*
X183571428Y-86178571D01*
X183357143Y-86107143D01*
X183214285Y-85964286D01*
X183142857Y-85821429D01*
X183071428Y-85535714D01*
X183071428Y-85321429D01*
X183142857Y-85035714D01*
X183214285Y-84892857D01*
X183357143Y-84750000D01*
X183571428Y-84678571D01*
X183714285Y-84678571D01*
X183928571Y-84750000D01*
X184000000Y-84821429D01*
X184642857Y-84678571D02*
X184642857Y-85892857D01*
X184714285Y-86035714D01*
X184785714Y-86107143D01*
X184928571Y-86178571D01*
X185214285Y-86178571D01*
X185357143Y-86107143D01*
X185428571Y-86035714D01*
X185500000Y-85892857D01*
X185500000Y-84678571D01*
X186000000Y-84678571D02*
X186857143Y-84678571D01*
X186428572Y-86178571D02*
X186428572Y-84678571D01*
X179892857Y-74678571D02*
X180392857Y-76178571D01*
X180892857Y-74678571D01*
X182250000Y-76035714D02*
X182178571Y-76107143D01*
X181964285Y-76178571D01*
X181821428Y-76178571D01*
X181607143Y-76107143D01*
X181464285Y-75964286D01*
X181392857Y-75821429D01*
X181321428Y-75535714D01*
X181321428Y-75321429D01*
X181392857Y-75035714D01*
X181464285Y-74892857D01*
X181607143Y-74750000D01*
X181821428Y-74678571D01*
X181964285Y-74678571D01*
X182178571Y-74750000D01*
X182250000Y-74821429D01*
X182892857Y-74678571D02*
X182892857Y-75892857D01*
X182964285Y-76035714D01*
X183035714Y-76107143D01*
X183178571Y-76178571D01*
X183464285Y-76178571D01*
X183607143Y-76107143D01*
X183678571Y-76035714D01*
X183750000Y-75892857D01*
X183750000Y-74678571D01*
X184250000Y-74678571D02*
X185107143Y-74678571D01*
X184678572Y-76178571D02*
X184678572Y-74678571D01*
X64971429Y-100750001D02*
X63971429Y-100750001D01*
X65542857Y-100392858D02*
X64471429Y-100035715D01*
X64471429Y-100964287D01*
X65471429Y-101821429D02*
X65471429Y-101964286D01*
X65400000Y-102107143D01*
X65328571Y-102178572D01*
X65185714Y-102250001D01*
X64900000Y-102321429D01*
X64542857Y-102321429D01*
X64257143Y-102250001D01*
X64114286Y-102178572D01*
X64042857Y-102107143D01*
X63971429Y-101964286D01*
X63971429Y-101821429D01*
X64042857Y-101678572D01*
X64114286Y-101607143D01*
X64257143Y-101535715D01*
X64542857Y-101464286D01*
X64900000Y-101464286D01*
X65185714Y-101535715D01*
X65328571Y-101607143D01*
X65400000Y-101678572D01*
X65471429Y-101821429D01*
X64042857Y-103035714D02*
X63971429Y-103035714D01*
X63828571Y-102964286D01*
X63757143Y-102892857D01*
X65471429Y-103964286D02*
X65471429Y-104107143D01*
X65400000Y-104250000D01*
X65328571Y-104321429D01*
X65185714Y-104392858D01*
X64900000Y-104464286D01*
X64542857Y-104464286D01*
X64257143Y-104392858D01*
X64114286Y-104321429D01*
X64042857Y-104250000D01*
X63971429Y-104107143D01*
X63971429Y-103964286D01*
X64042857Y-103821429D01*
X64114286Y-103750000D01*
X64257143Y-103678572D01*
X64542857Y-103607143D01*
X64900000Y-103607143D01*
X65185714Y-103678572D01*
X65328571Y-103750000D01*
X65400000Y-103821429D01*
X65471429Y-103964286D01*
X65471429Y-105392857D02*
X65471429Y-105535714D01*
X65400000Y-105678571D01*
X65328571Y-105750000D01*
X65185714Y-105821429D01*
X64900000Y-105892857D01*
X64542857Y-105892857D01*
X64257143Y-105821429D01*
X64114286Y-105750000D01*
X64042857Y-105678571D01*
X63971429Y-105535714D01*
X63971429Y-105392857D01*
X64042857Y-105250000D01*
X64114286Y-105178571D01*
X64257143Y-105107143D01*
X64542857Y-105035714D01*
X64900000Y-105035714D01*
X65185714Y-105107143D01*
X65328571Y-105178571D01*
X65400000Y-105250000D01*
X65471429Y-105392857D01*
X65471429Y-106821428D02*
X65471429Y-106964285D01*
X65400000Y-107107142D01*
X65328571Y-107178571D01*
X65185714Y-107250000D01*
X64900000Y-107321428D01*
X64542857Y-107321428D01*
X64257143Y-107250000D01*
X64114286Y-107178571D01*
X64042857Y-107107142D01*
X63971429Y-106964285D01*
X63971429Y-106821428D01*
X64042857Y-106678571D01*
X64114286Y-106607142D01*
X64257143Y-106535714D01*
X64542857Y-106464285D01*
X64900000Y-106464285D01*
X65185714Y-106535714D01*
X65328571Y-106607142D01*
X65400000Y-106678571D01*
X65471429Y-106821428D01*
X63971429Y-109107142D02*
X64971429Y-109107142D01*
X64828571Y-109107142D02*
X64900000Y-109178570D01*
X64971429Y-109321428D01*
X64971429Y-109535713D01*
X64900000Y-109678570D01*
X64757143Y-109749999D01*
X63971429Y-109749999D01*
X64757143Y-109749999D02*
X64900000Y-109821428D01*
X64971429Y-109964285D01*
X64971429Y-110178570D01*
X64900000Y-110321428D01*
X64757143Y-110392856D01*
X63971429Y-110392856D01*
X63971429Y-111107142D02*
X64971429Y-111107142D01*
X64828571Y-111107142D02*
X64900000Y-111178570D01*
X64971429Y-111321428D01*
X64971429Y-111535713D01*
X64900000Y-111678570D01*
X64757143Y-111749999D01*
X63971429Y-111749999D01*
X64757143Y-111749999D02*
X64900000Y-111821428D01*
X64971429Y-111964285D01*
X64971429Y-112178570D01*
X64900000Y-112321428D01*
X64757143Y-112392856D01*
X63971429Y-112392856D01*
X66000000Y-86250000D02*
X66000000Y-126250000D01*
X80500000Y-86250000D02*
X63300000Y-86250000D01*
X80500000Y-126250000D02*
X63300000Y-126250000D01*
X66000000Y-126250000D02*
X65413579Y-125123496D01*
X66000000Y-126250000D02*
X66586421Y-125123496D01*
X66000000Y-86250000D02*
X65413579Y-87376504D01*
X66000000Y-86250000D02*
X66586421Y-87376504D01*
X206171429Y-75178573D02*
X206171429Y-74321430D01*
X206171429Y-74750002D02*
X207671429Y-74750002D01*
X207457143Y-74607145D01*
X207314286Y-74464287D01*
X207242857Y-74321430D01*
X207671429Y-76107144D02*
X207671429Y-76250001D01*
X207600000Y-76392858D01*
X207528571Y-76464287D01*
X207385714Y-76535716D01*
X207100000Y-76607144D01*
X206742857Y-76607144D01*
X206457143Y-76535716D01*
X206314286Y-76464287D01*
X206242857Y-76392858D01*
X206171429Y-76250001D01*
X206171429Y-76107144D01*
X206242857Y-75964287D01*
X206314286Y-75892858D01*
X206457143Y-75821430D01*
X206742857Y-75750001D01*
X207100000Y-75750001D01*
X207385714Y-75821430D01*
X207528571Y-75892858D01*
X207600000Y-75964287D01*
X207671429Y-76107144D01*
X207671429Y-77535715D02*
X207671429Y-77678572D01*
X207600000Y-77821429D01*
X207528571Y-77892858D01*
X207385714Y-77964287D01*
X207100000Y-78035715D01*
X206742857Y-78035715D01*
X206457143Y-77964287D01*
X206314286Y-77892858D01*
X206242857Y-77821429D01*
X206171429Y-77678572D01*
X206171429Y-77535715D01*
X206242857Y-77392858D01*
X206314286Y-77321429D01*
X206457143Y-77250001D01*
X206742857Y-77178572D01*
X207100000Y-77178572D01*
X207385714Y-77250001D01*
X207528571Y-77321429D01*
X207600000Y-77392858D01*
X207671429Y-77535715D01*
X206242857Y-78750000D02*
X206171429Y-78750000D01*
X206028571Y-78678572D01*
X205957143Y-78607143D01*
X207671429Y-79678572D02*
X207671429Y-79821429D01*
X207600000Y-79964286D01*
X207528571Y-80035715D01*
X207385714Y-80107144D01*
X207100000Y-80178572D01*
X206742857Y-80178572D01*
X206457143Y-80107144D01*
X206314286Y-80035715D01*
X206242857Y-79964286D01*
X206171429Y-79821429D01*
X206171429Y-79678572D01*
X206242857Y-79535715D01*
X206314286Y-79464286D01*
X206457143Y-79392858D01*
X206742857Y-79321429D01*
X207100000Y-79321429D01*
X207385714Y-79392858D01*
X207528571Y-79464286D01*
X207600000Y-79535715D01*
X207671429Y-79678572D01*
X207671429Y-81107143D02*
X207671429Y-81250000D01*
X207600000Y-81392857D01*
X207528571Y-81464286D01*
X207385714Y-81535715D01*
X207100000Y-81607143D01*
X206742857Y-81607143D01*
X206457143Y-81535715D01*
X206314286Y-81464286D01*
X206242857Y-81392857D01*
X206171429Y-81250000D01*
X206171429Y-81107143D01*
X206242857Y-80964286D01*
X206314286Y-80892857D01*
X206457143Y-80821429D01*
X206742857Y-80750000D01*
X207100000Y-80750000D01*
X207385714Y-80821429D01*
X207528571Y-80892857D01*
X207600000Y-80964286D01*
X207671429Y-81107143D01*
X207671429Y-82535714D02*
X207671429Y-82678571D01*
X207600000Y-82821428D01*
X207528571Y-82892857D01*
X207385714Y-82964286D01*
X207100000Y-83035714D01*
X206742857Y-83035714D01*
X206457143Y-82964286D01*
X206314286Y-82892857D01*
X206242857Y-82821428D01*
X206171429Y-82678571D01*
X206171429Y-82535714D01*
X206242857Y-82392857D01*
X206314286Y-82321428D01*
X206457143Y-82250000D01*
X206742857Y-82178571D01*
X207100000Y-82178571D01*
X207385714Y-82250000D01*
X207528571Y-82321428D01*
X207600000Y-82392857D01*
X207671429Y-82535714D01*
X206171429Y-84821428D02*
X207171429Y-84821428D01*
X207028571Y-84821428D02*
X207100000Y-84892856D01*
X207171429Y-85035714D01*
X207171429Y-85249999D01*
X207100000Y-85392856D01*
X206957143Y-85464285D01*
X206171429Y-85464285D01*
X206957143Y-85464285D02*
X207100000Y-85535714D01*
X207171429Y-85678571D01*
X207171429Y-85892856D01*
X207100000Y-86035714D01*
X206957143Y-86107142D01*
X206171429Y-86107142D01*
X206171429Y-86821428D02*
X207171429Y-86821428D01*
X207028571Y-86821428D02*
X207100000Y-86892856D01*
X207171429Y-87035714D01*
X207171429Y-87249999D01*
X207100000Y-87392856D01*
X206957143Y-87464285D01*
X206171429Y-87464285D01*
X206957143Y-87464285D02*
X207100000Y-87535714D01*
X207171429Y-87678571D01*
X207171429Y-87892856D01*
X207100000Y-88035714D01*
X206957143Y-88107142D01*
X206171429Y-88107142D01*
X205500000Y-31250000D02*
X205500000Y-131250000D01*
X175500000Y-31250000D02*
X208200000Y-31250000D01*
X175500000Y-131250000D02*
X208200000Y-131250000D01*
X205500000Y-131250000D02*
X204913579Y-130123496D01*
X205500000Y-131250000D02*
X206086421Y-130123496D01*
X205500000Y-31250000D02*
X204913579Y-32376504D01*
X205500000Y-31250000D02*
X206086421Y-32376504D01*
X192171429Y-100750001D02*
X191171429Y-100750001D01*
X192742857Y-100392858D02*
X191671429Y-100035715D01*
X191671429Y-100964287D01*
X192671429Y-101821429D02*
X192671429Y-101964286D01*
X192600000Y-102107143D01*
X192528571Y-102178572D01*
X192385714Y-102250001D01*
X192100000Y-102321429D01*
X191742857Y-102321429D01*
X191457143Y-102250001D01*
X191314286Y-102178572D01*
X191242857Y-102107143D01*
X191171429Y-101964286D01*
X191171429Y-101821429D01*
X191242857Y-101678572D01*
X191314286Y-101607143D01*
X191457143Y-101535715D01*
X191742857Y-101464286D01*
X192100000Y-101464286D01*
X192385714Y-101535715D01*
X192528571Y-101607143D01*
X192600000Y-101678572D01*
X192671429Y-101821429D01*
X191242857Y-103035714D02*
X191171429Y-103035714D01*
X191028571Y-102964286D01*
X190957143Y-102892857D01*
X192671429Y-103964286D02*
X192671429Y-104107143D01*
X192600000Y-104250000D01*
X192528571Y-104321429D01*
X192385714Y-104392858D01*
X192100000Y-104464286D01*
X191742857Y-104464286D01*
X191457143Y-104392858D01*
X191314286Y-104321429D01*
X191242857Y-104250000D01*
X191171429Y-104107143D01*
X191171429Y-103964286D01*
X191242857Y-103821429D01*
X191314286Y-103750000D01*
X191457143Y-103678572D01*
X191742857Y-103607143D01*
X192100000Y-103607143D01*
X192385714Y-103678572D01*
X192528571Y-103750000D01*
X192600000Y-103821429D01*
X192671429Y-103964286D01*
X192671429Y-105392857D02*
X192671429Y-105535714D01*
X192600000Y-105678571D01*
X192528571Y-105750000D01*
X192385714Y-105821429D01*
X192100000Y-105892857D01*
X191742857Y-105892857D01*
X191457143Y-105821429D01*
X191314286Y-105750000D01*
X191242857Y-105678571D01*
X191171429Y-105535714D01*
X191171429Y-105392857D01*
X191242857Y-105250000D01*
X191314286Y-105178571D01*
X191457143Y-105107143D01*
X191742857Y-105035714D01*
X192100000Y-105035714D01*
X192385714Y-105107143D01*
X192528571Y-105178571D01*
X192600000Y-105250000D01*
X192671429Y-105392857D01*
X192671429Y-106821428D02*
X192671429Y-106964285D01*
X192600000Y-107107142D01*
X192528571Y-107178571D01*
X192385714Y-107250000D01*
X192100000Y-107321428D01*
X191742857Y-107321428D01*
X191457143Y-107250000D01*
X191314286Y-107178571D01*
X191242857Y-107107142D01*
X191171429Y-106964285D01*
X191171429Y-106821428D01*
X191242857Y-106678571D01*
X191314286Y-106607142D01*
X191457143Y-106535714D01*
X191742857Y-106464285D01*
X192100000Y-106464285D01*
X192385714Y-106535714D01*
X192528571Y-106607142D01*
X192600000Y-106678571D01*
X192671429Y-106821428D01*
X191171429Y-109107142D02*
X192171429Y-109107142D01*
X192028571Y-109107142D02*
X192100000Y-109178570D01*
X192171429Y-109321428D01*
X192171429Y-109535713D01*
X192100000Y-109678570D01*
X191957143Y-109749999D01*
X191171429Y-109749999D01*
X191957143Y-109749999D02*
X192100000Y-109821428D01*
X192171429Y-109964285D01*
X192171429Y-110178570D01*
X192100000Y-110321428D01*
X191957143Y-110392856D01*
X191171429Y-110392856D01*
X191171429Y-111107142D02*
X192171429Y-111107142D01*
X192028571Y-111107142D02*
X192100000Y-111178570D01*
X192171429Y-111321428D01*
X192171429Y-111535713D01*
X192100000Y-111678570D01*
X191957143Y-111749999D01*
X191171429Y-111749999D01*
X191957143Y-111749999D02*
X192100000Y-111821428D01*
X192171429Y-111964285D01*
X192171429Y-112178570D01*
X192100000Y-112321428D01*
X191957143Y-112392856D01*
X191171429Y-112392856D01*
X190500000Y-86250000D02*
X190500000Y-126250000D01*
X170500000Y-86250000D02*
X193200000Y-86250000D01*
X170500000Y-126250000D02*
X193200000Y-126250000D01*
X190500000Y-126250000D02*
X189913579Y-125123496D01*
X190500000Y-126250000D02*
X191086421Y-125123496D01*
X190500000Y-86250000D02*
X189913579Y-87376504D01*
X190500000Y-86250000D02*
X191086421Y-87376504D01*
X192921429Y-50750001D02*
X191921429Y-50750001D01*
X193492857Y-50392858D02*
X192421429Y-50035715D01*
X192421429Y-50964287D01*
X193421429Y-51821429D02*
X193421429Y-51964286D01*
X193350000Y-52107143D01*
X193278571Y-52178572D01*
X193135714Y-52250001D01*
X192850000Y-52321429D01*
X192492857Y-52321429D01*
X192207143Y-52250001D01*
X192064286Y-52178572D01*
X191992857Y-52107143D01*
X191921429Y-51964286D01*
X191921429Y-51821429D01*
X191992857Y-51678572D01*
X192064286Y-51607143D01*
X192207143Y-51535715D01*
X192492857Y-51464286D01*
X192850000Y-51464286D01*
X193135714Y-51535715D01*
X193278571Y-51607143D01*
X193350000Y-51678572D01*
X193421429Y-51821429D01*
X191992857Y-53035714D02*
X191921429Y-53035714D01*
X191778571Y-52964286D01*
X191707143Y-52892857D01*
X193421429Y-53964286D02*
X193421429Y-54107143D01*
X193350000Y-54250000D01*
X193278571Y-54321429D01*
X193135714Y-54392858D01*
X192850000Y-54464286D01*
X192492857Y-54464286D01*
X192207143Y-54392858D01*
X192064286Y-54321429D01*
X191992857Y-54250000D01*
X191921429Y-54107143D01*
X191921429Y-53964286D01*
X191992857Y-53821429D01*
X192064286Y-53750000D01*
X192207143Y-53678572D01*
X192492857Y-53607143D01*
X192850000Y-53607143D01*
X193135714Y-53678572D01*
X193278571Y-53750000D01*
X193350000Y-53821429D01*
X193421429Y-53964286D01*
X193421429Y-55392857D02*
X193421429Y-55535714D01*
X193350000Y-55678571D01*
X193278571Y-55750000D01*
X193135714Y-55821429D01*
X192850000Y-55892857D01*
X192492857Y-55892857D01*
X192207143Y-55821429D01*
X192064286Y-55750000D01*
X191992857Y-55678571D01*
X191921429Y-55535714D01*
X191921429Y-55392857D01*
X191992857Y-55250000D01*
X192064286Y-55178571D01*
X192207143Y-55107143D01*
X192492857Y-55035714D01*
X192850000Y-55035714D01*
X193135714Y-55107143D01*
X193278571Y-55178571D01*
X193350000Y-55250000D01*
X193421429Y-55392857D01*
X193421429Y-56821428D02*
X193421429Y-56964285D01*
X193350000Y-57107142D01*
X193278571Y-57178571D01*
X193135714Y-57250000D01*
X192850000Y-57321428D01*
X192492857Y-57321428D01*
X192207143Y-57250000D01*
X192064286Y-57178571D01*
X191992857Y-57107142D01*
X191921429Y-56964285D01*
X191921429Y-56821428D01*
X191992857Y-56678571D01*
X192064286Y-56607142D01*
X192207143Y-56535714D01*
X192492857Y-56464285D01*
X192850000Y-56464285D01*
X193135714Y-56535714D01*
X193278571Y-56607142D01*
X193350000Y-56678571D01*
X193421429Y-56821428D01*
X191921429Y-59107142D02*
X192921429Y-59107142D01*
X192778571Y-59107142D02*
X192850000Y-59178570D01*
X192921429Y-59321428D01*
X192921429Y-59535713D01*
X192850000Y-59678570D01*
X192707143Y-59749999D01*
X191921429Y-59749999D01*
X192707143Y-59749999D02*
X192850000Y-59821428D01*
X192921429Y-59964285D01*
X192921429Y-60178570D01*
X192850000Y-60321428D01*
X192707143Y-60392856D01*
X191921429Y-60392856D01*
X191921429Y-61107142D02*
X192921429Y-61107142D01*
X192778571Y-61107142D02*
X192850000Y-61178570D01*
X192921429Y-61321428D01*
X192921429Y-61535713D01*
X192850000Y-61678570D01*
X192707143Y-61749999D01*
X191921429Y-61749999D01*
X192707143Y-61749999D02*
X192850000Y-61821428D01*
X192921429Y-61964285D01*
X192921429Y-62178570D01*
X192850000Y-62321428D01*
X192707143Y-62392856D01*
X191921429Y-62392856D01*
X191250000Y-36250000D02*
X191250000Y-76250000D01*
X170500000Y-36250000D02*
X193950000Y-36250000D01*
X170500000Y-76250000D02*
X193950000Y-76250000D01*
X191250000Y-76250000D02*
X190663579Y-75123496D01*
X191250000Y-76250000D02*
X191836421Y-75123496D01*
X191250000Y-36250000D02*
X190663579Y-37376504D01*
X191250000Y-36250000D02*
X191836421Y-37376504D01*
X145000001Y-20828571D02*
X145000001Y-21828571D01*
X144642858Y-20257143D02*
X144285715Y-21328571D01*
X145214287Y-21328571D01*
X146071429Y-20328571D02*
X146214286Y-20328571D01*
X146357143Y-20400000D01*
X146428572Y-20471429D01*
X146500001Y-20614286D01*
X146571429Y-20900000D01*
X146571429Y-21257143D01*
X146500001Y-21542857D01*
X146428572Y-21685714D01*
X146357143Y-21757143D01*
X146214286Y-21828571D01*
X146071429Y-21828571D01*
X145928572Y-21757143D01*
X145857143Y-21685714D01*
X145785715Y-21542857D01*
X145714286Y-21257143D01*
X145714286Y-20900000D01*
X145785715Y-20614286D01*
X145857143Y-20471429D01*
X145928572Y-20400000D01*
X146071429Y-20328571D01*
X147285714Y-21757143D02*
X147285714Y-21828571D01*
X147214286Y-21971429D01*
X147142857Y-22042857D01*
X148214286Y-20328571D02*
X148357143Y-20328571D01*
X148500000Y-20400000D01*
X148571429Y-20471429D01*
X148642858Y-20614286D01*
X148714286Y-20900000D01*
X148714286Y-21257143D01*
X148642858Y-21542857D01*
X148571429Y-21685714D01*
X148500000Y-21757143D01*
X148357143Y-21828571D01*
X148214286Y-21828571D01*
X148071429Y-21757143D01*
X148000000Y-21685714D01*
X147928572Y-21542857D01*
X147857143Y-21257143D01*
X147857143Y-20900000D01*
X147928572Y-20614286D01*
X148000000Y-20471429D01*
X148071429Y-20400000D01*
X148214286Y-20328571D01*
X149642857Y-20328571D02*
X149785714Y-20328571D01*
X149928571Y-20400000D01*
X150000000Y-20471429D01*
X150071429Y-20614286D01*
X150142857Y-20900000D01*
X150142857Y-21257143D01*
X150071429Y-21542857D01*
X150000000Y-21685714D01*
X149928571Y-21757143D01*
X149785714Y-21828571D01*
X149642857Y-21828571D01*
X149500000Y-21757143D01*
X149428571Y-21685714D01*
X149357143Y-21542857D01*
X149285714Y-21257143D01*
X149285714Y-20900000D01*
X149357143Y-20614286D01*
X149428571Y-20471429D01*
X149500000Y-20400000D01*
X149642857Y-20328571D01*
X151071428Y-20328571D02*
X151214285Y-20328571D01*
X151357142Y-20400000D01*
X151428571Y-20471429D01*
X151500000Y-20614286D01*
X151571428Y-20900000D01*
X151571428Y-21257143D01*
X151500000Y-21542857D01*
X151428571Y-21685714D01*
X151357142Y-21757143D01*
X151214285Y-21828571D01*
X151071428Y-21828571D01*
X150928571Y-21757143D01*
X150857142Y-21685714D01*
X150785714Y-21542857D01*
X150714285Y-21257143D01*
X150714285Y-20900000D01*
X150785714Y-20614286D01*
X150857142Y-20471429D01*
X150928571Y-20400000D01*
X151071428Y-20328571D01*
X153357142Y-21828571D02*
X153357142Y-20828571D01*
X153357142Y-20971429D02*
X153428570Y-20900000D01*
X153571428Y-20828571D01*
X153785713Y-20828571D01*
X153928570Y-20900000D01*
X153999999Y-21042857D01*
X153999999Y-21828571D01*
X153999999Y-21042857D02*
X154071428Y-20900000D01*
X154214285Y-20828571D01*
X154428570Y-20828571D01*
X154571428Y-20900000D01*
X154642856Y-21042857D01*
X154642856Y-21828571D01*
X155357142Y-21828571D02*
X155357142Y-20828571D01*
X155357142Y-20971429D02*
X155428570Y-20900000D01*
X155571428Y-20828571D01*
X155785713Y-20828571D01*
X155928570Y-20900000D01*
X155999999Y-21042857D01*
X155999999Y-21828571D01*
X155999999Y-21042857D02*
X156071428Y-20900000D01*
X156214285Y-20828571D01*
X156428570Y-20828571D01*
X156571428Y-20900000D01*
X156642856Y-21042857D01*
X156642856Y-21828571D01*
X130500000Y-22500000D02*
X170500000Y-22500000D01*
X130500000Y-31250000D02*
X130500000Y-19800000D01*
X170500000Y-31250000D02*
X170500000Y-19800000D01*
X170500000Y-22500000D02*
X169373496Y-23086421D01*
X170500000Y-22500000D02*
X169373496Y-21913579D01*
X130500000Y-22500000D02*
X131626504Y-23086421D01*
X130500000Y-22500000D02*
X131626504Y-21913579D01*
X119428573Y-17578571D02*
X118571430Y-17578571D01*
X119000002Y-17578571D02*
X119000002Y-16078571D01*
X118857145Y-16292857D01*
X118714287Y-16435714D01*
X118571430Y-16507143D01*
X120357144Y-16078571D02*
X120500001Y-16078571D01*
X120642858Y-16150000D01*
X120714287Y-16221429D01*
X120785716Y-16364286D01*
X120857144Y-16650000D01*
X120857144Y-17007143D01*
X120785716Y-17292857D01*
X120714287Y-17435714D01*
X120642858Y-17507143D01*
X120500001Y-17578571D01*
X120357144Y-17578571D01*
X120214287Y-17507143D01*
X120142858Y-17435714D01*
X120071430Y-17292857D01*
X120000001Y-17007143D01*
X120000001Y-16650000D01*
X120071430Y-16364286D01*
X120142858Y-16221429D01*
X120214287Y-16150000D01*
X120357144Y-16078571D01*
X121785715Y-16078571D02*
X121928572Y-16078571D01*
X122071429Y-16150000D01*
X122142858Y-16221429D01*
X122214287Y-16364286D01*
X122285715Y-16650000D01*
X122285715Y-17007143D01*
X122214287Y-17292857D01*
X122142858Y-17435714D01*
X122071429Y-17507143D01*
X121928572Y-17578571D01*
X121785715Y-17578571D01*
X121642858Y-17507143D01*
X121571429Y-17435714D01*
X121500001Y-17292857D01*
X121428572Y-17007143D01*
X121428572Y-16650000D01*
X121500001Y-16364286D01*
X121571429Y-16221429D01*
X121642858Y-16150000D01*
X121785715Y-16078571D01*
X123000000Y-17507143D02*
X123000000Y-17578571D01*
X122928572Y-17721429D01*
X122857143Y-17792857D01*
X123928572Y-16078571D02*
X124071429Y-16078571D01*
X124214286Y-16150000D01*
X124285715Y-16221429D01*
X124357144Y-16364286D01*
X124428572Y-16650000D01*
X124428572Y-17007143D01*
X124357144Y-17292857D01*
X124285715Y-17435714D01*
X124214286Y-17507143D01*
X124071429Y-17578571D01*
X123928572Y-17578571D01*
X123785715Y-17507143D01*
X123714286Y-17435714D01*
X123642858Y-17292857D01*
X123571429Y-17007143D01*
X123571429Y-16650000D01*
X123642858Y-16364286D01*
X123714286Y-16221429D01*
X123785715Y-16150000D01*
X123928572Y-16078571D01*
X125357143Y-16078571D02*
X125500000Y-16078571D01*
X125642857Y-16150000D01*
X125714286Y-16221429D01*
X125785715Y-16364286D01*
X125857143Y-16650000D01*
X125857143Y-17007143D01*
X125785715Y-17292857D01*
X125714286Y-17435714D01*
X125642857Y-17507143D01*
X125500000Y-17578571D01*
X125357143Y-17578571D01*
X125214286Y-17507143D01*
X125142857Y-17435714D01*
X125071429Y-17292857D01*
X125000000Y-17007143D01*
X125000000Y-16650000D01*
X125071429Y-16364286D01*
X125142857Y-16221429D01*
X125214286Y-16150000D01*
X125357143Y-16078571D01*
X126785714Y-16078571D02*
X126928571Y-16078571D01*
X127071428Y-16150000D01*
X127142857Y-16221429D01*
X127214286Y-16364286D01*
X127285714Y-16650000D01*
X127285714Y-17007143D01*
X127214286Y-17292857D01*
X127142857Y-17435714D01*
X127071428Y-17507143D01*
X126928571Y-17578571D01*
X126785714Y-17578571D01*
X126642857Y-17507143D01*
X126571428Y-17435714D01*
X126500000Y-17292857D01*
X126428571Y-17007143D01*
X126428571Y-16650000D01*
X126500000Y-16364286D01*
X126571428Y-16221429D01*
X126642857Y-16150000D01*
X126785714Y-16078571D01*
X129071428Y-17578571D02*
X129071428Y-16578571D01*
X129071428Y-16721429D02*
X129142856Y-16650000D01*
X129285714Y-16578571D01*
X129499999Y-16578571D01*
X129642856Y-16650000D01*
X129714285Y-16792857D01*
X129714285Y-17578571D01*
X129714285Y-16792857D02*
X129785714Y-16650000D01*
X129928571Y-16578571D01*
X130142856Y-16578571D01*
X130285714Y-16650000D01*
X130357142Y-16792857D01*
X130357142Y-17578571D01*
X131071428Y-17578571D02*
X131071428Y-16578571D01*
X131071428Y-16721429D02*
X131142856Y-16650000D01*
X131285714Y-16578571D01*
X131499999Y-16578571D01*
X131642856Y-16650000D01*
X131714285Y-16792857D01*
X131714285Y-17578571D01*
X131714285Y-16792857D02*
X131785714Y-16650000D01*
X131928571Y-16578571D01*
X132142856Y-16578571D01*
X132285714Y-16650000D01*
X132357142Y-16792857D01*
X132357142Y-17578571D01*
X75500000Y-18250000D02*
X175500000Y-18250000D01*
X75500000Y-31250000D02*
X75500000Y-15550000D01*
X175500000Y-31250000D02*
X175500000Y-15550000D01*
X175500000Y-18250000D02*
X174373496Y-18836421D01*
X175500000Y-18250000D02*
X174373496Y-17663579D01*
X75500000Y-18250000D02*
X76626504Y-18836421D01*
X75500000Y-18250000D02*
X76626504Y-17663579D01*
X70721429Y-50750001D02*
X69721429Y-50750001D01*
X71292857Y-50392858D02*
X70221429Y-50035715D01*
X70221429Y-50964287D01*
X71221429Y-51821429D02*
X71221429Y-51964286D01*
X71150000Y-52107143D01*
X71078571Y-52178572D01*
X70935714Y-52250001D01*
X70650000Y-52321429D01*
X70292857Y-52321429D01*
X70007143Y-52250001D01*
X69864286Y-52178572D01*
X69792857Y-52107143D01*
X69721429Y-51964286D01*
X69721429Y-51821429D01*
X69792857Y-51678572D01*
X69864286Y-51607143D01*
X70007143Y-51535715D01*
X70292857Y-51464286D01*
X70650000Y-51464286D01*
X70935714Y-51535715D01*
X71078571Y-51607143D01*
X71150000Y-51678572D01*
X71221429Y-51821429D01*
X69792857Y-53035714D02*
X69721429Y-53035714D01*
X69578571Y-52964286D01*
X69507143Y-52892857D01*
X71221429Y-53964286D02*
X71221429Y-54107143D01*
X71150000Y-54250000D01*
X71078571Y-54321429D01*
X70935714Y-54392858D01*
X70650000Y-54464286D01*
X70292857Y-54464286D01*
X70007143Y-54392858D01*
X69864286Y-54321429D01*
X69792857Y-54250000D01*
X69721429Y-54107143D01*
X69721429Y-53964286D01*
X69792857Y-53821429D01*
X69864286Y-53750000D01*
X70007143Y-53678572D01*
X70292857Y-53607143D01*
X70650000Y-53607143D01*
X70935714Y-53678572D01*
X71078571Y-53750000D01*
X71150000Y-53821429D01*
X71221429Y-53964286D01*
X71221429Y-55392857D02*
X71221429Y-55535714D01*
X71150000Y-55678571D01*
X71078571Y-55750000D01*
X70935714Y-55821429D01*
X70650000Y-55892857D01*
X70292857Y-55892857D01*
X70007143Y-55821429D01*
X69864286Y-55750000D01*
X69792857Y-55678571D01*
X69721429Y-55535714D01*
X69721429Y-55392857D01*
X69792857Y-55250000D01*
X69864286Y-55178571D01*
X70007143Y-55107143D01*
X70292857Y-55035714D01*
X70650000Y-55035714D01*
X70935714Y-55107143D01*
X71078571Y-55178571D01*
X71150000Y-55250000D01*
X71221429Y-55392857D01*
X71221429Y-56821428D02*
X71221429Y-56964285D01*
X71150000Y-57107142D01*
X71078571Y-57178571D01*
X70935714Y-57250000D01*
X70650000Y-57321428D01*
X70292857Y-57321428D01*
X70007143Y-57250000D01*
X69864286Y-57178571D01*
X69792857Y-57107142D01*
X69721429Y-56964285D01*
X69721429Y-56821428D01*
X69792857Y-56678571D01*
X69864286Y-56607142D01*
X70007143Y-56535714D01*
X70292857Y-56464285D01*
X70650000Y-56464285D01*
X70935714Y-56535714D01*
X71078571Y-56607142D01*
X71150000Y-56678571D01*
X71221429Y-56821428D01*
X69721429Y-59107142D02*
X70721429Y-59107142D01*
X70578571Y-59107142D02*
X70650000Y-59178570D01*
X70721429Y-59321428D01*
X70721429Y-59535713D01*
X70650000Y-59678570D01*
X70507143Y-59749999D01*
X69721429Y-59749999D01*
X70507143Y-59749999D02*
X70650000Y-59821428D01*
X70721429Y-59964285D01*
X70721429Y-60178570D01*
X70650000Y-60321428D01*
X70507143Y-60392856D01*
X69721429Y-60392856D01*
X69721429Y-61107142D02*
X70721429Y-61107142D01*
X70578571Y-61107142D02*
X70650000Y-61178570D01*
X70721429Y-61321428D01*
X70721429Y-61535713D01*
X70650000Y-61678570D01*
X70507143Y-61749999D01*
X69721429Y-61749999D01*
X70507143Y-61749999D02*
X70650000Y-61821428D01*
X70721429Y-61964285D01*
X70721429Y-62178570D01*
X70650000Y-62321428D01*
X70507143Y-62392856D01*
X69721429Y-62392856D01*
X71750000Y-36250000D02*
X71750000Y-76250000D01*
X100500000Y-36250000D02*
X69050000Y-36250000D01*
X100500000Y-76250000D02*
X69050000Y-76250000D01*
X71750000Y-76250000D02*
X71163579Y-75123496D01*
X71750000Y-76250000D02*
X72336421Y-75123496D01*
X71750000Y-36250000D02*
X71163579Y-37376504D01*
X71750000Y-36250000D02*
X72336421Y-37376504D01*
X95000001Y-25828571D02*
X95000001Y-26828571D01*
X94642858Y-25257143D02*
X94285715Y-26328571D01*
X95214287Y-26328571D01*
X96071429Y-25328571D02*
X96214286Y-25328571D01*
X96357143Y-25400000D01*
X96428572Y-25471429D01*
X96500001Y-25614286D01*
X96571429Y-25900000D01*
X96571429Y-26257143D01*
X96500001Y-26542857D01*
X96428572Y-26685714D01*
X96357143Y-26757143D01*
X96214286Y-26828571D01*
X96071429Y-26828571D01*
X95928572Y-26757143D01*
X95857143Y-26685714D01*
X95785715Y-26542857D01*
X95714286Y-26257143D01*
X95714286Y-25900000D01*
X95785715Y-25614286D01*
X95857143Y-25471429D01*
X95928572Y-25400000D01*
X96071429Y-25328571D01*
X97285714Y-26757143D02*
X97285714Y-26828571D01*
X97214286Y-26971429D01*
X97142857Y-27042857D01*
X98214286Y-25328571D02*
X98357143Y-25328571D01*
X98500000Y-25400000D01*
X98571429Y-25471429D01*
X98642858Y-25614286D01*
X98714286Y-25900000D01*
X98714286Y-26257143D01*
X98642858Y-26542857D01*
X98571429Y-26685714D01*
X98500000Y-26757143D01*
X98357143Y-26828571D01*
X98214286Y-26828571D01*
X98071429Y-26757143D01*
X98000000Y-26685714D01*
X97928572Y-26542857D01*
X97857143Y-26257143D01*
X97857143Y-25900000D01*
X97928572Y-25614286D01*
X98000000Y-25471429D01*
X98071429Y-25400000D01*
X98214286Y-25328571D01*
X99642857Y-25328571D02*
X99785714Y-25328571D01*
X99928571Y-25400000D01*
X100000000Y-25471429D01*
X100071429Y-25614286D01*
X100142857Y-25900000D01*
X100142857Y-26257143D01*
X100071429Y-26542857D01*
X100000000Y-26685714D01*
X99928571Y-26757143D01*
X99785714Y-26828571D01*
X99642857Y-26828571D01*
X99500000Y-26757143D01*
X99428571Y-26685714D01*
X99357143Y-26542857D01*
X99285714Y-26257143D01*
X99285714Y-25900000D01*
X99357143Y-25614286D01*
X99428571Y-25471429D01*
X99500000Y-25400000D01*
X99642857Y-25328571D01*
X101071428Y-25328571D02*
X101214285Y-25328571D01*
X101357142Y-25400000D01*
X101428571Y-25471429D01*
X101500000Y-25614286D01*
X101571428Y-25900000D01*
X101571428Y-26257143D01*
X101500000Y-26542857D01*
X101428571Y-26685714D01*
X101357142Y-26757143D01*
X101214285Y-26828571D01*
X101071428Y-26828571D01*
X100928571Y-26757143D01*
X100857142Y-26685714D01*
X100785714Y-26542857D01*
X100714285Y-26257143D01*
X100714285Y-25900000D01*
X100785714Y-25614286D01*
X100857142Y-25471429D01*
X100928571Y-25400000D01*
X101071428Y-25328571D01*
X103357142Y-26828571D02*
X103357142Y-25828571D01*
X103357142Y-25971429D02*
X103428570Y-25900000D01*
X103571428Y-25828571D01*
X103785713Y-25828571D01*
X103928570Y-25900000D01*
X103999999Y-26042857D01*
X103999999Y-26828571D01*
X103999999Y-26042857D02*
X104071428Y-25900000D01*
X104214285Y-25828571D01*
X104428570Y-25828571D01*
X104571428Y-25900000D01*
X104642856Y-26042857D01*
X104642856Y-26828571D01*
X105357142Y-26828571D02*
X105357142Y-25828571D01*
X105357142Y-25971429D02*
X105428570Y-25900000D01*
X105571428Y-25828571D01*
X105785713Y-25828571D01*
X105928570Y-25900000D01*
X105999999Y-26042857D01*
X105999999Y-26828571D01*
X105999999Y-26042857D02*
X106071428Y-25900000D01*
X106214285Y-25828571D01*
X106428570Y-25828571D01*
X106571428Y-25900000D01*
X106642856Y-26042857D01*
X106642856Y-26828571D01*
X120500000Y-27500000D02*
X80500000Y-27500000D01*
X120500000Y-56250000D02*
X120500000Y-24800000D01*
X80500000Y-56250000D02*
X80500000Y-24800000D01*
X80500000Y-27500000D02*
X81626504Y-26913579D01*
X80500000Y-27500000D02*
X81626504Y-28086421D01*
X120500000Y-27500000D02*
X119373496Y-26913579D01*
X120500000Y-27500000D02*
X119373496Y-28086421D01*
X57971430Y-75178573D02*
X57971430Y-74321430D01*
X57971430Y-74750002D02*
X59471430Y-74750002D01*
X59257144Y-74607145D01*
X59114287Y-74464287D01*
X59042858Y-74321430D01*
X59471430Y-76107144D02*
X59471430Y-76250001D01*
X59400001Y-76392858D01*
X59328572Y-76464287D01*
X59185715Y-76535716D01*
X58900001Y-76607144D01*
X58542858Y-76607144D01*
X58257144Y-76535716D01*
X58114287Y-76464287D01*
X58042858Y-76392858D01*
X57971430Y-76250001D01*
X57971430Y-76107144D01*
X58042858Y-75964287D01*
X58114287Y-75892858D01*
X58257144Y-75821430D01*
X58542858Y-75750001D01*
X58900001Y-75750001D01*
X59185715Y-75821430D01*
X59328572Y-75892858D01*
X59400001Y-75964287D01*
X59471430Y-76107144D01*
X59471430Y-77535715D02*
X59471430Y-77678572D01*
X59400001Y-77821429D01*
X59328572Y-77892858D01*
X59185715Y-77964287D01*
X58900001Y-78035715D01*
X58542858Y-78035715D01*
X58257144Y-77964287D01*
X58114287Y-77892858D01*
X58042858Y-77821429D01*
X57971430Y-77678572D01*
X57971430Y-77535715D01*
X58042858Y-77392858D01*
X58114287Y-77321429D01*
X58257144Y-77250001D01*
X58542858Y-77178572D01*
X58900001Y-77178572D01*
X59185715Y-77250001D01*
X59328572Y-77321429D01*
X59400001Y-77392858D01*
X59471430Y-77535715D01*
X58042858Y-78750000D02*
X57971430Y-78750000D01*
X57828572Y-78678572D01*
X57757144Y-78607143D01*
X59471430Y-79678572D02*
X59471430Y-79821429D01*
X59400001Y-79964286D01*
X59328572Y-80035715D01*
X59185715Y-80107144D01*
X58900001Y-80178572D01*
X58542858Y-80178572D01*
X58257144Y-80107144D01*
X58114287Y-80035715D01*
X58042858Y-79964286D01*
X57971430Y-79821429D01*
X57971430Y-79678572D01*
X58042858Y-79535715D01*
X58114287Y-79464286D01*
X58257144Y-79392858D01*
X58542858Y-79321429D01*
X58900001Y-79321429D01*
X59185715Y-79392858D01*
X59328572Y-79464286D01*
X59400001Y-79535715D01*
X59471430Y-79678572D01*
X59471430Y-81107143D02*
X59471430Y-81250000D01*
X59400001Y-81392857D01*
X59328572Y-81464286D01*
X59185715Y-81535715D01*
X58900001Y-81607143D01*
X58542858Y-81607143D01*
X58257144Y-81535715D01*
X58114287Y-81464286D01*
X58042858Y-81392857D01*
X57971430Y-81250000D01*
X57971430Y-81107143D01*
X58042858Y-80964286D01*
X58114287Y-80892857D01*
X58257144Y-80821429D01*
X58542858Y-80750000D01*
X58900001Y-80750000D01*
X59185715Y-80821429D01*
X59328572Y-80892857D01*
X59400001Y-80964286D01*
X59471430Y-81107143D01*
X59471430Y-82535714D02*
X59471430Y-82678571D01*
X59400001Y-82821428D01*
X59328572Y-82892857D01*
X59185715Y-82964286D01*
X58900001Y-83035714D01*
X58542858Y-83035714D01*
X58257144Y-82964286D01*
X58114287Y-82892857D01*
X58042858Y-82821428D01*
X57971430Y-82678571D01*
X57971430Y-82535714D01*
X58042858Y-82392857D01*
X58114287Y-82321428D01*
X58257144Y-82250000D01*
X58542858Y-82178571D01*
X58900001Y-82178571D01*
X59185715Y-82250000D01*
X59328572Y-82321428D01*
X59400001Y-82392857D01*
X59471430Y-82535714D01*
X57971430Y-84821428D02*
X58971430Y-84821428D01*
X58828572Y-84821428D02*
X58900001Y-84892856D01*
X58971430Y-85035714D01*
X58971430Y-85249999D01*
X58900001Y-85392856D01*
X58757144Y-85464285D01*
X57971430Y-85464285D01*
X58757144Y-85464285D02*
X58900001Y-85535714D01*
X58971430Y-85678571D01*
X58971430Y-85892856D01*
X58900001Y-86035714D01*
X58757144Y-86107142D01*
X57971430Y-86107142D01*
X57971430Y-86821428D02*
X58971430Y-86821428D01*
X58828572Y-86821428D02*
X58900001Y-86892856D01*
X58971430Y-87035714D01*
X58971430Y-87249999D01*
X58900001Y-87392856D01*
X58757144Y-87464285D01*
X57971430Y-87464285D01*
X58757144Y-87464285D02*
X58900001Y-87535714D01*
X58971430Y-87678571D01*
X58971430Y-87892856D01*
X58900001Y-88035714D01*
X58757144Y-88107142D01*
X57971430Y-88107142D01*
X60000001Y-31250000D02*
X60000001Y-131250000D01*
X75500000Y-31250000D02*
X57300001Y-31250000D01*
X75500000Y-131250000D02*
X57300001Y-131250000D01*
X60000001Y-131250000D02*
X59413580Y-130123496D01*
X60000001Y-131250000D02*
X60586422Y-130123496D01*
X60000001Y-31250000D02*
X59413580Y-32376504D01*
X60000001Y-31250000D02*
X60586422Y-32376504D01*
M02*
