G04 #@! TF.FileFunction,Soldermask,Bot*
%FSLAX46Y46*%
G04 Gerber Fmt 4.6, Leading zero omitted, Abs format (unit mm)*
G04 Created by KiCad (PCBNEW 4.0.7) date 06/26/18 19:00:47*
%MOMM*%
%LPD*%
G01*
G04 APERTURE LIST*
%ADD10C,0.100000*%
%ADD11O,1.650000X1.350000*%
%ADD12O,1.400000X1.950000*%
%ADD13C,2.000000*%
%ADD14C,2.400000*%
%ADD15R,2.100000X2.100000*%
%ADD16O,2.100000X2.100000*%
%ADD17C,1.250000*%
G04 APERTURE END LIST*
D10*
D11*
X148049100Y-71762460D03*
X153049100Y-71762460D03*
D12*
X147049100Y-74462460D03*
X154049100Y-74462460D03*
D11*
X98049100Y-71762460D03*
X103049100Y-71762460D03*
D12*
X97049100Y-74462460D03*
X104049100Y-74462460D03*
D11*
X98049100Y-121762460D03*
X103049100Y-121762460D03*
D12*
X97049100Y-124462460D03*
X104049100Y-124462460D03*
D13*
X167500000Y-113250000D03*
X117500000Y-113250000D03*
X167500000Y-63250000D03*
D14*
X168000000Y-105000000D03*
X118000000Y-105000000D03*
X168000000Y-55000000D03*
X168000000Y-108500000D03*
X118000000Y-108500000D03*
X168000000Y-58500000D03*
X168000000Y-101250000D03*
X118000000Y-101250000D03*
X168000000Y-51250000D03*
D15*
X147960000Y-97500000D03*
D16*
X147960000Y-100040000D03*
X150500000Y-97500000D03*
X150500000Y-100040000D03*
X153040000Y-97500000D03*
X153040000Y-100040000D03*
D15*
X97960000Y-97500000D03*
D16*
X97960000Y-100040000D03*
X100500000Y-97500000D03*
X100500000Y-100040000D03*
X103040000Y-97500000D03*
X103040000Y-100040000D03*
D15*
X147960000Y-47500000D03*
D16*
X147960000Y-50040000D03*
X150500000Y-47500000D03*
X150500000Y-50040000D03*
X153040000Y-47500000D03*
X153040000Y-50040000D03*
D13*
X150500000Y-87750000D03*
X100500000Y-87750000D03*
X150500000Y-37750000D03*
D14*
X138750000Y-119250000D03*
X88750000Y-119250000D03*
X138750000Y-69250000D03*
X141500000Y-121250000D03*
X91500000Y-121250000D03*
X141500000Y-71250000D03*
D17*
X139500000Y-106250000D03*
X136500000Y-106250000D03*
X89500000Y-106250000D03*
X86500000Y-106250000D03*
X139500000Y-56250000D03*
X136500000Y-56250000D03*
D13*
X133500000Y-113250000D03*
X83500000Y-113250000D03*
X133500000Y-63250000D03*
X100500000Y-37750000D03*
X117500000Y-63250000D03*
X83500000Y-63250000D03*
D15*
X97960000Y-47500000D03*
D16*
X97960000Y-50040000D03*
X100500000Y-47500000D03*
X100500000Y-50040000D03*
X103040000Y-47500000D03*
X103040000Y-50040000D03*
D14*
X88750000Y-69250000D03*
X118000000Y-58500000D03*
X118000000Y-55000000D03*
X118000000Y-51250000D03*
X91500000Y-71250000D03*
D17*
X89500000Y-56250000D03*
X86500000Y-56250000D03*
D11*
X148049100Y-121737460D03*
X153049100Y-121737460D03*
D12*
X147049100Y-124437460D03*
X154049100Y-124437460D03*
M02*
