<?xml version="1.0" encoding="utf-8"?>
<!-- Generator: Adobe Illustrator 22.1.0, SVG Export Plug-In . SVG Version: 6.00 Build 0)  -->
<svg version="1.1" id="Calque_1" xmlns="http://www.w3.org/2000/svg" xmlns:xlink="http://www.w3.org/1999/xlink" x="0px" y="0px"
	 viewBox="0 0 2267.7 1417.3" style="enable-background:new 0 0 2267.7 1417.3;" xml:space="preserve">
<style type="text/css">
	.st0{fill:#1A1A1A;}
	.st1{fill:none;stroke:#FF0000;stroke-width:1.000000e-02;stroke-linecap:round;stroke-linejoin:round;stroke-miterlimit:10;}
	.st2{fill:none;stroke:#0000FF;stroke-width:1.000000e-02;stroke-linecap:round;stroke-linejoin:round;stroke-miterlimit:10;}
</style>
<rect x="680.2" y="500.4" class="st0" width="14.2" height="14.2"/>
<rect x="712.8" y="431.7" class="st0" width="14.2" height="14.2"/>
<rect x="748.2" y="450.8" class="st0" width="14.2" height="14.2"/>
<polygon class="st1" points="763.8,483.4 763.8,480.3 763.8,480.6 763.8,476.5 763.8,476.6 763.8,473.5 746.8,473.5 746.8,476.6 
	746.8,480.1 746.8,480.3 746.8,483.4 "/>
<rect x="671.7" y="473.4" class="st1" width="25.5" height="11.5"/>
<rect x="746.1" y="500.4" class="st0" width="14.2" height="14.2"/>
<rect x="677.4" y="450.5" class="st0" width="14.2" height="14.2"/>
<polygon class="st2" points="776.5,422.5 663.3,422.5 663.3,535.8 707.7,535.8 707.7,520.2 732.3,520.2 732.3,535.8 776.5,535.8 "/>
</svg>
