M48
;DRILL file {KiCad 4.0.7} date 06/26/18 19:00:48
;FORMAT={-:-/ absolute / metric / decimal}
FMAT,2
METRIC,TZ
T1C0.400
T2C0.500
T3C0.550
T4C1.000
T5C0.850
T6C1.600
%
G90
G05
M71
T1
X87.Y-45.25
X87.Y-57.75
X87.Y-95.25
X87.Y-107.75
X87.75Y-67.75
X87.75Y-117.75
X88.Y-61.5
X88.Y-111.5
X89.75Y-45.
X89.75Y-95.
X90.5Y-66.5
X90.5Y-116.5
X91.25Y-69.5
X91.25Y-119.5
X91.5Y-56.5
X91.5Y-106.5
X92.Y-45.75
X92.Y-95.75
X93.75Y-56.
X93.75Y-106.
X94.5Y-52.5
X94.5Y-102.5
X94.75Y-57.75
X94.75Y-107.75
X95.Y-65.
X95.Y-115.
X96.Y-43.75
X96.Y-93.75
X96.25Y-44.75
X96.25Y-94.75
X97.Y-52.
X97.Y-102.
X98.5Y-55.25
X98.5Y-105.25
X99.Y-58.
X99.Y-108.
X100.5Y-65.
X100.5Y-115.
X102.25Y-59.25
X102.25Y-109.25
X106.5Y-43.75
X106.5Y-93.75
X110.Y-44.25
X110.Y-94.25
X110.25Y-46.
X110.25Y-96.
X111.Y-63.
X111.Y-113.
X113.75Y-65.75
X113.75Y-115.75
X118.Y-56.75
X118.Y-106.75
X137.Y-45.25
X137.Y-57.75
X137.Y-95.25
X137.Y-107.75
X137.75Y-67.75
X137.75Y-117.75
X138.Y-61.5
X138.Y-111.5
X139.75Y-45.
X139.75Y-95.
X140.5Y-66.5
X140.5Y-116.5
X141.25Y-69.5
X141.25Y-119.5
X141.5Y-56.5
X141.5Y-106.5
X142.Y-45.75
X142.Y-95.75
X143.75Y-56.
X143.75Y-106.
X144.5Y-52.5
X144.5Y-102.5
X144.75Y-57.75
X144.75Y-107.75
X145.Y-65.
X145.Y-115.
X146.Y-43.75
X146.Y-93.75
X146.25Y-44.75
X146.25Y-94.75
X147.Y-52.
X147.Y-102.
X148.5Y-55.25
X148.5Y-105.25
X149.Y-58.
X149.Y-108.
X150.5Y-65.
X150.5Y-115.
X152.25Y-59.25
X152.25Y-109.25
X156.5Y-43.75
X156.5Y-93.75
X160.Y-44.25
X160.Y-94.25
X160.25Y-46.
X160.25Y-96.
X161.Y-63.
X161.Y-113.
X163.75Y-65.75
X163.75Y-115.75
X168.Y-56.75
X168.Y-106.75
T4
X97.96Y-47.5
X97.96Y-50.04
X97.96Y-97.5
X97.96Y-100.04
X100.5Y-47.5
X100.5Y-50.04
X100.5Y-97.5
X100.5Y-100.04
X103.04Y-47.5
X103.04Y-50.04
X103.04Y-97.5
X103.04Y-100.04
X147.96Y-47.5
X147.96Y-50.04
X147.96Y-97.5
X147.96Y-100.04
X150.5Y-47.5
X150.5Y-50.04
X150.5Y-97.5
X150.5Y-100.04
X153.04Y-47.5
X153.04Y-50.04
X153.04Y-97.5
X153.04Y-100.04
T5
X86.5Y-56.25
X86.5Y-106.25
X89.5Y-56.25
X89.5Y-106.25
X136.5Y-56.25
X136.5Y-106.25
X139.5Y-56.25
X139.5Y-106.25
T6
X83.5Y-63.25
X83.5Y-113.25
X100.5Y-37.75
X100.5Y-87.75
X117.5Y-63.25
X117.5Y-113.25
X133.5Y-63.25
X133.5Y-113.25
X150.5Y-37.75
X150.5Y-87.75
X167.5Y-63.25
X167.5Y-113.25
T2
X97.049Y-74.787G85X97.049Y-74.137
G05
X97.049Y-124.787G85X97.049Y-124.137
G05
X104.049Y-74.787G85X104.049Y-74.137
G05
X104.049Y-124.787G85X104.049Y-124.137
G05
X147.049Y-74.787G85X147.049Y-74.137
G05
X147.049Y-124.762G85X147.049Y-124.112
G05
X154.049Y-74.787G85X154.049Y-74.137
G05
X154.049Y-124.762G85X154.049Y-124.112
G05
T3
X97.899Y-71.762G85X98.199Y-71.762
G05
X97.899Y-121.762G85X98.199Y-121.762
G05
X102.899Y-71.762G85X103.199Y-71.762
G05
X102.899Y-121.762G85X103.199Y-121.762
G05
X147.899Y-71.762G85X148.199Y-71.762
G05
X147.899Y-121.737G85X148.199Y-121.737
G05
X152.899Y-71.762G85X153.199Y-71.762
G05
X152.899Y-121.737G85X153.199Y-121.737
G05
T0
M30
