M48
METRIC,TZ
T1C0.400
T2C0.500
T3C0.550
T4C1.000
T5C0.850
T6C1.100
T7C1.600
%
G90
G05
T1
X131.5Y-74.
X131.5Y-86.5
X131.5Y-124.
X131.5Y-136.5
X132.25Y-96.5
X132.25Y-146.5
X132.5Y-90.25
X132.5Y-140.25
X134.25Y-73.75
X134.25Y-123.75
X135.Y-95.25
X135.Y-145.25
X135.75Y-98.25
X135.75Y-148.25
X136.Y-85.25
X136.Y-135.25
X136.5Y-74.5
X136.5Y-124.5
X138.25Y-84.75
X138.25Y-134.75
X139.Y-81.25
X139.Y-131.25
X139.25Y-86.5
X139.25Y-136.5
X139.5Y-93.75
X139.5Y-143.75
X140.5Y-72.5
X140.5Y-122.5
X140.75Y-73.5
X140.75Y-123.5
X141.5Y-80.75
X141.5Y-130.75
X143.Y-84.
X143.Y-134.
X143.5Y-86.75
X143.5Y-136.75
X145.Y-93.75
X145.Y-143.75
X146.75Y-88.
X146.75Y-138.
X151.Y-72.5
X151.Y-122.5
X154.5Y-73.
X154.5Y-123.
X154.75Y-74.75
X154.75Y-124.75
X155.5Y-91.75
X155.5Y-141.75
X158.25Y-94.5
X158.25Y-144.5
X162.5Y-85.5
X162.5Y-135.5
X181.5Y-74.
X181.5Y-86.5
X181.5Y-124.
X181.5Y-136.5
X182.25Y-96.5
X182.25Y-146.5
X182.5Y-90.25
X182.5Y-140.25
X184.25Y-73.75
X184.25Y-123.75
X185.Y-95.25
X185.Y-145.25
X185.75Y-98.25
X185.75Y-148.25
X186.Y-85.25
X186.Y-135.25
X186.5Y-74.5
X186.5Y-124.5
X188.25Y-84.75
X188.25Y-134.75
X189.Y-81.25
X189.Y-131.25
X189.25Y-86.5
X189.25Y-136.5
X189.5Y-93.75
X189.5Y-143.75
X190.5Y-72.5
X190.5Y-122.5
X190.75Y-73.5
X190.75Y-123.5
X191.5Y-80.75
X191.5Y-130.75
X193.Y-84.
X193.Y-134.
X193.5Y-86.75
X193.5Y-136.75
X195.Y-93.75
X195.Y-143.75
X196.75Y-88.
X196.75Y-138.
X201.Y-72.5
X201.Y-122.5
X204.5Y-73.
X204.5Y-123.
X204.75Y-74.75
X204.75Y-124.75
X205.5Y-91.75
X205.5Y-141.75
X208.25Y-94.5
X208.25Y-144.5
X212.5Y-85.5
X212.5Y-135.5
T4
X142.46Y-76.25
X142.46Y-78.79
X142.46Y-126.25
X142.46Y-128.79
X145.Y-76.25
X145.Y-78.79
X145.Y-126.25
X145.Y-128.79
X147.54Y-76.25
X147.54Y-78.79
X147.54Y-126.25
X147.54Y-128.79
X192.46Y-76.25
X192.46Y-78.79
X192.46Y-126.25
X192.46Y-128.79
X195.Y-76.25
X195.Y-78.79
X195.Y-126.25
X195.Y-128.79
X197.54Y-76.25
X197.54Y-78.79
X197.54Y-126.25
X197.54Y-128.79
T5
X131.Y-85.
X131.Y-135.
X134.Y-85.
X134.Y-135.
X181.Y-85.
X181.Y-135.
X184.Y-85.
X184.Y-135.
T6
X124.Y-83.5
X124.Y-85.
X124.Y-86.5
X124.Y-133.5
X124.Y-135.
X124.Y-136.5
X143.5Y-64.
X143.5Y-106.
X143.5Y-114.
X143.5Y-156.
X145.Y-64.
X145.Y-106.
X145.Y-114.
X145.Y-156.
X146.5Y-64.
X146.5Y-106.
X146.5Y-114.
X146.5Y-156.
X166.Y-83.5
X166.Y-85.
X166.Y-86.5
X166.Y-133.5
X166.Y-135.
X166.Y-136.5
X174.Y-83.5
X174.Y-85.
X174.Y-86.5
X174.Y-133.5
X174.Y-135.
X174.Y-136.5
X193.5Y-64.
X193.5Y-106.
X193.5Y-114.
X193.5Y-156.
X195.Y-64.
X195.Y-106.
X195.Y-114.
X195.Y-156.
X196.5Y-64.
X196.5Y-106.
X196.5Y-114.
X196.5Y-156.
X216.Y-83.5
X216.Y-85.
X216.Y-86.5
X216.Y-133.5
X216.Y-135.
X216.Y-136.5
T7
X128.Y-92.
X128.Y-142.
X145.Y-66.5
X145.Y-116.5
X162.Y-92.
X162.Y-142.
X178.Y-92.
X178.Y-142.
X195.Y-66.5
X195.Y-116.5
X212.Y-92.
X212.Y-142.
T2
X141.549Y-103.537G85X141.549Y-102.887
G05
X141.549Y-153.537G85X141.549Y-152.887
G05
X148.549Y-103.537G85X148.549Y-102.887
G05
X148.549Y-153.537G85X148.549Y-152.887
G05
X191.549Y-103.537G85X191.549Y-102.887
G05
X191.549Y-153.512G85X191.549Y-152.862
G05
X198.549Y-103.537G85X198.549Y-102.887
G05
X198.549Y-153.512G85X198.549Y-152.862
G05
T3
X142.399Y-100.512G85X142.699Y-100.512
G05
X142.399Y-150.512G85X142.699Y-150.512
G05
X147.399Y-100.512G85X147.699Y-100.512
G05
X147.399Y-150.512G85X147.699Y-150.512
G05
X192.399Y-100.512G85X192.699Y-100.512
G05
X192.399Y-150.487G85X192.699Y-150.487
G05
X197.399Y-100.512G85X197.699Y-100.512
G05
X197.399Y-150.487G85X197.699Y-150.487
G05
T0
M30
